@ File generated by m4a2s Song-Module
	.include "MPlayDef.s"

	.equ	fe6_seq_014_grp, native_instrument_map_bin
	.equ	fe6_seq_014_pri, 10
	.equ	fe6_seq_014_rev, 158
	.equ	fe6_seq_014_mvl, 127
	.equ	fe6_seq_014_key, 0

	.section .rodata
	.global	fe6_seq_014
	.align	2

@*********************** Track 01 ***********************@

fe6_seq_014_0:
	.byte	KEYSH , fe6_seq_014_key+0
	.byte	TEMPO , 96/2
	.byte		VOICE , 1
	.byte		VOL   , 82*fe6_seq_014_mvl/mxv
	.byte		PAN   , c_v+0
	.byte	W06
	.byte		N05   , Gn2 , v100
	.byte	W06
	.byte		        Dn3 , v108
	.byte	W06
	.byte		        Gn3 , v096
	.byte	W06
	.byte		        Dn3 , v108
	.byte	W06
	.byte		        Gn2 , v088
	.byte	W12
	.byte		N03   , Gn2 , v100
	.byte	W06
	.byte		N05   , Dn3 , v112
	.byte	W06
	.byte		        Gn3 , v096
	.byte	W06
	.byte		        Dn3 , v104
	.byte	W06
	.byte		        Gn2 , v092
	.byte	W06
	.byte	W06
	.byte		N04   , Gn2 , v096
	.byte	W06
	.byte		N05   , Cn3 , v104
	.byte	W06
	.byte		        Fn3 , v096
	.byte	W06
	.byte		        Cn3 , v100
	.byte	W06
	.byte		        Gn2 , v096
	.byte	W12
	.byte		N04
	.byte	W06
	.byte		N05   , Cn3 
	.byte	W06
	.byte		        Fn3 , v092
	.byte	W06
	.byte		        Cn3 , v088
	.byte	W06
	.byte		N06   , Gn2 
	.byte	W06
	.byte	W06
	.byte		N05   , Gn2 , v096
	.byte	W06
	.byte		        Cn3 , v100
	.byte	W06
	.byte		        En3 
	.byte	W06
	.byte		        Cn3 , v096
	.byte	W06
	.byte		N04   , Gn2 , v100
	.byte	W12
	.byte		N04
	.byte	W06
	.byte		N05   , Cn3 , v104
	.byte	W06
	.byte		        En3 , v100
	.byte	W06
	.byte		        Cn3 , v088
	.byte	W06
	.byte		        Gn2 , v096
	.byte	W06
	.byte	W06
	.byte		N04   , Gn2 , v100
	.byte	W06
	.byte		N05   , Cn3 
	.byte	W06
	.byte		        Dn3 , v108
	.byte	W06
	.byte		        Cn3 , v096
	.byte	W06
	.byte		        Gn2 , v084
	.byte	W12
	.byte		N04   , Gn2 , v092
	.byte	W06
	.byte		N05   , Cn3 , v104
	.byte	W06
	.byte		        Dn3 , v108
	.byte	W06
	.byte		        Cn3 , v100
	.byte	W06
	.byte		        Gn2 
	.byte	W06
	.byte	W06
	.byte		N04
	.byte	W06
	.byte		N05   , Dn3 , v116
	.byte	W06
	.byte		        Gn3 , v096
	.byte	W06
	.byte		N04   , Dn3 , v112
	.byte	W06
	.byte		N05   , Gn2 , v092
	.byte	W12
	.byte		N04   , Gn2 , v088
	.byte	W06
	.byte		N05   , Dn3 , v112
	.byte	W06
	.byte		        Gn3 , v096
	.byte	W06
	.byte		        Dn3 , v112
	.byte	W06
	.byte		N04   , Gn2 , v096
	.byte	W06
	.byte	W06
	.byte		        Gn2 , v104
	.byte	W06
	.byte		N05   , Cn3 , v100
	.byte	W06
	.byte		        Fn3 , v096
	.byte	W06
	.byte		N04   , Cn3 
	.byte	W06
	.byte		N05   , Gn2 , v092
	.byte	W12
	.byte		N04   , Gn2 , v108
	.byte	W06
	.byte		N05   , Cn3 , v104
	.byte	W06
	.byte		        Fn3 , v092
	.byte	W06
	.byte		N04   , Cn3 , v100
	.byte	W06
	.byte		N05   , Gn2 , v092
	.byte	W06
	.byte	W06
	.byte		        Gn2 , v096
	.byte	W06
	.byte		        Cn3 , v104
	.byte	W06
	.byte		        En3 , v100
	.byte	W06
	.byte		N04   , Cn3 
	.byte	W06
	.byte		N05   , Gn2 , v096
	.byte	W12
	.byte		        Gn2 , v104
	.byte	W06
	.byte		        Cn3 
	.byte	W06
	.byte		        En3 
	.byte	W06
	.byte		N04   , Cn3 , v092
	.byte	W06
	.byte		N05   , Gn2 
	.byte	W06
	.byte	W06
	.byte		N04   , Gn2 , v100
	.byte	W06
	.byte		N05   , Cn3 , v092
	.byte	W06
	.byte		        Dn3 , v096
	.byte	W06
	.byte		        Cn3 
	.byte	W06
	.byte		N04   , Gn2 
	.byte	W12
	.byte		        Gn2 , v104
	.byte	W06
	.byte		        Cn3 , v092
	.byte	W06
	.byte		N05   , Dn3 , v104
	.byte	W06
	.byte		        Gn3 , v084
	.byte	W06
	.byte		N04   , Dn4 , v072
	.byte	W06
	.byte	W72
	.byte	W72
	.byte	W72
	.byte	W72
	.byte	W72
	.byte	W72
	.byte	W72
	.byte	W48
	.byte		VOICE , 1
	.byte		VOL   , 82*fe6_seq_014_mvl/mxv
	.byte		PAN   , c_v+0
	.byte	W24
	.byte		N05   , As2 , v127
	.byte		N05   , Gn3 , v124
	.byte	W06
	.byte		        As2 , v040
	.byte		N05   , Gn3 , v036
	.byte	W66
	.byte		N68   , Fn2 , v112
	.byte		N68   , Cn3 , v124
	.byte	W72
	.byte		TIE   , Gn2 , v100
	.byte		TIE   , Dn3 , v116
	.byte	W72
	.byte	W48
	.byte	W01
	.byte		EOT   , Gn2 
	.byte	W01
	.byte		        Dn3 
	.byte	W22
	.byte		N05   , As2 , v124
	.byte		N05   , Gn3 , v127
	.byte	W06
	.byte		        As2 , v036
	.byte		N05   , Gn3 , v044
	.byte	W66
	.byte		N60   , As2 , v112
	.byte		N56   , Fn3 , v116
	.byte	W72
	.byte		N32   , Fn2 , v120
	.byte		N32   , Cn3 , v124
	.byte	W36
	.byte		TIE   , Gn2 , v108
	.byte		TIE   , Dn3 , v120
	.byte	W36
	.byte	W60
	.byte	W01
	.byte		EOT
	.byte	W02
	.byte		EOT   , Gn2 
	.byte	W09
	.byte		N05   , Fn2 
	.byte		N05   , Dn3 , v127
	.byte	W06
	.byte		N06   , Fn2 , v036
	.byte		N06   , Dn3 , v044
	.byte	W66
	.byte		N24   , Fn2 , v116
	.byte		N24   , Dn3 , v127
	.byte	W36
	.byte		N16   , Ds2 , v088
	.byte		N13   , Cn3 , v112
	.byte	W24
	.byte		N02   , Dn2 , v096
	.byte		N03   , As2 , v092
	.byte	W06
	.byte		N02   , Dn2 , v028
	.byte		N03   , As2 , v020
	.byte	W06
	.byte		N05   , En2 , v124
	.byte		N05   , Cn3 , v112
	.byte	W06
	.byte		N07   , En2 , v040
	.byte		N06   , Cn3 , v024
	.byte	W66
	.byte		N60   , Cn2 , v112
	.byte		N60   , An2 
	.byte	W72
	.byte	W72
	.byte	W36
	.byte		N24   , An2 , v108
	.byte		N24   , Fn3 
	.byte	W36
	.byte		        Gn2 
	.byte		N22   , En3 , v124
	.byte	W36
	.byte		N28   , Ds2 , v104
	.byte		N24   , Cn3 , v112
	.byte	W36
	.byte		N60   , Fn2 
	.byte		N60   , Dn3 , v127
	.byte	W72
	.byte	GOTO
	 .word	fe6_seq_014_0 + 0x2
	.byte	FINE

@*********************** Track 02 ***********************@

fe6_seq_014_1:
	.byte	KEYSH , fe6_seq_014_key+0
	.byte	W72
	.byte	W72
	.byte	W48
	.byte		VOICE , 68
	.byte		MOD   , 0
	.byte		VOL   , 36*fe6_seq_014_mvl/mxv
	.byte		PAN   , c_v-3
	.byte		BEND  , c_v-3
	.byte	W24
	.byte	W36
	.byte		N05   , Gn3 , v076
	.byte	W06
	.byte		        Dn4 
	.byte	W06
	.byte		        En4 
	.byte	W06
	.byte		        Gn4 
	.byte	W06
	.byte		        En4 
	.byte	W06
	.byte		        Dn4 
	.byte	W06
	.byte		        Dn4 , v032
	.byte	W72
	.byte	W72
	.byte	W72
	.byte	W36
	.byte		        Gn3 , v076
	.byte	W06
	.byte		        Cn4 
	.byte	W06
	.byte		        Dn4 
	.byte	W06
	.byte		        Gn4 
	.byte	W06
	.byte		        Dn4 
	.byte	W06
	.byte		        Cn4 
	.byte	W06
	.byte		        Cn4 , v032
	.byte	W72
	.byte	W72
	.byte	W72
	.byte	W72
	.byte	W72
	.byte	W72
	.byte	W72
	.byte	W72
	.byte	W72
	.byte	W72
	.byte	W72
	.byte	W72
	.byte	W48
	.byte		VOICE , 68
	.byte		MOD   , 3
	.byte		VOL   , 62*fe6_seq_014_mvl/mxv
	.byte		PAN   , c_v-3
	.byte		BEND  , c_v+0
	.byte	W24
	.byte	W36
	.byte		N02   , Gn2 , v116
	.byte	W03
	.byte		        An2 , v096
	.byte	W03
	.byte		        As2 
	.byte	W03
	.byte		        Cn3 , v100
	.byte	W03
	.byte		        Dn3 
	.byte	W03
	.byte		        En3 , v104
	.byte	W03
	.byte		        Fn3 , v092
	.byte	W03
	.byte		        Gn3 
	.byte	W03
	.byte		N05   , An3 , v108
	.byte	W06
	.byte		        As3 , v092
	.byte	W06
	.byte		N32   , Gn3 
	.byte	W32
	.byte		N02   , Gn3 , v032
	.byte	W04
	.byte		N32   , Cn4 , v092
	.byte	W32
	.byte		N02   , Cn4 , v032
	.byte	W04
	.byte		N32   , As3 , v092
	.byte	W32
	.byte		N02   , As3 , v032
	.byte	W04
	.byte		N20   , An3 , v092
	.byte	W20
	.byte		N02   , An3 , v032
	.byte	W04
	.byte		N08   , Fn3 , v088
	.byte	W08
	.byte		N02   , Fn3 , v032
	.byte	W04
	.byte		N56   , Gn3 , v092
	.byte	W56
	.byte		N02   , Gn3 , v032
	.byte	W04
	.byte		N05   , Dn3 , v092
	.byte	W06
	.byte		        Cn3 
	.byte	W06
	.byte		N52   , Dn3 
	.byte	W54
	.byte		N03   , Dn3 , v032
	.byte	W06
	.byte		N05   , Ds3 , v080
	.byte	W06
	.byte		        Fn3 , v092
	.byte	W06
	.byte		N24   , Gn3 
	.byte	W24
	.byte	W02
	.byte		N03   , Gn3 , v032
	.byte	W10
	.byte		N24   , Fn3 , v092
	.byte	W24
	.byte	W02
	.byte		N03   , Fn3 , v032
	.byte	W10
	.byte		N24   , Cn4 , v092
	.byte	W24
	.byte	W02
	.byte		N03   , Cn4 , v032
	.byte	W10
	.byte		N24   , An3 , v088
	.byte	W24
	.byte	W02
	.byte		N03   , An3 , v032
	.byte	W10
	.byte		N56   , Gn3 , v092
	.byte	W56
	.byte		N02   , Gn3 , v032
	.byte	W04
	.byte		N11   , An3 , v092
	.byte	W12
	.byte		N68   , As3 , v084
	.byte	W68
	.byte		N02   , As3 , v032
	.byte	W04
	.byte		N56   , Cn4 , v092
	.byte	W56
	.byte		N02   , Cn4 , v032
	.byte	W04
	.byte		N05   , As3 , v080
	.byte	W06
	.byte		        An3 , v092
	.byte	W06
	.byte		N32   , As3 
	.byte	W32
	.byte		N02   , As3 , v032
	.byte	W04
	.byte		N32   , Gn3 , v092
	.byte	W32
	.byte		N02   , Gn3 , v032
	.byte	W04
	.byte	GOTO
	 .word	fe6_seq_014_1 + 0x2
	.byte	FINE

@*********************** Track 03 ***********************@

fe6_seq_014_2:
	.byte	KEYSH , fe6_seq_014_key+0
	.byte	W72
	.byte		VOICE , 60
	.byte		VOL   , 86*fe6_seq_014_mvl/mxv
	.byte		PAN   , c_v+10
	.byte		N68   , Fn2 , v104
	.byte		N68   , Cn3 , v112
	.byte	W72
	.byte		N72   , Gn2 , v108
	.byte		N72   , Dn3 , v104
	.byte	W48
	.byte		VOICE , 68
	.byte		VOL   , 45*fe6_seq_014_mvl/mxv
	.byte		PAN   , c_v-3
	.byte	W24
	.byte	W36
	.byte		N05   , Gn3 , v088
	.byte	W06
	.byte		        Dn4 
	.byte	W06
	.byte		        En4 
	.byte	W06
	.byte		        Gn4 
	.byte	W06
	.byte		        En4 
	.byte	W06
	.byte		        Dn4 
	.byte	W06
	.byte		        Dn4 , v032
	.byte	W48
	.byte		VOICE , 60
	.byte		VOL   , 86*fe6_seq_014_mvl/mxv
	.byte		PAN   , c_v+10
	.byte	W24
	.byte		N68   , Fn2 , v104
	.byte		N68   , Cn3 , v108
	.byte	W72
	.byte		TIE   , Gn2 , v104
	.byte		TIE   , Dn3 , v108
	.byte	W72
	.byte	W32
	.byte	W03
	.byte		EOT   , Gn2 
	.byte		        Dn3 
	.byte	W01
	.byte		VOICE , 68
	.byte		VOL   , 45*fe6_seq_014_mvl/mxv
	.byte		PAN   , c_v-3
	.byte		N05   , Gn3 , v076
	.byte	W06
	.byte		        Cn4 
	.byte	W06
	.byte		        Dn4 
	.byte	W06
	.byte		        Gn4 
	.byte	W06
	.byte		        Dn4 
	.byte	W06
	.byte		        Cn4 
	.byte	W06
	.byte		VOICE , 60
	.byte		VOL   , 86*fe6_seq_014_mvl/mxv
	.byte		PAN   , c_v+10
	.byte		N64   , Gn2 , v124
	.byte	W66
	.byte		N05   , Cn3 , v116
	.byte	W06
	.byte		N68   , Dn3 , v127
	.byte	W72
	.byte		        Gn3 , v112
	.byte	W72
	.byte		N66   , Fn3 , v116
	.byte	W72
	.byte		N64   , Gn2 , v127
	.byte	W66
	.byte		N05   , Cn3 , v112
	.byte	W06
	.byte		N66   , Dn3 , v127
	.byte	W72
	.byte		N68   , Gn3 , v124
	.byte	W72
	.byte		N32   , An3 , v112
	.byte	W36
	.byte		        Fn3 
	.byte	W36
	.byte		VOICE , 52
	.byte		VOL   , 70*fe6_seq_014_mvl/mxv
	.byte		PAN   , c_v+7
	.byte		TIE   , Gn3 , v080
	.byte	W72
	.byte	W72
	.byte	W72
	.byte	W72
	.byte	W72
	.byte	W72
	.byte	W72
	.byte	W68
	.byte	W03
	.byte		EOT
	.byte	W01
	.byte		N68   , Cn4 , v092
	.byte	W72
	.byte		        As3 
	.byte	W72
	.byte		        An3 
	.byte	W72
	.byte		        Fn3 
	.byte	W72
	.byte		TIE   , Gn3 
	.byte	W72
	.byte	W72
	.byte	W72
	.byte	W68
	.byte	W03
	.byte		EOT
	.byte	W01
	.byte	GOTO
	 .word	fe6_seq_014_2 + 0x2
	.byte	FINE

@*********************** Track 04 ***********************@

fe6_seq_014_3:
	.byte	KEYSH , fe6_seq_014_key+0
	.byte		VOICE , 48
	.byte		VOL   , 86*fe6_seq_014_mvl/mxv
	.byte		PAN   , c_v+10
	.byte		N68   , Gn2 , v116
	.byte	W72
	.byte		        Cn3 , v104
	.byte	W72
	.byte		N90   , Dn3 , v124
	.byte	W72
	.byte	W24
	.byte		N11   , Fn3 , v104
	.byte	W12
	.byte		N23   , En3 
	.byte	W24
	.byte		N11   , Cn3 
	.byte	W12
	.byte		TIE   , Dn3 , v112
	.byte	W72
	.byte	W32
	.byte	W03
	.byte		EOT
	.byte	W01
	.byte		TIE   , Gn3 , v100
	.byte	W36
	.byte	W72
	.byte	W15
	.byte		EOT
	.byte	W21
	.byte		N04   , Gn2 , v116
	.byte		N05   , Gn3 , v127
	.byte	W06
	.byte		        An2 , v092
	.byte		N05   , An3 , v096
	.byte	W06
	.byte		        As2 
	.byte		N05   , As3 , v100
	.byte	W06
	.byte		        Cn3 
	.byte		N05   , Cn4 , v096
	.byte	W06
	.byte		        Dn3 , v116
	.byte		N05   , Dn4 , v120
	.byte	W06
	.byte		        Ds3 , v096
	.byte		N05   , Ds4 , v092
	.byte	W06
	.byte		N68   , Fn3 , v100
	.byte		N68   , Fn4 , v112
	.byte	W72
	.byte		N56   , Ds3 , v092
	.byte		N56   , Ds4 , v100
	.byte	W60
	.byte		N11   , Dn3 , v104
	.byte		N11   , Dn4 , v100
	.byte	W12
	.byte		N68   , Cn3 
	.byte		N68   , Cn4 , v108
	.byte	W72
	.byte		TIE   , Dn3 , v104
	.byte		TIE   , Dn4 
	.byte	W72
	.byte	W72
	.byte	W68
	.byte	W03
	.byte		EOT   , Dn3 
	.byte		        Dn4 
	.byte	W01
	.byte		N68   , Ds3 , v100
	.byte		N68   , Ds4 , v112
	.byte	W72
	.byte		        Fn3 , v100
	.byte		N68   , Fn4 , v108
	.byte	W48
	.byte		VOICE , 48
	.byte		VOL   , 86*fe6_seq_014_mvl/mxv
	.byte		PAN   , c_v+10
	.byte	W24
	.byte	W06
	.byte		N05   , Gn2 , v120
	.byte	W06
	.byte		N06   , Dn3 , v112
	.byte	W06
	.byte		        Gn3 , v108
	.byte	W06
	.byte		        Dn3 
	.byte	W06
	.byte		        Gn2 , v104
	.byte	W12
	.byte		N05   , Gn2 , v120
	.byte	W06
	.byte		N06   , Dn3 
	.byte	W06
	.byte		        Gn3 , v108
	.byte	W06
	.byte		        Dn3 
	.byte	W06
	.byte		N05   , Gn2 , v104
	.byte	W06
	.byte	W06
	.byte		        Gn2 , v116
	.byte	W06
	.byte		N06   , Cn3 , v112
	.byte	W06
	.byte		        Fn3 , v108
	.byte	W06
	.byte		        Cn3 , v104
	.byte	W06
	.byte		        Gn2 , v108
	.byte	W12
	.byte		        Gn2 , v124
	.byte	W06
	.byte		        Cn3 , v104
	.byte	W06
	.byte		        Fn3 , v088
	.byte	W06
	.byte		        Cn3 , v096
	.byte	W06
	.byte		        Gn2 , v112
	.byte	W06
	.byte	W06
	.byte		N05
	.byte	W06
	.byte		N06   , Dn3 , v120
	.byte	W06
	.byte		        Gn3 , v104
	.byte	W06
	.byte		        Dn3 , v112
	.byte	W06
	.byte		        Gn2 , v108
	.byte	W12
	.byte		N05   , Gn2 , v127
	.byte	W06
	.byte		N06   , Dn3 
	.byte	W06
	.byte		        Gn3 , v096
	.byte	W06
	.byte		        Dn3 , v112
	.byte	W06
	.byte		        Gn2 , v108
	.byte	W06
	.byte	W06
	.byte		        Gn2 , v124
	.byte	W06
	.byte		        Cn3 , v116
	.byte	W06
	.byte		        Fn3 , v100
	.byte	W06
	.byte		        Cn3 , v104
	.byte	W06
	.byte		N05   , Gn2 , v116
	.byte	W12
	.byte		        Gn2 , v127
	.byte	W06
	.byte		N06   , Cn3 , v108
	.byte	W06
	.byte		        Fn3 , v104
	.byte	W06
	.byte		        Cn3 
	.byte	W06
	.byte		N05   , Gn2 
	.byte	W06
	.byte	W06
	.byte		        Gn2 , v108
	.byte	W06
	.byte		N06   , Dn3 , v124
	.byte	W06
	.byte		        Gn3 , v104
	.byte	W06
	.byte		        Dn3 , v124
	.byte	W06
	.byte		N05   , Gn2 , v112
	.byte	W12
	.byte		        Gn2 , v116
	.byte	W06
	.byte		N06   , Dn3 , v124
	.byte	W06
	.byte		        Gn3 , v104
	.byte	W06
	.byte		        Dn3 , v108
	.byte	W06
	.byte		N05   , Gn2 , v096
	.byte	W06
	.byte	W06
	.byte		        Fn3 , v127
	.byte	W06
	.byte		N06   , Cn3 , v108
	.byte	W06
	.byte		        Dn3 , v104
	.byte	W06
	.byte		        An2 , v108
	.byte	W06
	.byte		        Gn2 
	.byte	W42
	.byte	W72
	.byte	W72
	.byte	W72
	.byte	W72
	.byte	W72
	.byte	W48
	.byte		VOICE , 48
	.byte		VOL   , 86*fe6_seq_014_mvl/mxv
	.byte		PAN   , c_v+10
	.byte	W24
	.byte		N56   , Gn2 , v096
	.byte	W60
	.byte		N11   , An2 , v100
	.byte	W12
	.byte		N68   , As2 , v084
	.byte	W72
	.byte		N56   , Cn3 , v112
	.byte	W60
	.byte		N05   , As2 , v080
	.byte	W06
	.byte		        An2 , v100
	.byte	W06
	.byte		N32   , As2 , v104
	.byte	W36
	.byte		        Gn2 , v092
	.byte	W36
	.byte	GOTO
	 .word	fe6_seq_014_3 + 0x2
	.byte	FINE

@*********************** Track 05 ***********************@

fe6_seq_014_4:
	.byte	KEYSH , fe6_seq_014_key+0
	.byte		VOICE , 58
	.byte		VOL   , 80*fe6_seq_014_mvl/mxv
	.byte		PAN   , c_v-7
	.byte		N28   , Gn2 , v116
	.byte	W36
	.byte		N32   , Gn2 , v112
	.byte	W36
	.byte		N30   , Gn2 , v104
	.byte	W36
	.byte		N32   , Gn2 , v108
	.byte	W36
	.byte	PEND
	.byte		N30
	.byte	W36
	.byte		N32   , Gn2 , v112
	.byte	W36
	.byte	PATT
	 .word	fe6_seq_014_4 + 0x10
	.byte		N30   , Gn2 , v124
	.byte	W36
	.byte		N28   , Gn2 , v116
	.byte	W36
	.byte		N30   , Gn2 , v112
	.byte	W36
	.byte		N32   , Gn2 , v096
	.byte	W36
	.byte		N28   , Gn2 , v088
	.byte	W36
	.byte		N30   , Gn2 , v104
	.byte	W36
	.byte		N28   , Gn2 , v108
	.byte	W36
	.byte		        Gn2 , v100
	.byte	W30
	.byte		N04   , Dn5 , v112
	.byte	W06
	.byte		N05   , Ds2 , v096
	.byte	W06
	.byte		        As2 
	.byte	W06
	.byte		        Ds3 
	.byte	W06
	.byte		        Gn3 
	.byte	W06
	.byte		        As3 
	.byte	W06
	.byte		        Ds4 
	.byte	W06
	.byte		        Ds2 
	.byte	W06
	.byte		        As2 
	.byte	W06
	.byte		        Ds3 
	.byte	W06
	.byte		        Gn3 
	.byte	W06
	.byte		        As3 
	.byte	W06
	.byte		        Ds4 
	.byte	W06
	.byte	PEND
	.byte		        Ds2 
	.byte	W06
	.byte		        As2 
	.byte	W06
	.byte		        Ds3 
	.byte	W06
	.byte		        Gn3 
	.byte	W06
	.byte		        As3 
	.byte	W06
	.byte		        Ds4 
	.byte	W06
	.byte		        Ds2 
	.byte	W06
	.byte		        As2 
	.byte	W06
	.byte		N04   , Ds3 
	.byte	W06
	.byte		N05   , Gn3 
	.byte	W06
	.byte		        As3 
	.byte	W06
	.byte		        Ds4 
	.byte	W06
	.byte		        Dn2 
	.byte	W06
	.byte		        An2 
	.byte	W06
	.byte		N04   , Dn3 
	.byte	W06
	.byte		N05   , Fn3 
	.byte	W06
	.byte		        An3 
	.byte	W06
	.byte		        Dn4 
	.byte	W06
	.byte		        Dn2 
	.byte	W06
	.byte		        An2 
	.byte	W06
	.byte		N04   , Dn3 
	.byte	W06
	.byte		N05   , Fn3 
	.byte	W06
	.byte		        An3 
	.byte	W06
	.byte		        Dn4 
	.byte	W06
	.byte		        Dn2 
	.byte	W06
	.byte		        An2 
	.byte	W06
	.byte		N04   , Dn3 
	.byte	W06
	.byte		N05   , Fn3 
	.byte	W06
	.byte		        An3 
	.byte	W06
	.byte		        Dn4 
	.byte	W06
	.byte		        Dn2 
	.byte	W06
	.byte		        An2 
	.byte	W06
	.byte		        Dn3 
	.byte	W06
	.byte		        Fn3 
	.byte	W06
	.byte		        An3 
	.byte	W06
	.byte		        Dn4 
	.byte	W06
	.byte	PATT
	 .word	fe6_seq_014_4 + 0x47
	.byte	PATT
	 .word	fe6_seq_014_4 + 0x47
	.byte		N05   , Dn2 , v096
	.byte	W06
	.byte		        An2 
	.byte	W06
	.byte		        Dn3 
	.byte	W06
	.byte		        Fn3 
	.byte	W06
	.byte		        An3 
	.byte	W06
	.byte		        Dn4 
	.byte	W06
	.byte		        Dn2 
	.byte	W06
	.byte		        An2 
	.byte	W06
	.byte		        Dn3 
	.byte	W06
	.byte		        Fn3 
	.byte	W06
	.byte		        An3 
	.byte	W06
	.byte		        Dn4 
	.byte	W06
	.byte		        Dn2 
	.byte	W06
	.byte		        An2 
	.byte	W06
	.byte		        Dn3 
	.byte	W06
	.byte		        Fn3 
	.byte	W06
	.byte		        An3 
	.byte	W06
	.byte		        Dn4 
	.byte	W06
	.byte		        Dn2 
	.byte	W06
	.byte		        An2 
	.byte	W06
	.byte		N04   , Dn3 
	.byte	W06
	.byte		N05   , Fn3 
	.byte	W06
	.byte		        An3 
	.byte	W06
	.byte		        Dn4 
	.byte	W06
	.byte		N04   , Gn3 , v127
	.byte	W12
	.byte		N03   , Gn3 , v100
	.byte	W12
	.byte		        Gn3 , v096
	.byte	W12
	.byte		        Gn3 , v108
	.byte	W12
	.byte		        Gn3 , v096
	.byte	W12
	.byte		        Gn3 , v092
	.byte	W12
	.byte		        Gn3 , v100
	.byte	W12
	.byte		N02   , Gn3 , v096
	.byte	W12
	.byte		N03   , Gn3 , v104
	.byte	W12
	.byte		        Gn3 , v112
	.byte	W12
	.byte		        Gn3 , v104
	.byte	W12
	.byte		        Gn3 , v092
	.byte	W12
	.byte	W12
	.byte		        Gn3 , v108
	.byte	W12
	.byte		N02   , Gn3 , v104
	.byte	W12
	.byte		N03   , Gn3 , v108
	.byte	W12
	.byte		        Gn3 , v104
	.byte	W12
	.byte		N03
	.byte	W12
	.byte		        Gn3 , v116
	.byte	W12
	.byte		        Gn3 , v104
	.byte	W12
	.byte		        Gn3 , v108
	.byte	W12
	.byte		        Gn3 , v124
	.byte	W12
	.byte		        Gn3 , v108
	.byte	W12
	.byte		        Gn3 , v088
	.byte	W12
	.byte		        Gn3 , v120
	.byte	W12
	.byte		N02   , Gn3 , v088
	.byte	W12
	.byte		        Gn3 , v096
	.byte	W12
	.byte		N03   , Gn3 , v116
	.byte	W12
	.byte		N01   , Gn3 , v080
	.byte	W12
	.byte		N03   , Gn3 , v100
	.byte	W12
	.byte		N04   , Gn3 , v116
	.byte	W12
	.byte		N03   , Gn3 , v096
	.byte	W12
	.byte		        Gn3 , v100
	.byte	W12
	.byte		        Gn3 , v108
	.byte	W12
	.byte		        Gn3 , v100
	.byte	W12
	.byte		N03
	.byte	W12
	.byte		N04   , Gn3 , v112
	.byte	W12
	.byte		N03   , Gn3 , v096
	.byte	W12
	.byte		        Gn3 , v100
	.byte	W12
	.byte		        Gn3 , v108
	.byte	W12
	.byte		        Gn3 , v104
	.byte	W12
	.byte		        Gn3 , v116
	.byte	W12
	.byte		        Gn3 , v100
	.byte	W12
	.byte		        Gn3 , v108
	.byte	W12
	.byte		N04   , Gn3 , v104
	.byte	W12
	.byte		N03   , Gn3 , v108
	.byte	W12
	.byte		N02   , Gn3 , v076
	.byte	W12
	.byte		N04   , Gn3 , v100
	.byte	W12
	.byte		N03   , Ds3 , v127
	.byte	W12
	.byte		N02   , Ds3 , v108
	.byte	W12
	.byte		N03   , Ds3 , v104
	.byte	W12
	.byte		N02   , Ds3 , v120
	.byte	W12
	.byte		        Ds3 , v112
	.byte	W12
	.byte		        Ds3 , v100
	.byte	W12
	.byte		N03   , Ds3 , v096
	.byte	W12
	.byte		        Ds3 , v112
	.byte	W12
	.byte		        Ds3 , v116
	.byte	W12
	.byte		        Ds3 , v108
	.byte	W12
	.byte		N03
	.byte	W12
	.byte		N03
	.byte	W06
	.byte		        Ds3 , v096
	.byte	W06
	.byte		N04   , Dn3 , v124
	.byte	W12
	.byte		N03   , Dn3 , v112
	.byte	W12
	.byte		        Dn3 , v116
	.byte	W12
	.byte		N03
	.byte	W12
	.byte		        Dn3 , v104
	.byte	W12
	.byte		        Dn3 , v127
	.byte	W12
	.byte		N03
	.byte	W12
	.byte		        Dn3 , v116
	.byte	W12
	.byte		        Dn3 , v124
	.byte	W12
	.byte		        Dn3 , v127
	.byte	W12
	.byte		        Dn3 , v124
	.byte	W12
	.byte		        Dn3 , v116
	.byte	W12
	.byte		        Gn3 , v127
	.byte	W12
	.byte		N02   , Gn3 , v092
	.byte	W12
	.byte		N03   , Gn3 , v108
	.byte	W12
	.byte		        Gn3 , v112
	.byte	W12
	.byte		N03
	.byte	W12
	.byte		        Gn3 , v108
	.byte	W12
	.byte		        Gn3 , v116
	.byte	W12
	.byte		        Gn3 , v104
	.byte	W12
	.byte		N02   , Gn3 , v088
	.byte	W12
	.byte		N03   , Gn3 , v104
	.byte	W12
	.byte		        Gn3 , v108
	.byte	W12
	.byte		N03
	.byte	W12
	.byte		N03
	.byte	W12
	.byte		        Gn3 , v100
	.byte	W12
	.byte		        Gn3 , v104
	.byte	W12
	.byte		        Gn3 , v112
	.byte	W12
	.byte		        Gn3 , v104
	.byte	W12
	.byte		        Gn3 , v100
	.byte	W12
	.byte		        Gn3 , v112
	.byte	W12
	.byte		N03
	.byte	W12
	.byte		        Gn3 , v108
	.byte	W12
	.byte		        Gn3 , v112
	.byte	W12
	.byte		        Gn3 , v104
	.byte	W12
	.byte		N02   , Gn3 , v108
	.byte	W12
	.byte	GOTO
	 .word	fe6_seq_014_4 + 0x2
	.byte	FINE

@*********************** Track 06 ***********************@

fe6_seq_014_5:
	.byte	KEYSH , fe6_seq_014_key+0
	.byte		VOICE , 127
	.byte		VOL   , 82*fe6_seq_014_mvl/mxv
	.byte		PAN   , c_v-13
	.byte		N28   , Gn1 , v127
	.byte	W30
	.byte		N05   , Gn1 , v116
	.byte	W06
	.byte		N11   , Gn1 , v127
	.byte	W12
	.byte		N24
	.byte	W24
	.byte	W72
	.byte		N24
	.byte	W30
	.byte		N05
	.byte	W06
	.byte		N11
	.byte	W12
	.byte		N24
	.byte	W24
	.byte	W72
	.byte		N28
	.byte	W30
	.byte		N05
	.byte	W06
	.byte		N11   , Gn1 , v124
	.byte	W12
	.byte		N24   , Gn1 , v127
	.byte	W24
	.byte	W72
	.byte		N24
	.byte	W30
	.byte		N05   , Gn1 , v124
	.byte	W06
	.byte		N11   , Gn1 , v127
	.byte	W12
	.byte		N24
	.byte	W24
	.byte	W36
	.byte		N02   , Gn1 , v108
	.byte	W03
	.byte		        Fn1 , v100
	.byte	W03
	.byte		        Gn1 
	.byte	W03
	.byte		        Fn1 , v096
	.byte	W03
	.byte		        Gn1 , v100
	.byte	W03
	.byte		        Fn1 , v092
	.byte	W03
	.byte		        Gn1 , v104
	.byte	W03
	.byte		        Fn1 , v084
	.byte	W03
	.byte		        Gn1 , v100
	.byte	W03
	.byte		        Fn1 , v088
	.byte	W03
	.byte		        Gn1 , v104
	.byte	W03
	.byte		        Fn1 , v100
	.byte	W03
	.byte		N44   , Gn1 , v127
	.byte	W72
	.byte	W72
	.byte	W72
	.byte	W72
	.byte	W72
	.byte	W72
	.byte	W72
	.byte	W36
	.byte		N02   , Gn1 , v096
	.byte	W03
	.byte		        Fn1 , v108
	.byte	W03
	.byte		        Gn1 , v096
	.byte	W03
	.byte		        Fn1 , v088
	.byte	W03
	.byte		        Gn1 , v100
	.byte	W03
	.byte		        Fn1 , v084
	.byte	W03
	.byte		        Gn1 , v100
	.byte	W03
	.byte		        Fn1 , v076
	.byte	W03
	.byte		        Gn1 , v100
	.byte	W03
	.byte		        Fn1 , v080
	.byte	W03
	.byte		        Gn1 , v100
	.byte	W03
	.byte		        Fn1 , v096
	.byte	W03
	.byte		N11   , Gn1 , v116
	.byte	W12
	.byte		N05   , Gn1 , v124
	.byte	W06
	.byte		        Fn1 , v104
	.byte	W06
	.byte		        Gn1 , v120
	.byte	W06
	.byte		        Fn1 , v124
	.byte	W06
	.byte		N11   , Gn1 , v127
	.byte	W12
	.byte		N24
	.byte	W24
	.byte	W72
	.byte		N11
	.byte	W12
	.byte		N05
	.byte	W06
	.byte		        Fn1 , v120
	.byte	W06
	.byte		        Gn1 , v127
	.byte	W06
	.byte		        Fn1 
	.byte	W06
	.byte		N11   , Gn1 
	.byte	W12
	.byte		N24
	.byte	W24
	.byte	W72
	.byte		N11
	.byte	W12
	.byte		N05   , Gn1 , v124
	.byte	W06
	.byte		        Fn1 
	.byte	W06
	.byte		        Gn1 , v127
	.byte	W06
	.byte		        Fn1 
	.byte	W06
	.byte		N11   , Gn1 
	.byte	W12
	.byte		N24
	.byte	W24
	.byte	W72
	.byte		N11   , Gn1 , v127
	.byte	W12
	.byte		N05
	.byte	W06
	.byte		        Fn1 
	.byte	W06
	.byte		        Gn1 
	.byte	W06
	.byte		        Fn1 
	.byte	W06
	.byte		N11   , Gn1 
	.byte	W12
	.byte		N24
	.byte	W24
	.byte	PEND
	.byte	W72
	.byte		N11
	.byte	W12
	.byte		N05
	.byte	W06
	.byte		        Fn1 , v124
	.byte	W06
	.byte		        Gn1 , v120
	.byte	W06
	.byte		        Fn1 , v127
	.byte	W06
	.byte		N11   , Gn1 
	.byte	W12
	.byte		N24
	.byte	W24
	.byte	W72
	.byte		N11
	.byte	W12
	.byte		N05
	.byte	W06
	.byte		        Fn1 
	.byte	W06
	.byte		        Gn1 
	.byte	W06
	.byte		        Fn1 , v124
	.byte	W06
	.byte		N11   , Gn1 , v127
	.byte	W12
	.byte		N24
	.byte	W24
	.byte	W36
	.byte		N05
	.byte	W06
	.byte		        Fn1 
	.byte	W06
	.byte		        Gn1 
	.byte	W06
	.byte		        Fn1 
	.byte	W06
	.byte		        Gn1 
	.byte	W06
	.byte		        Fn1 
	.byte	W06
	.byte		N11   , Gn1 
	.byte	W12
	.byte		N24
	.byte	W60
	.byte	PATT
	 .word	fe6_seq_014_5 + 0xCB
	.byte	W72
	.byte		N11   , Gn1 , v127
	.byte	W12
	.byte		N05
	.byte	W06
	.byte		        Fn1 
	.byte	W06
	.byte		        Gn1 
	.byte	W06
	.byte		        Fn1 
	.byte	W06
	.byte		N11   , Gn1 
	.byte	W12
	.byte		N23
	.byte	W24
	.byte	GOTO
	 .word	fe6_seq_014_5 + 0x2
	.byte	FINE

@*********************** Track 07 ***********************@

fe6_seq_014_6:
	.byte	KEYSH , fe6_seq_014_key+0
	.byte		VOICE , 127
	.byte		VOL   , 82*fe6_seq_014_mvl/mxv
	.byte		PAN   , c_v-3
	.byte		N66   , An2 , v100
	.byte	W72
	.byte	W72
	.byte	W72
	.byte	W72
	.byte	W72
	.byte	W72
	.byte	W72
	.byte	W32
	.byte	W01
	.byte		N05   , An2 , v040
	.byte	W06
	.byte		        An2 , v052
	.byte	W06
	.byte		N05
	.byte	W06
	.byte		N02
	.byte	W03
	.byte		N05   , An2 , v064
	.byte	W06
	.byte		        An2 , v068
	.byte	W06
	.byte		        An2 , v080
	.byte	W06
	.byte		N68   , An2 , v100
	.byte	W72
	.byte	W72
	.byte	W72
	.byte	W72
	.byte	W72
	.byte	W72
	.byte	W72
	.byte	W36
	.byte		N05   , An2 , v036
	.byte	W06
	.byte		        An2 , v060
	.byte	W06
	.byte		        An2 , v064
	.byte	W06
	.byte		N05
	.byte	W06
	.byte		        An2 , v076
	.byte	W06
	.byte		N05
	.byte	W06
	.byte		N36   , An2 , v100
	.byte	W72
	.byte	W36
	.byte		N21   , As2 , v104
	.byte	W36
	.byte	W72
	.byte	W36
	.byte		        As2 , v108
	.byte	W36
	.byte	W72
	.byte	W36
	.byte		N20   , As2 , v100
	.byte	W36
	.byte	W72
	.byte	W36
	.byte		        As2 , v104
	.byte	W24
	.byte		N10   , An2 , v080
	.byte	W12
	.byte		N24   , An2 , v100
	.byte	W72
	.byte	W36
	.byte		N20   , As2 , v084
	.byte	W36
	.byte	W72
	.byte	W36
	.byte		N05   , An2 , v044
	.byte	W06
	.byte		        An2 , v048
	.byte	W06
	.byte		        An2 , v056
	.byte	W06
	.byte		        An2 , v060
	.byte	W06
	.byte		        An2 , v080
	.byte	W06
	.byte		N05
	.byte	W06
	.byte		N54   , An2 , v088
	.byte	W72
	.byte	W72
	.byte	W72
	.byte	W72
	.byte	GOTO
	 .word	fe6_seq_014_6 + 0x2
	.byte	FINE

@******************************************************@

	.align	2

fe6_seq_014:
	.byte	7	@ NumTrks
	.byte	0	@ NumBlks
	.byte	fe6_seq_014_pri	@ Priority
	.byte	fe6_seq_014_rev	@ Reverb

	.word	fe6_seq_014_grp

	.word	fe6_seq_014_0
	.word	fe6_seq_014_1
	.word	fe6_seq_014_2
	.word	fe6_seq_014_3
	.word	fe6_seq_014_4
	.word	fe6_seq_014_5
	.word	fe6_seq_014_6

	.end
