@ File generated by m4a2s Song-Module
	.include "MPlayDef.s"

	.equ	fe6_seq_010_grp, native_instrument_map_bin
	.equ	fe6_seq_010_pri, 10
	.equ	fe6_seq_010_rev, 158
	.equ	fe6_seq_010_mvl, 127
	.equ	fe6_seq_010_key, 0

	.section .rodata
	.global	fe6_seq_010
	.align	2

@*********************** Track 01 ***********************@

fe6_seq_010_0:
	.byte	KEYSH , fe6_seq_010_key+0
	.byte	TEMPO , 126/2
	.byte		VOICE , 1
	.byte		VOL   , 95*fe6_seq_010_mvl/mxv
	.byte		PAN   , c_v+11
	.byte	W24
	.byte		N06   , Cs3 , v100
	.byte	W08
	.byte		N09   , Dn3 
	.byte	W08
	.byte		N07   , En3 , v104
	.byte	W08
	.byte		N36   , An3 , v100
	.byte	W48
	.byte		N17   , An3 , v116
	.byte	W24
	.byte		N05   , Gn3 , v104
	.byte	W08
	.byte		N07   , Fn3 , v100
	.byte	W08
	.byte		        Cn3 
	.byte	W08
	.byte		N18   , En3 , v116
	.byte	W24
	.byte		N17   , Dn3 
	.byte	W24
	.byte	W96
	.byte		VOICE , 48
	.byte		VOL   , 78*fe6_seq_010_mvl/mxv
	.byte		PAN   , c_v-4
	.byte	W36
	.byte		N05   , Cs4 , v088
	.byte	W06
	.byte		        En4 , v096
	.byte	W06
	.byte		N32   , An4 , v100
	.byte	W28
	.byte	W01
	.byte		VOL   , 72*fe6_seq_010_mvl/mxv
	.byte	W01
	.byte		        62*fe6_seq_010_mvl/mxv
	.byte	W01
	.byte		        56*fe6_seq_010_mvl/mxv
	.byte	W01
	.byte		        46*fe6_seq_010_mvl/mxv
	.byte	W01
	.byte		        36*fe6_seq_010_mvl/mxv
	.byte	W01
	.byte		        29*fe6_seq_010_mvl/mxv
	.byte	W01
	.byte		        20*fe6_seq_010_mvl/mxv
	.byte	W13
	.byte		VOICE , 3
	.byte		VOL   , 82*fe6_seq_010_mvl/mxv
	.byte		PAN   , c_v-12
	.byte		N32   , Cs3 , v096
	.byte	W36
	.byte		N11   , Dn3 
	.byte	W12
	.byte		N44   , En3 
	.byte	W48
	.byte		N32   , Gn3 , v096
	.byte	W36
	.byte		N05   , Fn3 
	.byte	W06
	.byte		        Cn3 
	.byte	W06
	.byte		N44   , An2 
	.byte	W48
	.byte	PEND
	.byte		N32   , En3 
	.byte	W36
	.byte		N05   , Dn3 
	.byte	W06
	.byte		        Cn3 
	.byte	W06
	.byte		N42   , Bn2 
	.byte	W48
	.byte		N32   , Cs3 , v096
	.byte	W36
	.byte		N11   , Dn3 
	.byte	W12
	.byte		N44   , En3 
	.byte	W48
	.byte	PEND
	.byte	PATT
	 .word	fe6_seq_010_0 + 0x7A
	.byte	PATT
	 .word	fe6_seq_010_0 + 0x62
	.byte		N32   , En3 , v096
	.byte	W36
	.byte		N11   , Dn3 
	.byte	W12
	.byte		N30   , Bn2 
	.byte	W36
	.byte		N11
	.byte	W12
	.byte		N44   , Dn3 
	.byte	W48
	.byte		N42   , Cs3 
	.byte	W48
	.byte		N44   , An2 , v092
	.byte		N44   , Cn3 , v112
	.byte	W48
	.byte		N21   , Gn2 , v096
	.byte		N23   , Bn2 , v104
	.byte	W24
	.byte		        Fn2 , v096
	.byte		N23   , An2 , v100
	.byte	W24
	.byte		N15   , Gn2 
	.byte		N12   , Bn2 
	.byte	W24
	.byte		N60
	.byte		N60   , Dn3 , v120
	.byte	W72
	.byte		N44   , Bn2 , v108
	.byte		N44   , Dn3 , v116
	.byte	W48
	.byte		N23   , An2 , v100
	.byte		N23   , Cn3 , v084
	.byte	W24
	.byte		        Gn2 , v096
	.byte		N23   , Bn2 , v092
	.byte	W24
	.byte		N18   , An2 , v096
	.byte		N17   , Cn3 , v108
	.byte	W24
	.byte		N56   , Cn3 , v116
	.byte		N56   , En3 , v104
	.byte	W72
	.byte		N44   , Cn3 
	.byte		N44   , En3 , v108
	.byte	W48
	.byte		N23   , Bn2 , v100
	.byte		N23   , Dn3 , v104
	.byte	W24
	.byte		        An2 , v092
	.byte		N22   , Cn3 , v096
	.byte	W24
	.byte		N80   , Bn2 , v104
	.byte		N80   , Dn3 , v112
	.byte	W96
	.byte		N40   , An2 , v100
	.byte		N44   , Dn3 , v127
	.byte	W48
	.byte		N18   , An2 , v100
	.byte		N23   , Bn2 
	.byte	W24
	.byte		N19   , An2 , v104
	.byte		N23   , Dn3 , v116
	.byte	W24
	.byte		N78   , An2 , v096
	.byte		N80   , Cs3 
	.byte	W96
	.byte	GOTO
	 .word	fe6_seq_010_0 + 0x52
	.byte	FINE

@*********************** Track 02 ***********************@

fe6_seq_010_1:
	.byte	KEYSH , fe6_seq_010_key+0
	.byte		VOICE , 1
	.byte		VOL   , 53*fe6_seq_010_mvl/mxv
	.byte		PAN   , c_v-12
	.byte		BEND  , c_v-1
	.byte	W24
	.byte		N07   , Cs3 , v100
	.byte	W08
	.byte		        Dn3 
	.byte	W08
	.byte		        En3 , v104
	.byte	W08
	.byte		N40   , An3 , v100
	.byte	W48
	.byte		N18   , An3 , v116
	.byte	W24
	.byte		N06   , Gn3 , v104
	.byte	W08
	.byte		N07   , Fn3 , v100
	.byte	W08
	.byte		        Cn3 
	.byte	W08
	.byte		N19   , En3 , v116
	.byte	W24
	.byte		N18   , Dn3 
	.byte	W23
	.byte		BEND  , c_v+0
	.byte	W01
	.byte	W96
	.byte		VOICE , 48
	.byte		VOL   , 78*fe6_seq_010_mvl/mxv
	.byte		PAN   , c_v-4
	.byte	W36
	.byte		N04   , An3 , v076
	.byte	W06
	.byte		N05   , Cs4 
	.byte	W06
	.byte		N32   , En4 , v080
	.byte	W28
	.byte	W01
	.byte		VOL   , 72*fe6_seq_010_mvl/mxv
	.byte	W01
	.byte		        62*fe6_seq_010_mvl/mxv
	.byte	W01
	.byte		        56*fe6_seq_010_mvl/mxv
	.byte	W01
	.byte		        46*fe6_seq_010_mvl/mxv
	.byte	W01
	.byte		        36*fe6_seq_010_mvl/mxv
	.byte	W01
	.byte		        29*fe6_seq_010_mvl/mxv
	.byte	W01
	.byte		        20*fe6_seq_010_mvl/mxv
	.byte	W13
	.byte		VOICE , 3
	.byte		VOL   , 49*fe6_seq_010_mvl/mxv
	.byte		PAN   , c_v-8
	.byte		BEND  , c_v-4
	.byte	W05
	.byte		N32   , Cs3 , v080
	.byte	W36
	.byte		N11   , Dn3 
	.byte	W12
	.byte		N44   , En3 
	.byte	W42
	.byte	W01
	.byte	W05
	.byte		N32   , Gn3 , v080
	.byte	W36
	.byte		N05   , Fn3 
	.byte	W06
	.byte		        Cn3 
	.byte	W06
	.byte		N44   , An2 
	.byte	W42
	.byte	W01
	.byte	PEND
	.byte	W05
	.byte		N32   , En3 
	.byte	W36
	.byte		N05   , Dn3 
	.byte	W06
	.byte		        Cn3 
	.byte	W06
	.byte		N42   , Bn2 
	.byte	W42
	.byte	W01
	.byte	W05
	.byte		N32   , Cs3 , v080
	.byte	W36
	.byte		N11   , Dn3 
	.byte	W12
	.byte		N44   , En3 
	.byte	W42
	.byte	W01
	.byte	PEND
	.byte	PATT
	 .word	fe6_seq_010_1 + 0x83
	.byte	PATT
	 .word	fe6_seq_010_1 + 0x67
	.byte	W05
	.byte		N32   , En3 , v080
	.byte	W36
	.byte		N11   , Dn3 
	.byte	W12
	.byte		N30   , Bn2 
	.byte	W36
	.byte		N11
	.byte	W07
	.byte	W05
	.byte		N44   , Dn3 
	.byte	W48
	.byte		N42   , Cs3 
	.byte	W42
	.byte	W01
	.byte	W96
	.byte	W96
	.byte	W96
	.byte	W96
	.byte	W96
	.byte	W96
	.byte	W96
	.byte	W96
	.byte	GOTO
	 .word	fe6_seq_010_1 + 0x53
	.byte	FINE

@*********************** Track 03 ***********************@

fe6_seq_010_2:
	.byte	KEYSH , fe6_seq_010_key+0
	.byte		VOICE , 48
	.byte		VOL   , 74*fe6_seq_010_mvl/mxv
	.byte		PAN   , c_v-19
	.byte		N92   , En2 , v092
	.byte		N92   , Cs3 
	.byte	W96
	.byte		N88   , Fn2 , v096
	.byte		N92   , Dn3 , v104
	.byte	W96
	.byte		N72   , En2 , v100
	.byte		N78   , Cs3 , v092
	.byte	W84
	.byte		N06   , Fs2 , v080
	.byte		N07   , Dn3 , v116
	.byte	W12
	.byte		N78   , Gn2 , v096
	.byte		N78   , En3 , v104
	.byte	W96
	.byte		VOICE , 2
	.byte		VOL   , 70*fe6_seq_010_mvl/mxv
	.byte		PAN   , c_v+16
	.byte		N32   , Cs3 , v080
	.byte	W36
	.byte		N11   , Dn3 
	.byte	W12
	.byte		N44   , En3 
	.byte	W48
	.byte		N32   , Gn3 , v080
	.byte	W36
	.byte		N05   , Fn3 
	.byte	W06
	.byte		        Cn3 
	.byte	W06
	.byte		N44   , An2 
	.byte	W48
	.byte	PEND
	.byte		N32   , En3 
	.byte	W36
	.byte		N05   , Dn3 
	.byte	W06
	.byte		        Cn3 , v076
	.byte	W06
	.byte		N42   , Bn2 , v080
	.byte	W48
	.byte		N32   , Cs3 , v080
	.byte	W36
	.byte		N11   , Dn3 
	.byte	W12
	.byte		N44   , En3 
	.byte	W48
	.byte	PEND
	.byte	PATT
	 .word	fe6_seq_010_2 + 0x54
	.byte	PATT
	 .word	fe6_seq_010_2 + 0x3A
	.byte		N32   , En3 , v080
	.byte	W36
	.byte		N11   , Dn3 
	.byte	W12
	.byte		N30   , Bn2 
	.byte	W36
	.byte		N11
	.byte	W12
	.byte		N44   , Dn3 
	.byte	W48
	.byte		N42   , Cs3 , v072
	.byte	W48
	.byte		N44   , Cn3 , v112
	.byte	W48
	.byte		N23   , Bn2 , v104
	.byte	W24
	.byte		        An2 , v100
	.byte	W24
	.byte		N12   , Bn2 
	.byte	W18
	.byte		N05   , Gn2 , v084
	.byte	W06
	.byte		N60   , Dn3 , v120
	.byte	W72
	.byte		N44   , Dn3 , v116
	.byte	W48
	.byte		N23   , Cn3 , v084
	.byte	W24
	.byte		        Bn2 , v092
	.byte	W24
	.byte		N11   , Cn3 , v108
	.byte	W18
	.byte		N05   , An2 , v084
	.byte	W06
	.byte		N56   , En3 , v104
	.byte	W72
	.byte		N44   , En3 , v108
	.byte	W48
	.byte		N23   , Dn3 , v104
	.byte	W24
	.byte		N22   , Cn3 , v096
	.byte	W24
	.byte		N80   , Dn3 , v112
	.byte	W96
	.byte		N44   , Dn3 , v127
	.byte	W48
	.byte		N23   , Bn2 , v100
	.byte	W24
	.byte		        Dn3 , v116
	.byte	W24
	.byte		N80   , Cs3 , v096
	.byte	W96
	.byte	GOTO
	 .word	fe6_seq_010_2 + 0x2A
	.byte	FINE

@*********************** Track 04 ***********************@

fe6_seq_010_3:
	.byte	KEYSH , fe6_seq_010_key+0
	.byte		VOICE , 1
	.byte		VOL   , 85*fe6_seq_010_mvl/mxv
	.byte		PAN   , c_v-12
	.byte	W24
	.byte		N04   , An2 , v108
	.byte	W08
	.byte		        Bn2 , v112
	.byte	W08
	.byte		        Cs3 , v100
	.byte	W08
	.byte		N36   , En3 , v124
	.byte	W48
	.byte		N16   , En3 , v127
	.byte	W24
	.byte		N04   , En3 , v124
	.byte	W08
	.byte		        Dn3 , v127
	.byte	W08
	.byte		        Gn2 , v116
	.byte	W08
	.byte		N18   , Cn3 , v112
	.byte	W24
	.byte		N16   , Bn2 
	.byte	W24
	.byte		VOICE , 52
	.byte		VOL   , 90*fe6_seq_010_mvl/mxv
	.byte		PAN   , c_v+0
	.byte		TIE   , An3 , v096
	.byte	W96
	.byte	W84
	.byte		EOT
	.byte	W12
	.byte		VOICE , 52
	.byte		VOL   , 90*fe6_seq_010_mvl/mxv
	.byte		PAN   , c_v+0
	.byte		N92   , An2 , v104
	.byte	W96
	.byte		        Fn2 , v100
	.byte	W96
	.byte		        Gn2 
	.byte	W96
	.byte		N88   , An2 , v096
	.byte	W96
	.byte		N92   , An2 , v108
	.byte	W96
	.byte		        An2 , v096
	.byte	W96
	.byte		        Bn2 
	.byte	W96
	.byte		N78   , Cs3 , v100
	.byte	W96
	.byte		TIE   , Fn3 , v096
	.byte	W96
	.byte	W96
	.byte	W96
	.byte	W92
	.byte	W03
	.byte		EOT
	.byte	W01
	.byte		TIE   , Gn3 
	.byte	W96
	.byte	W92
	.byte	W03
	.byte		EOT
	.byte	W01
	.byte		N92   , An3 
	.byte	W96
	.byte		N90   , An3 , v092
	.byte	W96
	.byte	GOTO
	 .word	fe6_seq_010_3 + 0x39
	.byte	FINE

@*********************** Track 05 ***********************@

fe6_seq_010_4:
	.byte	KEYSH , fe6_seq_010_key+0
	.byte	W96
	.byte	W96
	.byte	W96
	.byte	W96
	.byte		VOICE , 48
	.byte		VOL   , 52*fe6_seq_010_mvl/mxv
	.byte		PAN   , c_v+0
	.byte		N92   , Cs3 , v104
	.byte	W96
	.byte		        Cn3 , v100
	.byte	W96
	.byte		        Dn3 
	.byte	W96
	.byte		N88   , En3 , v096
	.byte	W96
	.byte		N92   , Cs3 , v108
	.byte	W96
	.byte		        Cn3 , v096
	.byte	W96
	.byte		VOICE , 48
	.byte		VOL   , 24*fe6_seq_010_mvl/mxv
	.byte		PAN   , c_v-4
	.byte		N92   , Gn3 , v112
	.byte	W03
	.byte		VOL   , 25*fe6_seq_010_mvl/mxv
	.byte	W01
	.byte		        26*fe6_seq_010_mvl/mxv
	.byte	W02
	.byte		        27*fe6_seq_010_mvl/mxv
	.byte	W01
	.byte		        28*fe6_seq_010_mvl/mxv
	.byte	W02
	.byte		        28*fe6_seq_010_mvl/mxv
	.byte	W01
	.byte		        29*fe6_seq_010_mvl/mxv
	.byte	W02
	.byte		        30*fe6_seq_010_mvl/mxv
	.byte	W01
	.byte		        31*fe6_seq_010_mvl/mxv
	.byte	W02
	.byte		        32*fe6_seq_010_mvl/mxv
	.byte	W01
	.byte		        33*fe6_seq_010_mvl/mxv
	.byte	W02
	.byte		        33*fe6_seq_010_mvl/mxv
	.byte	W01
	.byte		        34*fe6_seq_010_mvl/mxv
	.byte	W02
	.byte		        35*fe6_seq_010_mvl/mxv
	.byte	W01
	.byte		        36*fe6_seq_010_mvl/mxv
	.byte	W02
	.byte		        37*fe6_seq_010_mvl/mxv
	.byte	W01
	.byte		        38*fe6_seq_010_mvl/mxv
	.byte	W02
	.byte		        38*fe6_seq_010_mvl/mxv
	.byte	W01
	.byte		        39*fe6_seq_010_mvl/mxv
	.byte	W02
	.byte		        40*fe6_seq_010_mvl/mxv
	.byte	W02
	.byte		        41*fe6_seq_010_mvl/mxv
	.byte	W01
	.byte		        42*fe6_seq_010_mvl/mxv
	.byte	W02
	.byte		        42*fe6_seq_010_mvl/mxv
	.byte	W01
	.byte		        43*fe6_seq_010_mvl/mxv
	.byte	W02
	.byte		        44*fe6_seq_010_mvl/mxv
	.byte	W01
	.byte		        45*fe6_seq_010_mvl/mxv
	.byte	W02
	.byte		        46*fe6_seq_010_mvl/mxv
	.byte	W01
	.byte		        47*fe6_seq_010_mvl/mxv
	.byte	W02
	.byte		        47*fe6_seq_010_mvl/mxv
	.byte	W01
	.byte		        48*fe6_seq_010_mvl/mxv
	.byte	W02
	.byte		        49*fe6_seq_010_mvl/mxv
	.byte	W01
	.byte		        50*fe6_seq_010_mvl/mxv
	.byte	W02
	.byte		        51*fe6_seq_010_mvl/mxv
	.byte	W01
	.byte		        52*fe6_seq_010_mvl/mxv
	.byte	W02
	.byte		        52*fe6_seq_010_mvl/mxv
	.byte	W01
	.byte		        53*fe6_seq_010_mvl/mxv
	.byte	W02
	.byte		        54*fe6_seq_010_mvl/mxv
	.byte	W01
	.byte		        55*fe6_seq_010_mvl/mxv
	.byte	W02
	.byte		        56*fe6_seq_010_mvl/mxv
	.byte	W02
	.byte		        57*fe6_seq_010_mvl/mxv
	.byte	W01
	.byte		        57*fe6_seq_010_mvl/mxv
	.byte	W02
	.byte		        58*fe6_seq_010_mvl/mxv
	.byte	W01
	.byte		        59*fe6_seq_010_mvl/mxv
	.byte	W02
	.byte		        60*fe6_seq_010_mvl/mxv
	.byte	W01
	.byte		        61*fe6_seq_010_mvl/mxv
	.byte	W02
	.byte		        62*fe6_seq_010_mvl/mxv
	.byte	W01
	.byte		        62*fe6_seq_010_mvl/mxv
	.byte	W02
	.byte		        63*fe6_seq_010_mvl/mxv
	.byte	W01
	.byte		        64*fe6_seq_010_mvl/mxv
	.byte	W02
	.byte		        65*fe6_seq_010_mvl/mxv
	.byte	W01
	.byte		        66*fe6_seq_010_mvl/mxv
	.byte	W02
	.byte		        66*fe6_seq_010_mvl/mxv
	.byte	W01
	.byte		        67*fe6_seq_010_mvl/mxv
	.byte	W02
	.byte		        68*fe6_seq_010_mvl/mxv
	.byte	W01
	.byte		        69*fe6_seq_010_mvl/mxv
	.byte	W02
	.byte		        70*fe6_seq_010_mvl/mxv
	.byte	W01
	.byte		        71*fe6_seq_010_mvl/mxv
	.byte	W02
	.byte		        71*fe6_seq_010_mvl/mxv
	.byte	W01
	.byte		        72*fe6_seq_010_mvl/mxv
	.byte	W02
	.byte		        73*fe6_seq_010_mvl/mxv
	.byte	W02
	.byte		        74*fe6_seq_010_mvl/mxv
	.byte	W01
	.byte		        75*fe6_seq_010_mvl/mxv
	.byte	W02
	.byte		        76*fe6_seq_010_mvl/mxv
	.byte		N92   , An3 
	.byte	W15
	.byte		VOL   , 76*fe6_seq_010_mvl/mxv
	.byte	W07
	.byte		        77*fe6_seq_010_mvl/mxv
	.byte	W08
	.byte		        78*fe6_seq_010_mvl/mxv
	.byte	W08
	.byte		        79*fe6_seq_010_mvl/mxv
	.byte	W07
	.byte		        80*fe6_seq_010_mvl/mxv
	.byte	W08
	.byte		        81*fe6_seq_010_mvl/mxv
	.byte	W08
	.byte		        81*fe6_seq_010_mvl/mxv
	.byte	W07
	.byte		        83*fe6_seq_010_mvl/mxv
	.byte	W04
	.byte		VOICE , 48
	.byte		VOL   , 57*fe6_seq_010_mvl/mxv
	.byte		PAN   , c_v-4
	.byte	W24
	.byte		N44   , Cn4 , v080
	.byte	W48
	.byte		N23   , Bn3 
	.byte	W24
	.byte		        An3 
	.byte	W24
	.byte		N12   , Bn3 
	.byte	W18
	.byte		N05   , Gn3 
	.byte	W06
	.byte		N60   , Dn4 
	.byte	W72
	.byte		N44
	.byte	W48
	.byte		N23   , Cn4 
	.byte	W24
	.byte		        Bn3 
	.byte	W24
	.byte		N05   , Cn4 
	.byte	W18
	.byte		        An3 
	.byte	W06
	.byte		N56   , En4 
	.byte	W72
	.byte		N44
	.byte	W48
	.byte		N23   , Dn4 
	.byte	W24
	.byte		N22   , Cn4 
	.byte	W24
	.byte		N80   , Dn4 
	.byte	W96
	.byte		N44
	.byte	W48
	.byte		N23   , Bn3 
	.byte	W24
	.byte		        Dn4 
	.byte	W24
	.byte		N80   , Cs4 
	.byte	W96
	.byte	GOTO
	 .word	fe6_seq_010_4 + 0x6
	.byte	FINE

@*********************** Track 06 ***********************@

fe6_seq_010_5:
	.byte	KEYSH , fe6_seq_010_key+0
	.byte		VOICE , 33
	.byte		VOL   , 81*fe6_seq_010_mvl/mxv
	.byte		PAN   , c_v+2
	.byte		N92   , An2 , v104
	.byte	W96
	.byte		        Gn2 , v100
	.byte	W96
	.byte		N10   , An2 , v096
	.byte	W24
	.byte		        An2 , v100
	.byte	W24
	.byte		N09   , An2 , v096
	.byte	W24
	.byte		N10   , An2 , v100
	.byte	W24
	.byte		N09
	.byte	W24
	.byte		N09
	.byte	W24
	.byte		N10
	.byte	W24
	.byte		N10
	.byte	W24
	.byte		N24   , An3 , v112
	.byte	W36
	.byte		N04   , An3 , v100
	.byte	W12
	.byte		N44   , An3 , v112
	.byte	W48
	.byte		N30   , Fn3 , v108
	.byte	W36
	.byte		N05   , Fn3 , v092
	.byte	W12
	.byte		N44   , Fn3 , v108
	.byte	W48
	.byte		N32   , Gn3 
	.byte	W36
	.byte		N06
	.byte	W12
	.byte		N44
	.byte	W48
	.byte		N24   , An3 , v112
	.byte	W36
	.byte		N23   , An3 , v108
	.byte	W24
	.byte		        En3 , v104
	.byte	W24
	.byte		N11   , An2 , v100
	.byte	W12
	.byte		N24   , An3 , v116
	.byte	W36
	.byte		N05   , An3 , v108
	.byte	W12
	.byte		N44   , An3 , v104
	.byte	W48
	.byte		N28   , Fn3 , v100
	.byte	W36
	.byte		N06
	.byte	W12
	.byte		N44   , Fn3 , v108
	.byte	W48
	.byte		N28   , Gn3 , v104
	.byte	W36
	.byte		N06
	.byte	W12
	.byte		N32   , Gn3 , v108
	.byte	W36
	.byte		N11   , Gn3 , v096
	.byte	W12
	.byte		N24   , An3 , v104
	.byte	W36
	.byte		N05
	.byte	W12
	.byte		N11   , An3 , v116
	.byte	W12
	.byte		N23   , En3 , v104
	.byte	W24
	.byte		N05   , An3 , v108
	.byte	W12
	.byte		N23   , Fn3 , v104
	.byte	W36
	.byte		N05
	.byte	W12
	.byte		N30   , Fn3 , v116
	.byte	W36
	.byte		N05   , Fn3 , v108
	.byte	W12
	.byte		N07   , Fn3 , v116
	.byte	W12
	.byte		N17   , Fn3 , v104
	.byte	W24
	.byte		N23   , Fn3 , v108
	.byte	W24
	.byte		N11   , Cn3 
	.byte	W12
	.byte		        Fn3 , v112
	.byte	W12
	.byte		        Cn3 , v096
	.byte	W12
	.byte		N24   , Fn3 , v116
	.byte	W36
	.byte		N05   , Fn3 , v112
	.byte	W12
	.byte		N28
	.byte	W36
	.byte		N16
	.byte	W12
	.byte	W12
	.byte		N17
	.byte	W24
	.byte		N06
	.byte	W12
	.byte		N09   , Fn3 , v108
	.byte	W12
	.byte		N11   , Cn3 , v092
	.byte	W12
	.byte		        Fn3 , v112
	.byte	W12
	.byte		        An3 , v104
	.byte	W12
	.byte		N24   , Gn3 , v108
	.byte	W36
	.byte		N05   , Gn3 , v116
	.byte	W12
	.byte		N24
	.byte	W36
	.byte		N23
	.byte	W12
	.byte	W12
	.byte		N11   , Dn3 
	.byte	W12
	.byte		        Gn3 , v108
	.byte	W12
	.byte		        Dn3 , v112
	.byte	W12
	.byte		N07   , Gn3 
	.byte	W12
	.byte		        Gn2 , v096
	.byte	W12
	.byte		N11   , Dn3 , v112
	.byte	W12
	.byte		N07   , Gn3 , v104
	.byte	W12
	.byte		N28   , An3 
	.byte	W36
	.byte		N05   , An3 , v112
	.byte	W12
	.byte		N24
	.byte	W36
	.byte		N08
	.byte	W12
	.byte		N11   , An3 , v060
	.byte	W12
	.byte		N22   , En3 , v120
	.byte	W24
	.byte		N23   , An2 , v116
	.byte	W24
	.byte		N10   , En3 , v112
	.byte	W12
	.byte		N19   , An3 , v120
	.byte	W24
	.byte	GOTO
	 .word	fe6_seq_010_5 + 0x26
	.byte	FINE

@*********************** Track 07 ***********************@

fe6_seq_010_6:
	.byte	KEYSH , fe6_seq_010_key+0
	.byte	W96
	.byte	W96
	.byte		VOICE , 127
	.byte		VOL   , 78*fe6_seq_010_mvl/mxv
	.byte		PAN   , c_v-7
	.byte		N23   , Cn1 , v100
	.byte	W24
	.byte		N23
	.byte	W24
	.byte		N23
	.byte	W24
	.byte		N23
	.byte	W24
	.byte		N23   , Cn1 , v100
	.byte	W24
	.byte		N23
	.byte	W24
	.byte		N23
	.byte	W24
	.byte		N11
	.byte	W12
	.byte		        Dn1 , v112
	.byte	W12
	.byte	PEND
	.byte		N23   , Cn1 , v100
	.byte	W24
	.byte		N23
	.byte	W24
	.byte		N23
	.byte	W24
	.byte		N23
	.byte	W24
	.byte	PEND
	.byte		N23   , Cn1 , v100
	.byte	W24
	.byte		N11   , Cn1 , v080
	.byte	W12
	.byte		        Cn1 , v040
	.byte	W12
	.byte		        Cn1 , v092
	.byte	W12
	.byte		        Dn1 , v084
	.byte	W12
	.byte		        Cn1 , v100
	.byte	W12
	.byte		        Dn1 , v108
	.byte	W12
	.byte	PEND
	.byte	PATT
	 .word	fe6_seq_010_6 + 0x14
	.byte	PATT
	 .word	fe6_seq_010_6 + 0x2D
	.byte	PATT
	 .word	fe6_seq_010_6 + 0x22
	.byte	PATT
	 .word	fe6_seq_010_6 + 0x2D
	.byte	PATT
	 .word	fe6_seq_010_6 + 0x14
	.byte	PATT
	 .word	fe6_seq_010_6 + 0x2D
	.byte	PATT
	 .word	fe6_seq_010_6 + 0x22
	.byte	PATT
	 .word	fe6_seq_010_6 + 0x2D
	.byte	PATT
	 .word	fe6_seq_010_6 + 0x14
	.byte	PATT
	 .word	fe6_seq_010_6 + 0x2D
	.byte	PATT
	 .word	fe6_seq_010_6 + 0x22
	.byte	PATT
	 .word	fe6_seq_010_6 + 0x2D
	.byte	PATT
	 .word	fe6_seq_010_6 + 0x14
	.byte	PATT
	 .word	fe6_seq_010_6 + 0x2D
	.byte	GOTO
	 .word	fe6_seq_010_6 + 0x22
	.byte	FINE

@******************************************************@

	.align	2

fe6_seq_010:
	.byte	7	@ NumTrks
	.byte	0	@ NumBlks
	.byte	fe6_seq_010_pri	@ Priority
	.byte	fe6_seq_010_rev	@ Reverb

	.word	fe6_seq_010_grp

	.word	fe6_seq_010_0
	.word	fe6_seq_010_1
	.word	fe6_seq_010_2
	.word	fe6_seq_010_3
	.word	fe6_seq_010_4
	.word	fe6_seq_010_5
	.word	fe6_seq_010_6

	.end
