@ File generated by m4a2s Song-Module
	.include "MPlayDef.s"

	.equ	fe6_seq_015_grp, native_instrument_map_bin
	.equ	fe6_seq_015_pri, 10
	.equ	fe6_seq_015_rev, 158
	.equ	fe6_seq_015_mvl, 127
	.equ	fe6_seq_015_key, 0

	.section .rodata
	.global	fe6_seq_015
	.align	2

@*********************** Track 01 ***********************@

fe6_seq_015_0:
	.byte	KEYSH , fe6_seq_015_key+0
	.byte	TEMPO , 120/2
	.byte		VOICE , 29
	.byte		VOL   , 67*fe6_seq_015_mvl/mxv
	.byte		PAN   , c_v-12
	.byte		N05   , Gn2 , v116
	.byte	W08
	.byte		        An2 , v088
	.byte	W08
	.byte		        As2 , v080
	.byte	W08
	.byte		        An2 , v092
	.byte	W08
	.byte		        As2 , v096
	.byte	W08
	.byte		        Cn3 , v108
	.byte	W08
	.byte		        As2 , v092
	.byte	W08
	.byte		        Cn3 , v104
	.byte	W08
	.byte		        Dn3 , v100
	.byte	W08
	.byte		        Cn3 , v108
	.byte	W08
	.byte		        As2 , v084
	.byte	W08
	.byte		        An2 , v092
	.byte	W08
	.byte		N05   , Gn2 , v116
	.byte	W08
	.byte		        An2 , v088
	.byte	W08
	.byte		        As2 , v080
	.byte	W08
	.byte		        An2 , v092
	.byte	W08
	.byte		        As2 , v096
	.byte	W08
	.byte		        Cn3 , v108
	.byte	W08
	.byte		        As2 , v092
	.byte	W08
	.byte		        Cn3 , v104
	.byte	W08
	.byte		        Dn3 , v100
	.byte	W08
	.byte		        Cn3 , v108
	.byte	W08
	.byte		        As2 , v084
	.byte	W08
	.byte		        An2 , v092
	.byte	W08
	.byte	PEND
	.byte	PATT
	 .word	fe6_seq_015_0 + 0x2F
	.byte	PATT
	 .word	fe6_seq_015_0 + 0x2F
	.byte		N05   , Fn2 , v116
	.byte	W08
	.byte		        Gn2 , v088
	.byte	W08
	.byte		        Gs2 , v080
	.byte	W08
	.byte		        Gn2 , v092
	.byte	W08
	.byte		        Gs2 , v096
	.byte	W08
	.byte		        As2 , v108
	.byte	W08
	.byte		        Gs2 , v092
	.byte	W08
	.byte		        As2 , v104
	.byte	W08
	.byte		        Cn3 , v100
	.byte	W08
	.byte		        As2 , v108
	.byte	W08
	.byte		        Gs2 , v084
	.byte	W08
	.byte		        Gn2 , v092
	.byte	W08
	.byte	PEND
	.byte	PATT
	 .word	fe6_seq_015_0 + 0x5F
	.byte	PATT
	 .word	fe6_seq_015_0 + 0x5F
	.byte	PATT
	 .word	fe6_seq_015_0 + 0x5F
	.byte	W72
	.byte		VOICE , 46
	.byte		VOL   , 62*fe6_seq_015_mvl/mxv
	.byte		PAN   , c_v+0
	.byte	W24
	.byte	W48
	.byte		N09   , As4 , v072
	.byte	W08
	.byte		        Ds4 , v084
	.byte	W08
	.byte		        Bn3 , v080
	.byte	W08
	.byte		        As3 , v072
	.byte	W08
	.byte		        Ds3 , v092
	.byte	W08
	.byte		N32   , Bn2 
	.byte	W08
	.byte	W96
	.byte	W96
	.byte	W96
	.byte		N09   , Bn4 , v088
	.byte	W08
	.byte		        En4 , v084
	.byte	W08
	.byte		        Dn4 , v092
	.byte	W08
	.byte		        An3 , v072
	.byte	W08
	.byte		        Gn3 
	.byte	W08
	.byte		N36   , Cn3 , v088
	.byte	W56
	.byte	W96
	.byte		N09   , An4 , v092
	.byte	W08
	.byte		        En4 , v080
	.byte	W08
	.byte		        Dn4 , v084
	.byte	W08
	.byte		        Bn3 , v072
	.byte	W08
	.byte		        An3 
	.byte	W08
	.byte		        En3 , v080
	.byte	W08
	.byte		        An3 , v084
	.byte	W08
	.byte		        Gn3 , v080
	.byte	W08
	.byte		        En3 , v072
	.byte	W08
	.byte		        Cn3 , v092
	.byte	W08
	.byte		        An2 
	.byte	W08
	.byte		N28   , En2 
	.byte	W08
	.byte	W96
	.byte	W96
	.byte	W96
	.byte		N07   , En4 , v088
	.byte	W06
	.byte		        Cn4 , v072
	.byte	W06
	.byte		        Bn3 , v092
	.byte	W06
	.byte		        An3 , v076
	.byte	W06
	.byte		N32   , En3 , v088
	.byte	W72
	.byte		VOICE , 29
	.byte		VOL   , 70*fe6_seq_015_mvl/mxv
	.byte		PAN   , c_v-12
	.byte		N05   , Gn2 , v116
	.byte	W08
	.byte		        An2 , v088
	.byte	W08
	.byte		        As2 , v080
	.byte	W08
	.byte		        An2 , v092
	.byte	W08
	.byte		        As2 , v096
	.byte	W08
	.byte		        Cn3 , v108
	.byte	W08
	.byte		        As2 , v092
	.byte	W08
	.byte		        Cn3 , v104
	.byte	W08
	.byte		        Dn3 , v100
	.byte	W08
	.byte		        Cn3 , v108
	.byte	W08
	.byte		        As2 , v084
	.byte	W08
	.byte		        An2 , v092
	.byte	W08
	.byte	PATT
	 .word	fe6_seq_015_0 + 0x2F
	.byte	PATT
	 .word	fe6_seq_015_0 + 0x2F
	.byte	PATT
	 .word	fe6_seq_015_0 + 0x2F
	.byte	PATT
	 .word	fe6_seq_015_0 + 0x5F
	.byte	PATT
	 .word	fe6_seq_015_0 + 0x5F
	.byte	PATT
	 .word	fe6_seq_015_0 + 0x5F
	.byte	PATT
	 .word	fe6_seq_015_0 + 0x5F
	.byte		N05   , Gn2 , v112
	.byte	W08
	.byte		        An2 , v088
	.byte	W08
	.byte		        As2 , v080
	.byte	W08
	.byte		        An2 , v092
	.byte	W08
	.byte		        As2 , v096
	.byte	W08
	.byte		        Cn3 , v108
	.byte	W08
	.byte		        As2 , v092
	.byte	W08
	.byte		        Cn3 , v104
	.byte	W08
	.byte		        Dn3 , v100
	.byte	W08
	.byte		        Cn3 , v108
	.byte	W08
	.byte		        As2 , v084
	.byte	W08
	.byte		        An2 , v092
	.byte	W08
	.byte		        Gn2 , v104
	.byte	W08
	.byte		        An2 , v092
	.byte	W08
	.byte		        As2 , v076
	.byte	W08
	.byte		        An2 , v088
	.byte	W08
	.byte		        As2 , v084
	.byte	W08
	.byte		        Cn3 , v104
	.byte	W08
	.byte		        As2 , v084
	.byte	W08
	.byte		        Cn3 , v100
	.byte	W08
	.byte		        Dn3 , v096
	.byte	W08
	.byte		        Cn3 , v100
	.byte	W08
	.byte		        As2 , v084
	.byte	W08
	.byte		        An2 , v096
	.byte	W08
	.byte		        Gn2 , v100
	.byte	W08
	.byte		        An2 , v096
	.byte	W08
	.byte		        As2 , v076
	.byte	W08
	.byte		        An2 , v092
	.byte	W08
	.byte		        As2 
	.byte	W08
	.byte		        Cn3 , v100
	.byte	W08
	.byte		        As2 , v084
	.byte	W08
	.byte		        Cn3 , v100
	.byte	W08
	.byte		        Dn3 
	.byte	W08
	.byte		        Cn3 , v104
	.byte	W08
	.byte		        As2 , v100
	.byte	W04
	.byte		        An2 , v096
	.byte	W12
	.byte		        Gn2 , v100
	.byte	W08
	.byte		        An2 
	.byte	W08
	.byte		        As2 , v080
	.byte	W08
	.byte		        An2 , v092
	.byte	W08
	.byte		        As2 
	.byte	W08
	.byte		        Cn3 , v100
	.byte	W08
	.byte		        As2 , v088
	.byte	W08
	.byte		        Cn3 , v100
	.byte	W08
	.byte		        Dn3 
	.byte	W08
	.byte		        Cn3 
	.byte	W08
	.byte		        As2 , v080
	.byte	W04
	.byte		        An2 , v092
	.byte	W12
	.byte		        Fn2 , v096
	.byte	W08
	.byte		        Gn2 , v100
	.byte	W08
	.byte		        Gs2 , v084
	.byte	W08
	.byte		        Gn2 , v096
	.byte	W08
	.byte		        Gs2 , v092
	.byte	W08
	.byte		        As2 , v076
	.byte	W08
	.byte		        Gs2 , v084
	.byte	W08
	.byte		        As2 , v080
	.byte	W08
	.byte		        Cn3 , v092
	.byte	W08
	.byte		        As2 , v088
	.byte	W08
	.byte		        Gs2 
	.byte	W08
	.byte		        Gn2 , v092
	.byte	W08
	.byte		        Fn2 , v104
	.byte	W08
	.byte		        Gn2 , v092
	.byte	W08
	.byte		        Gs2 
	.byte	W08
	.byte		        Gn2 , v096
	.byte	W08
	.byte		        Gs2 , v088
	.byte	W08
	.byte		        As2 , v080
	.byte	W08
	.byte		        Gs2 , v084
	.byte	W08
	.byte		        As2 , v080
	.byte	W08
	.byte		        Cn3 , v100
	.byte	W08
	.byte		        As2 , v088
	.byte	W08
	.byte		        Gs2 , v092
	.byte	W08
	.byte		        Gn2 , v096
	.byte	W08
	.byte		        Fn2 
	.byte	W08
	.byte		        Gn2 , v080
	.byte	W08
	.byte		        Gs2 , v088
	.byte	W08
	.byte		        Gn2 , v092
	.byte	W08
	.byte		        Gs2 , v088
	.byte	W08
	.byte		        As2 , v080
	.byte	W08
	.byte		        Gs2 , v084
	.byte	W08
	.byte		        As2 
	.byte	W08
	.byte		        Cn3 , v104
	.byte	W08
	.byte		        As2 , v096
	.byte	W08
	.byte		        Gs2 , v092
	.byte	W08
	.byte		        Gn2 
	.byte	W08
	.byte		        Fn2 
	.byte	W08
	.byte		        Gn2 , v088
	.byte	W08
	.byte		        Gs2 , v084
	.byte	W08
	.byte		        Gn2 , v092
	.byte	W08
	.byte		        Gs2 , v076
	.byte	W08
	.byte		        As2 
	.byte	W08
	.byte		        Gs2 , v080
	.byte	W08
	.byte		        As2 
	.byte	W08
	.byte		        Cn3 , v100
	.byte	W08
	.byte		        As2 , v068
	.byte	W08
	.byte		        Gs2 , v080
	.byte	W16
	.byte	GOTO
	 .word	fe6_seq_015_0 + 0x2
	.byte	FINE

@*********************** Track 02 ***********************@

fe6_seq_015_1:
	.byte	KEYSH , fe6_seq_015_key+0
	.byte		VOICE , 48
	.byte		VOL   , 86*fe6_seq_015_mvl/mxv
	.byte		PAN   , c_v+0
	.byte		TIE   , Gn2 , v104
	.byte	W96
	.byte	W56
	.byte	W03
	.byte		EOT
	.byte	W13
	.byte		N08   , Gn2 , v100
	.byte	W24
	.byte		TIE   , Gn2 , v088
	.byte		TIE   , Dn3 
	.byte	W96
	.byte	W76
	.byte		EOT   , Gn2 
	.byte		        Dn3 
	.byte	W20
	.byte		N68   , Fn3 , v100
	.byte	W72
	.byte		N23   , Ds3 , v096
	.byte	W24
	.byte		N44   , Cn3 , v100
	.byte	W48
	.byte		        Dn3 , v104
	.byte	W48
	.byte		N92   , Ds3 , v096
	.byte	W96
	.byte		N90   , Dn3 , v100
	.byte	W96
	.byte		TIE   , Gn2 , v084
	.byte	W96
	.byte	W96
	.byte		EOT
	.byte		TIE
	.byte	W96
	.byte	W96
	.byte		EOT
	.byte	W96
	.byte	W96
	.byte		TIE   , Fs2 
	.byte	W96
	.byte	W96
	.byte		EOT
	.byte		TIE   , Fn2 
	.byte	W96
	.byte	W96
	.byte	W96
	.byte	W90
	.byte		EOT
	.byte	W06
	.byte	W96
	.byte	W96
	.byte	W96
	.byte	W96
	.byte	W96
	.byte	W96
	.byte	W72
	.byte		VOICE , 49
	.byte		VOL   , 86*fe6_seq_015_mvl/mxv
	.byte		PAN   , c_v+0
	.byte	W24
	.byte		N90   , Cn3 , v072
	.byte	W96
	.byte		N92   , Gn2 
	.byte		N92   , Gn3 , v080
	.byte	W96
	.byte		        An2 , v076
	.byte		N92   , An3 , v080
	.byte	W96
	.byte		N68   , As2 , v072
	.byte		N68   , As3 , v080
	.byte	W72
	.byte		N11   , Cn3 , v072
	.byte		N10   , Cn4 , v080
	.byte	W12
	.byte		N11   , Dn3 , v072
	.byte		N11   , Dn4 , v080
	.byte	W12
	.byte		N44   , Cn3 , v072
	.byte		N44   , Cn4 , v084
	.byte	W48
	.byte		        An2 , v072
	.byte		N44   , An3 , v080
	.byte	W48
	.byte		N68   , Cn3 , v072
	.byte		N68   , Cn4 , v084
	.byte	W72
	.byte		N11   , As2 , v072
	.byte		N11   , As3 , v084
	.byte	W12
	.byte		        Gs2 , v072
	.byte		N11   , Gs3 , v080
	.byte	W12
	.byte		N44   , Gn2 , v084
	.byte		N44   , Gn3 , v080
	.byte	W48
	.byte		        Fn2 , v084
	.byte		N44   , Fn3 , v080
	.byte	W48
	.byte		TIE   , Gn2 , v084
	.byte		TIE   , Gn3 
	.byte	W96
	.byte	W72
	.byte		EOT
	.byte	W01
	.byte		EOT   , Gn2 
	.byte	W23
	.byte	GOTO
	 .word	fe6_seq_015_1 + 0x2
	.byte	FINE

@*********************** Track 03 ***********************@

fe6_seq_015_2:
	.byte	KEYSH , fe6_seq_015_key+0
	.byte	W96
	.byte	W96
	.byte	W96
	.byte	W96
	.byte	W96
	.byte	W96
	.byte	W96
	.byte	W72
	.byte		VOICE , 48
	.byte		VOL   , 82*fe6_seq_015_mvl/mxv
	.byte		PAN   , c_v-6
	.byte	W24
	.byte		N44   , Cn3 , v072
	.byte	W48
	.byte		        Bn2 , v096
	.byte	W48
	.byte		        As2 , v080
	.byte	W48
	.byte		        An2 , v068
	.byte	W48
	.byte		        Cn3 , v080
	.byte	W48
	.byte		        Bn2 , v096
	.byte	W48
	.byte		        As2 , v076
	.byte	W48
	.byte		        An2 , v052
	.byte	W48
	.byte		N92   , Gs2 , v080
	.byte	W96
	.byte		        Gn2 
	.byte	W96
	.byte		        Gs2 , v084
	.byte	W96
	.byte		        An2 , v072
	.byte	W96
	.byte	W72
	.byte		VOICE , 60
	.byte		VOL   , 74*fe6_seq_015_mvl/mxv
	.byte		PAN   , c_v+0
	.byte	W24
	.byte	W60
	.byte		N16   , Fn2 , v100
	.byte	W18
	.byte		N09   , Fn2 , v032
	.byte	W18
	.byte		N88   , Cs3 , v076
	.byte	W90
	.byte		N05   , Cs3 , v032
	.byte	W06
	.byte		N84   , Cn3 , v092
	.byte	W84
	.byte	W02
	.byte		N09   , Cn3 , v032
	.byte	W10
	.byte	W96
	.byte	W72
	.byte		N05   , Dn2 , v104
	.byte		N05   , Gn2 , v116
	.byte	W24
	.byte		TIE   , Gn2 , v080
	.byte		TIE   , Dn3 , v088
	.byte	W96
	.byte	W76
	.byte		EOT   , Gn2 
	.byte		        Dn3 
	.byte	W20
	.byte	W96
	.byte	W72
	.byte		N06   , Fn2 , v120
	.byte		N04   , Cn3 , v104
	.byte	W24
	.byte		TIE   , Cn3 , v084
	.byte		TIE   , Fn3 , v108
	.byte	W96
	.byte	W72
	.byte		EOT   , Cn3 
	.byte	W01
	.byte		        Fn3 
	.byte	W23
	.byte	W96
	.byte	W96
	.byte	W96
	.byte	W96
	.byte	W96
	.byte	W96
	.byte	W96
	.byte	W96
	.byte	GOTO
	 .word	fe6_seq_015_2 + 0x2
	.byte	FINE

@*********************** Track 04 ***********************@

fe6_seq_015_3:
	.byte	KEYSH , fe6_seq_015_key+0
	.byte		VOICE , 2
	.byte		VOL   , 92*fe6_seq_015_mvl/mxv
	.byte		PAN   , c_v-8
	.byte		N11   , Dn3 , v100
	.byte	W12
	.byte		        Dn3 , v032
	.byte	W12
	.byte		N10   , Dn3 , v100
	.byte	W12
	.byte		        Dn3 , v032
	.byte	W12
	.byte		        Dn3 , v100
	.byte	W12
	.byte		        Dn3 , v032
	.byte	W12
	.byte		        Dn3 , v100
	.byte	W12
	.byte		        Dn3 , v032
	.byte	W12
	.byte		N10   , Dn3 , v100
	.byte	W12
	.byte		        Dn3 , v032
	.byte	W12
	.byte		        Dn3 , v100
	.byte	W12
	.byte		        Dn3 , v032
	.byte	W12
	.byte		N09   , Dn3 , v100
	.byte	W12
	.byte		        Dn3 , v032
	.byte	W12
	.byte		N10   , Dn3 , v100
	.byte	W12
	.byte		        Dn3 , v032
	.byte	W12
	.byte	PEND
	.byte		N09   , Dn3 , v100
	.byte	W12
	.byte		        Dn3 , v032
	.byte	W12
	.byte		        Dn3 , v100
	.byte	W12
	.byte		        Dn3 , v032
	.byte	W12
	.byte		N10   , Dn3 , v100
	.byte	W12
	.byte		        Dn3 , v032
	.byte	W12
	.byte		N09   , Dn3 , v100
	.byte	W12
	.byte		        Dn3 , v032
	.byte	W12
	.byte	PEND
	.byte		N09   , Dn3 , v100
	.byte	W12
	.byte		        Dn3 , v032
	.byte	W12
	.byte		N08   , Dn3 , v100
	.byte	W12
	.byte		        Dn3 , v032
	.byte	W12
	.byte		N07   , Dn3 , v100
	.byte	W12
	.byte		        Dn3 , v032
	.byte	W12
	.byte		N17   , Dn3 , v108
	.byte	W18
	.byte		N05   , Dn3 , v036
	.byte	W06
	.byte	PEND
	.byte		N10   , Cn3 , v100
	.byte	W12
	.byte		        Cn3 , v032
	.byte	W12
	.byte		N11   , Cn3 , v100
	.byte	W12
	.byte		        Cn3 , v032
	.byte	W12
	.byte		N09   , Cn3 , v100
	.byte	W12
	.byte		        Cn3 , v032
	.byte	W12
	.byte		        Cn3 , v100
	.byte	W12
	.byte		        Cn3 , v032
	.byte	W12
	.byte	PEND
	.byte		N08   , Cn3 , v100
	.byte	W12
	.byte		        Cn3 , v032
	.byte	W12
	.byte		        Cn3 , v100
	.byte	W12
	.byte		        Cn3 , v032
	.byte	W12
	.byte		        Cn3 , v100
	.byte	W12
	.byte		        Cn3 , v032
	.byte	W12
	.byte		        Cn3 , v100
	.byte	W12
	.byte		        Cn3 , v032
	.byte	W12
	.byte	PEND
	.byte		N09   , Cn3 , v100
	.byte	W12
	.byte		        Cn3 , v032
	.byte	W12
	.byte		        Cn3 , v100
	.byte	W12
	.byte		        Cn3 , v032
	.byte	W12
	.byte		        Cn3 , v100
	.byte	W12
	.byte		        Cn3 , v032
	.byte	W12
	.byte		        Cn3 , v100
	.byte	W12
	.byte		        Cn3 , v032
	.byte	W12
	.byte	PEND
	.byte		N10   , Cn3 , v100
	.byte	W12
	.byte		        Cn3 , v032
	.byte	W12
	.byte		        Cn3 , v100
	.byte	W12
	.byte		        Cn3 , v032
	.byte	W12
	.byte		N07   , Cn3 , v100
	.byte	W12
	.byte		        Cn3 , v032
	.byte	W12
	.byte		N17   , Cn3 , v108
	.byte	W18
	.byte		N05   , Cn3 , v036
	.byte	W06
	.byte	PEND
	.byte		N92   , Bn2 , v080
	.byte	W96
	.byte		        As2 
	.byte	W96
	.byte		        Bn2 
	.byte	W96
	.byte		        As2 
	.byte	W96
	.byte		N44   , Gs2 , v076
	.byte	W48
	.byte		        Gn2 , v068
	.byte	W48
	.byte		        Fs2 , v040
	.byte	W48
	.byte		        Fn2 , v084
	.byte	W48
	.byte		N92   , Gs2 
	.byte	W96
	.byte		        An2 , v044
	.byte	W96
	.byte		TIE   , As2 , v084
	.byte	W96
	.byte	W96
	.byte	W96
	.byte	W92
	.byte	W03
	.byte		EOT
	.byte	W01
	.byte		N11   , Dn3 , v100
	.byte	W12
	.byte		        Dn3 , v032
	.byte	W12
	.byte		N10   , Dn3 , v100
	.byte	W12
	.byte		        Dn3 , v032
	.byte	W12
	.byte		        Dn3 , v100
	.byte	W12
	.byte		        Dn3 , v032
	.byte	W12
	.byte		        Dn3 , v100
	.byte	W12
	.byte		        Dn3 , v032
	.byte	W12
	.byte	PEND
	.byte	PATT
	 .word	fe6_seq_015_3 + 0x22
	.byte	PATT
	 .word	fe6_seq_015_3 + 0x3E
	.byte	PATT
	 .word	fe6_seq_015_3 + 0x5A
	.byte	PATT
	 .word	fe6_seq_015_3 + 0x78
	.byte	PATT
	 .word	fe6_seq_015_3 + 0x94
	.byte	PATT
	 .word	fe6_seq_015_3 + 0xAE
	.byte	PATT
	 .word	fe6_seq_015_3 + 0xC8
	.byte	PATT
	 .word	fe6_seq_015_3 + 0x10C
	.byte	PATT
	 .word	fe6_seq_015_3 + 0x22
	.byte	PATT
	 .word	fe6_seq_015_3 + 0x3E
	.byte	PATT
	 .word	fe6_seq_015_3 + 0x5A
	.byte	PATT
	 .word	fe6_seq_015_3 + 0x78
	.byte	PATT
	 .word	fe6_seq_015_3 + 0x94
	.byte	PATT
	 .word	fe6_seq_015_3 + 0xAE
	.byte	PATT
	 .word	fe6_seq_015_3 + 0xC8
	.byte	GOTO
	 .word	fe6_seq_015_3 + 0x2
	.byte	FINE

@******************************************************@

	.align	2

fe6_seq_015:
	.byte	4	@ NumTrks
	.byte	0	@ NumBlks
	.byte	fe6_seq_015_pri	@ Priority
	.byte	fe6_seq_015_rev	@ Reverb

	.word	fe6_seq_015_grp

	.word	fe6_seq_015_0
	.word	fe6_seq_015_1
	.word	fe6_seq_015_2
	.word	fe6_seq_015_3

	.end
