        .include "MPlayDef.s"

        .equ    musicFEFatesDesireBelow_grp, native_instrument_map_bin
        .equ    musicFEFatesDesireBelow_pri, 0
        .equ    musicFEFatesDesireBelow_rev, 0
        .equ    musicFEFatesDesireBelow_key, 0

        .section .rodata
        .global musicFEFatesDesireBelow
        .align  2

@****************** Track 0 (Midi-Chn.0) ******************@

musicFEFatesDesireBelow_0:
        .byte   KEYSH , musicFEFatesDesireBelow_key+0
@ 000   ----------------------------------------
        .byte   TEMPO , 86/2
        .byte           VOICE , 0
        .byte           VOL   , 0
        .byte           N04   , Fn1 , v076
        .byte   W05
        .byte           N03   , Cn2 , v069
        .byte   W03
        .byte           N04   , Fn2
        .byte   W04
        .byte                   Gn2
        .byte   W04
        .byte                   Gs2
        .byte   W04
        .byte                   As2
        .byte   W04
        .byte                   Cn3 , v070
        .byte   W04
        .byte                   Dn3 , v069
        .byte   W04
        .byte                   Ds3
        .byte   W04
        .byte                   En3
        .byte   W04
        .byte                   Fn3
        .byte   W04
        .byte                   Gn3
        .byte   W04
        .byte           N18   , Gs3
        .byte           N04   , As1 , v073
        .byte   W04
        .byte                   Fn2 , v069
        .byte   W04
        .byte                   Gs2
        .byte   W04
        .byte                   Cn3
        .byte   W04
        .byte           N03   , Cs3
        .byte   W02
        .byte           N06   , Gs3
        .byte   W02
        .byte           N04
        .byte   W04
        .byte           N18   , Fs3
        .byte           N04   , Gs1 , v070
        .byte   W04
        .byte           N03   , Ds2 , v069
        .byte   W04
        .byte                   Fs2
        .byte   W04
        .byte                   As2
        .byte   W03
        .byte           N04   , Bn2
        .byte   W03
        .byte           N05   , Fs3
        .byte   W01
        .byte                   Fs3
        .byte   W05
@ 001   ----------------------------------------
musicFEFatesDesireBelow_0_1:
        .byte           N04   , Fn1 , v076
        .byte   W05
        .byte           N03   , Cn2 , v069
        .byte   W03
        .byte           N04   , Fn2
        .byte   W04
        .byte                   Gn2
        .byte   W04
        .byte                   Gs2
        .byte   W04
        .byte                   As2
        .byte   W04
        .byte                   Cn3 , v070
        .byte   W04
        .byte                   Dn3 , v069
        .byte   W04
        .byte                   Ds3
        .byte   W04
        .byte                   En3
        .byte   W04
        .byte                   Fn3
        .byte   W04
        .byte                   Gn3
        .byte   W04
        .byte           N18   , Gs3
        .byte           N04   , Fs1 , v073
        .byte   W04
        .byte                   Cs2 , v069
        .byte   W04
        .byte                   Gs2
        .byte   W04
        .byte                   Cn3
        .byte   W04
        .byte           N03   , Cs3
        .byte   W02
        .byte           N06   , Gs3
        .byte   W02
        .byte           N04
        .byte   W04
        .byte           N18   , Cs4
        .byte           N04   , Ds2 , v070
        .byte   W04
        .byte           N03   , As2 , v069
        .byte   W04
        .byte                   Cs3
        .byte   W04
        .byte                   Fn3
        .byte   W03
        .byte           N04   , Fs3
        .byte   W03
        .byte           N06   , Cs4
        .byte   W01
        .byte           N04   , Cn4
        .byte   W05
        .byte   PEND
@ 002   ----------------------------------------
musicFEFatesDesireBelow_0_2:
        .byte           N04   , Fn1 , v076
        .byte   W05
        .byte           N03   , Cn2 , v069
        .byte   W03
        .byte           N04   , Fn2
        .byte   W04
        .byte                   Gn2
        .byte   W04
        .byte                   Gs2
        .byte   W04
        .byte                   As2
        .byte   W04
        .byte                   Cn3 , v070
        .byte   W04
        .byte                   Dn3 , v069
        .byte   W04
        .byte                   Ds3
        .byte   W04
        .byte                   En3
        .byte   W04
        .byte                   Fn3
        .byte   W04
        .byte                   Gn3
        .byte   W04
        .byte           N18   , Gs3
        .byte           N04   , As1 , v073
        .byte   W04
        .byte                   Fn2 , v069
        .byte   W04
        .byte                   Gs2
        .byte   W04
        .byte                   Cn3
        .byte   W04
        .byte           N03   , Cs3
        .byte   W02
        .byte           N06   , Gs3
        .byte   W02
        .byte           N04
        .byte   W04
        .byte           N18   , Fs3
        .byte           N04   , Gs1 , v070
        .byte   W04
        .byte           N03   , Ds2 , v069
        .byte   W04
        .byte                   Fs2
        .byte   W04
        .byte                   As2
        .byte   W03
        .byte           N04   , Bn2
        .byte   W03
        .byte           N05   , Fs3
        .byte   W01
        .byte                   Fs3
        .byte   W05
        .byte   PEND
@ 003   ----------------------------------------
musicFEFatesDesireBelow_0_3:
        .byte           N48   , Fn3 , v069
        .byte           N04   , Gn1 , v076
        .byte   W05
        .byte           N03   , Dn2 , v069
        .byte   W03
        .byte           N04   , Gn2
        .byte   W04
        .byte                   An2
        .byte   W04
        .byte                   As2
        .byte   W04
        .byte                   Cn3
        .byte   W04
        .byte                   Dn3 , v070
        .byte   W04
        .byte                   An2 , v069
        .byte   W04
        .byte                   As2
        .byte   W04
        .byte                   Dn3
        .byte   W04
        .byte                   Gn3
        .byte   W04
        .byte                   An3
        .byte   W04
        .byte                   As3
        .byte           N24   , Cs2 , v073
        .byte   W04
        .byte           N03   , Gs3 , v069
        .byte   W03
        .byte           N05   , Fn3
        .byte   W05
        .byte           N04   , Cn3
        .byte   W04
        .byte           N03   , Ds3
        .byte   W03
        .byte           N05   , Gs2
        .byte   W05
        .byte           N04   , Fs3
        .byte           N23   , Cn2 , v070
        .byte   W04
        .byte           N03   , En3 , v069
        .byte   W03
        .byte           N05   , Cs3
        .byte   W05
        .byte           N04   , Gn2
        .byte   W04
        .byte           N03   , As2
        .byte   W03
        .byte           N05   , En2
        .byte   W05
        .byte   PEND
@ 004   ----------------------------------------
musicFEFatesDesireBelow_0_4:
        .byte           N04   , Fn1 , v076
        .byte   W05
        .byte           N03   , Cn2 , v069
        .byte   W03
        .byte           N04   , Fn2
        .byte   W04
        .byte                   Gn2
        .byte   W04
        .byte                   Gs2
        .byte   W04
        .byte                   As2
        .byte   W04
        .byte                   Cn3 , v070
        .byte   W04
        .byte                   Dn3 , v069
        .byte   W04
        .byte                   Ds3
        .byte   W04
        .byte                   En3
        .byte   W04
        .byte                   Fn3
        .byte   W04
        .byte                   Gn3
        .byte   W04
        .byte           N18   , Gs3
        .byte           N24   , Cs3
        .byte           N04   , As1 , v073
        .byte   W04
        .byte                   Fn2 , v069
        .byte   W04
        .byte                   Gs2
        .byte   W04
        .byte                   Cn3
        .byte   W04
        .byte           N03   , Dn3
        .byte   W02
        .byte           N06   , Gs3
        .byte   W02
        .byte           N04
        .byte   W04
        .byte           N18   , Fs3
        .byte           N19   , Bn2
        .byte           N04   , Gs1 , v070
        .byte   W04
        .byte           N03   , Ds2 , v069
        .byte   W04
        .byte                   Fs2
        .byte   W04
        .byte                   As2
        .byte   W03
        .byte           N09   , Bn2
        .byte   W03
        .byte           N05   , Fs3
        .byte   W01
        .byte                   Fs3
        .byte   W05
        .byte   PEND
@ 005   ----------------------------------------
musicFEFatesDesireBelow_0_5:
        .byte           N28   , Cn3 , v069
        .byte           N04   , Fn1 , v076
        .byte   W05
        .byte           N03   , Cn2 , v069
        .byte   W03
        .byte           N04   , Fn2
        .byte   W04
        .byte                   Gn2
        .byte   W04
        .byte                   Gs2
        .byte   W04
        .byte                   As2
        .byte   W04
        .byte           N24   , Cn3 , v070
        .byte   W04
        .byte           N04   , Dn3 , v069
        .byte   W04
        .byte                   Ds3
        .byte   W04
        .byte                   En3
        .byte   W04
        .byte                   Fn3
        .byte   W04
        .byte                   Gn3
        .byte   W04
        .byte           N18   , Gs3
        .byte           N24   , Ds3
        .byte           N04   , Fs1 , v073
        .byte   W04
        .byte                   Cs2 , v069
        .byte   W04
        .byte                   Gs2
        .byte   W04
        .byte                   Cn3
        .byte   W04
        .byte           N03   , Cs3
        .byte   W02
        .byte           N06   , Gs3
        .byte   W02
        .byte           N04
        .byte   W04
        .byte           N18   , Cs4
        .byte           N11   , Cs3
        .byte           N04   , Ds2 , v070
        .byte   W04
        .byte           N03   , As2 , v069
        .byte   W04
        .byte           N16   , Cs3
        .byte   W04
        .byte           N03   , Fn3
        .byte   W03
        .byte           N04   , Fs3
        .byte   W03
        .byte           N06   , Cs4
        .byte   W01
        .byte           N04   , Cn4
        .byte   W05
        .byte   PEND
@ 006   ----------------------------------------
musicFEFatesDesireBelow_0_6:
        .byte           N28   , Cn3 , v069
        .byte           N04   , Fn1 , v076
        .byte   W05
        .byte           N03   , Cn2 , v069
        .byte   W03
        .byte           N04   , Fn2
        .byte   W04
        .byte                   Gn2
        .byte   W04
        .byte                   Gs2
        .byte   W04
        .byte                   As2
        .byte   W04
        .byte           N24   , Cn3 , v070
        .byte   W04
        .byte           N04   , Dn3 , v069
        .byte   W04
        .byte                   Ds3
        .byte   W04
        .byte                   En3
        .byte   W04
        .byte                   Fn3
        .byte   W04
        .byte                   Gn3
        .byte   W04
        .byte           N18   , Gs3
        .byte           N16   , Cn3
        .byte           N04   , As1 , v073
        .byte   W04
        .byte                   Fn2 , v069
        .byte   W04
        .byte                   Gs2
        .byte   W04
        .byte           N12   , Cn3
        .byte   W04
        .byte           N03   , Cs3
        .byte   W02
        .byte           N06   , Gs3
        .byte   W02
        .byte           N04
        .byte   W04
        .byte           N18   , Fs3
        .byte           N19   , Bn2
        .byte           N04   , Gs1 , v070
        .byte   W04
        .byte           N03   , Ds2 , v069
        .byte   W04
        .byte                   Fs2
        .byte   W04
        .byte                   As2
        .byte   W03
        .byte           N09   , Bn2
        .byte   W03
        .byte           N05   , Fs3
        .byte   W01
        .byte                   Fs3
        .byte   W05
        .byte   PEND
@ 007   ----------------------------------------
musicFEFatesDesireBelow_0_7:
        .byte           N18   , Fn3 , v069
        .byte           N20   , As2
        .byte           N04   , Gn1 , v076
        .byte   W05
        .byte           N03   , Dn2 , v069
        .byte   W03
        .byte           N04   , Gn2
        .byte   W04
        .byte                   An2
        .byte   W04
        .byte           N08   , As2
        .byte   W02
        .byte           N06   , Fn3
        .byte   W02
        .byte           N04
        .byte   W04
        .byte           N18   , Dn3
        .byte           N24   , Bn2
        .byte           N04   , En1
        .byte   W04
        .byte                   Bn1
        .byte   W04
        .byte                   En2
        .byte   W04
        .byte                   Fs2
        .byte   W04
        .byte                   Gn2
        .byte   W02
        .byte           N06   , Dn3
        .byte   W02
        .byte           N04
        .byte   W04
        .byte           N18   , En3
        .byte           N16   , Gs2
        .byte           N04   , Fs1 , v073
        .byte   W04
        .byte                   Cs2 , v069
        .byte   W04
        .byte                   Fs2
        .byte   W04
        .byte           N12   , Gs2
        .byte   W04
        .byte           N03   , An2
        .byte   W02
        .byte           N06   , En3
        .byte   W02
        .byte           N04
        .byte   W04
        .byte           N18   , Cs3
        .byte           N19   , Fs2
        .byte           N04   , Dn1
        .byte   W04
        .byte           N03   , An1
        .byte   W04
        .byte                   Dn2
        .byte   W04
        .byte                   En2
        .byte   W03
        .byte           N09   , Fs2
        .byte   W03
        .byte           N05   , Cs3
        .byte   W01
        .byte                   Cs3
        .byte   W05
        .byte   PEND
@ 008   ----------------------------------------
musicFEFatesDesireBelow_0_8:
        .byte           N12   , Fn2 , v069
        .byte           N20   , Cn3
        .byte           N04   , Cs2 , v076
        .byte   W05
        .byte           N03   , Ds2 , v069
        .byte   W03
        .byte           N40   , Fn2
        .byte   W04
        .byte           N04   , As2
        .byte   W04
        .byte           N24   , Cn3
        .byte   W04
        .byte           N04   , Fn3
        .byte   W04
        .byte                   Gn3 , v070
        .byte   W04
        .byte                   Gn2 , v069
        .byte   W04
        .byte                   As2
        .byte   W04
        .byte           N12   , Cn3
        .byte   W04
        .byte           N04   , Fn3
        .byte   W04
        .byte                   Gn3
        .byte   W04
        .byte           N48   , Fn4
        .byte           N04   , Cs2 , v073
        .byte   W04
        .byte                   Ds2 , v069
        .byte   W04
        .byte                   Fn2
        .byte   W04
        .byte                   As2
        .byte   W04
        .byte           N03   , Cn3
        .byte   W04
        .byte           N04   , Fn3
        .byte   W04
        .byte                   Gn3 , v070
        .byte   W04
        .byte           N03   , Gn2 , v069
        .byte   W04
        .byte                   As2
        .byte   W04
        .byte                   Cn3
        .byte   W03
        .byte           N04   , Fn3
        .byte   W04
        .byte                   Gn3
        .byte   W05
        .byte   PEND
@ 009   ----------------------------------------
musicFEFatesDesireBelow_0_9:
        .byte           N24   , Fn4 , v069
        .byte           N04   , As1 , v076
        .byte   W05
        .byte           N03   , Ds2 , v069
        .byte   W03
        .byte           N04   , Fn2
        .byte   W04
        .byte                   As2
        .byte   W04
        .byte                   Cn3
        .byte   W04
        .byte                   Fn3
        .byte   W04
        .byte           N24   , Gn4
        .byte           N04   , Gn3 , v070
        .byte   W04
        .byte                   Gn2 , v069
        .byte   W04
        .byte                   As2
        .byte   W04
        .byte                   Cn3
        .byte   W04
        .byte                   Fn3
        .byte   W04
        .byte                   Gn3
        .byte   W04
        .byte           N24   , Gs4
        .byte           N04   , As1 , v073
        .byte   W04
        .byte                   Ds2 , v069
        .byte   W04
        .byte                   Fn2
        .byte   W04
        .byte                   As2
        .byte   W04
        .byte           N03   , Cn3
        .byte   W04
        .byte           N04   , Fn3
        .byte   W04
        .byte           N24   , As4
        .byte           N04   , Gn3 , v070
        .byte   W04
        .byte           N03   , Gn2 , v069
        .byte   W04
        .byte                   As2
        .byte   W04
        .byte                   Cn3
        .byte   W03
        .byte           N04   , Fn3
        .byte   W04
        .byte                   Gn3
        .byte   W05
        .byte   PEND
@ 010   ----------------------------------------
musicFEFatesDesireBelow_0_10:
        .byte           N24   , Cn5 , v069
        .byte           N04   , Cs2 , v076
        .byte   W05
        .byte           N03   , Ds2 , v069
        .byte   W03
        .byte           N04   , Fn2
        .byte   W04
        .byte                   As2
        .byte   W04
        .byte                   Cn3
        .byte   W04
        .byte                   Fn3
        .byte   W04
        .byte           N24   , Fn4
        .byte           N04   , Gn3 , v070
        .byte   W04
        .byte                   Gn2 , v069
        .byte   W04
        .byte                   As2
        .byte   W04
        .byte                   Cn3
        .byte   W04
        .byte                   Fn3
        .byte   W04
        .byte                   Gn3
        .byte   W04
        .byte           N24   , Ds5
        .byte           N04   , Cs2 , v073
        .byte   W04
        .byte                   Ds2 , v069
        .byte   W04
        .byte                   Fn2
        .byte   W04
        .byte                   As2
        .byte   W04
        .byte           N03   , Cn3
        .byte   W04
        .byte           N04   , Fn3
        .byte   W04
        .byte           N07   , Cs5
        .byte           N04   , Gn3 , v070
        .byte   W04
        .byte           N03   , Gn2 , v069
        .byte   W03
        .byte           N09   , Cn5
        .byte   W01
        .byte           N03   , As2
        .byte   W04
        .byte                   Cn3
        .byte   W03
        .byte           N04   , Fn3
        .byte   W01
        .byte           N08   , Bn4
        .byte   W03
        .byte           N04   , Gn3
        .byte   W05
        .byte   PEND
@ 011   ----------------------------------------
musicFEFatesDesireBelow_0_11:
        .byte           N24   , Cn5 , v069
        .byte           N04   , As1 , v076
        .byte   W05
        .byte           N03   , Ds2 , v069
        .byte   W03
        .byte           N04   , Fn2
        .byte   W04
        .byte                   As2
        .byte   W04
        .byte                   Cn3
        .byte   W04
        .byte                   Fn3
        .byte   W04
        .byte           N48   , Fn4
        .byte           N04   , Gn3 , v070
        .byte   W04
        .byte                   Gn2 , v069
        .byte   W04
        .byte                   As2
        .byte   W04
        .byte                   Cn3
        .byte   W04
        .byte                   Fn3
        .byte   W04
        .byte                   Gn3
        .byte   W04
        .byte                   As1 , v073
        .byte   W04
        .byte                   Ds2 , v069
        .byte   W04
        .byte                   Fn2
        .byte   W04
        .byte                   As2
        .byte   W04
        .byte           N03   , Cn3
        .byte   W04
        .byte           N04   , Fn3
        .byte   W04
        .byte           N24   , As4
        .byte           N04   , Gn3 , v070
        .byte   W04
        .byte           N03   , Gn2 , v069
        .byte   W04
        .byte                   As2
        .byte   W04
        .byte                   Cn3
        .byte   W03
        .byte           N04   , Fn3
        .byte   W04
        .byte                   Gn3
        .byte   W05
        .byte   PEND
@ 012   ----------------------------------------
musicFEFatesDesireBelow_0_12:
        .byte           N48   , Gs4 , v069
        .byte           N24   , Fn4
        .byte           N04   , Fs1 , v076
        .byte   W05
        .byte           N03   , Gs1 , v069
        .byte   W03
        .byte           N04   , As1
        .byte   W04
        .byte                   Ds2
        .byte   W04
        .byte                   Fn2
        .byte   W04
        .byte                   As2
        .byte   W04
        .byte           N12   , Ds4
        .byte           N04   , Cn3 , v070
        .byte   W04
        .byte                   Cn2 , v069
        .byte   W04
        .byte                   Ds2
        .byte   W04
        .byte           N60   , Gs4
        .byte           N04   , Fn2
        .byte   W04
        .byte                   As2
        .byte   W04
        .byte                   Cn3
        .byte   W04
        .byte           N24   , Fn4
        .byte           N04   , Fs1 , v073
        .byte   W04
        .byte                   Gs1 , v069
        .byte   W04
        .byte                   As1
        .byte   W04
        .byte                   Ds2
        .byte   W04
        .byte           N03   , Fn2
        .byte   W04
        .byte           N04   , As2
        .byte   W04
        .byte           N12   , Ds4
        .byte           N04   , Cn3 , v070
        .byte   W04
        .byte           N03   , Cn2 , v069
        .byte   W04
        .byte                   Ds2
        .byte   W04
        .byte           N12   , Gs4
        .byte           N03   , Fn2
        .byte   W03
        .byte           N04   , As2
        .byte   W04
        .byte                   Cn3
        .byte   W05
        .byte   PEND
@ 013   ----------------------------------------
musicFEFatesDesireBelow_0_13:
        .byte           N96   , Fn4 , v069
        .byte           N24   , As3
        .byte           N04   , Cn2 , v076
        .byte   W05
        .byte           N03   , Gs1 , v069
        .byte   W03
        .byte           N04   , As1
        .byte   W04
        .byte                   Ds2
        .byte   W04
        .byte                   Fn2
        .byte   W04
        .byte                   As2
        .byte   W04
        .byte           N12   , Gs3
        .byte           N04   , Cn3 , v070
        .byte   W04
        .byte                   Cn2 , v069
        .byte   W04
        .byte                   Ds2
        .byte   W04
        .byte           N12   , Ds4
        .byte           N04   , Fn2
        .byte   W04
        .byte                   As2
        .byte   W04
        .byte                   Cn3
        .byte   W04
        .byte           N24   , As3
        .byte           N04   , Cn2 , v073
        .byte   W04
        .byte                   Gs1 , v069
        .byte   W04
        .byte                   As1
        .byte   W04
        .byte                   Ds2
        .byte   W04
        .byte           N03   , Fn2
        .byte   W04
        .byte           N04   , As2
        .byte   W04
        .byte           N12   , Gs3
        .byte           N04   , Cn3 , v070
        .byte   W04
        .byte           N03   , Cn2 , v069
        .byte   W04
        .byte                   Ds2
        .byte   W04
        .byte           N12   , Ds4
        .byte           N03   , Fn2
        .byte   W03
        .byte           N04   , As2
        .byte   W04
        .byte                   Cn3
        .byte   W05
        .byte   PEND
@ 014   ----------------------------------------
musicFEFatesDesireBelow_0_14:
        .byte           N24   , Fn4 , v069
        .byte           N96   , As3
        .byte           N04   , Fs1 , v076
        .byte   W05
        .byte           N03   , Gs1 , v069
        .byte   W03
        .byte           N04   , As1
        .byte   W04
        .byte                   Ds2
        .byte   W04
        .byte                   Fn2
        .byte   W04
        .byte                   As2
        .byte   W04
        .byte           N12   , Ds4
        .byte           N04   , Cn3 , v070
        .byte   W04
        .byte                   Cn2 , v069
        .byte   W04
        .byte                   Ds2
        .byte   W04
        .byte           N12   , Gs4
        .byte           N04   , Fn2
        .byte   W04
        .byte                   As2
        .byte   W04
        .byte                   Cn3
        .byte   W04
        .byte           N24   , Fn4
        .byte           N04   , Fs1 , v073
        .byte   W04
        .byte                   Gs1 , v069
        .byte   W04
        .byte                   As1
        .byte   W04
        .byte                   Ds2
        .byte   W04
        .byte           N03   , Fn2
        .byte   W04
        .byte           N04   , As2
        .byte   W04
        .byte           N12   , Ds4
        .byte           N04   , Cn3 , v070
        .byte   W04
        .byte           N03   , Cn2 , v069
        .byte   W04
        .byte                   Ds2
        .byte   W04
        .byte           N12   , As4
        .byte           N03   , Fn2
        .byte   W03
        .byte           N04   , As2
        .byte   W04
        .byte                   Cn3
        .byte   W05
        .byte   PEND
@ 015   ----------------------------------------
musicFEFatesDesireBelow_0_15:
        .byte           N48   , Fn4 , v069
        .byte           N24   , Dn4
        .byte           N04   , Gn1 , v076
        .byte   W05
        .byte           N03   , An1 , v069
        .byte   W03
        .byte           N04   , As1
        .byte   W04
        .byte                   En2
        .byte   W04
        .byte                   Fn2
        .byte   W04
        .byte                   As2
        .byte   W04
        .byte           N12   , Cn4
        .byte           N04   , Cn3 , v070
        .byte   W04
        .byte                   Cn2 , v069
        .byte   W04
        .byte                   En2
        .byte   W04
        .byte           N60   , Fn4
        .byte           N04   , Fn2
        .byte   W04
        .byte                   As2
        .byte   W04
        .byte                   Cn3
        .byte   W04
        .byte           N24   , Dn4
        .byte           N04   , Gn1 , v073
        .byte   W04
        .byte                   An1 , v069
        .byte   W04
        .byte                   As1
        .byte   W04
        .byte                   En2
        .byte   W04
        .byte           N03   , Fn2
        .byte   W04
        .byte           N04   , As2
        .byte   W04
        .byte           N12   , Cn4
        .byte           N04   , Cn3 , v070
        .byte   W04
        .byte           N03   , Cn2 , v069
        .byte   W04
        .byte                   Dn2
        .byte   W04
        .byte           N12   , Fn4
        .byte           N03   , Fn2
        .byte   W03
        .byte           N04   , As2
        .byte   W04
        .byte                   Cn3
        .byte   W05
        .byte   PEND
@ 016   ----------------------------------------
musicFEFatesDesireBelow_0_16:
        .byte           N24   , Ds4 , v069
        .byte           N04   , Gs1 , v076
        .byte   W05
        .byte           N03   , Fs2 , v069
        .byte   W03
        .byte           N04   , Gs2
        .byte   W04
        .byte                   Cs3
        .byte   W04
        .byte                   Ds3
        .byte   W04
        .byte                   Gs3
        .byte   W04
        .byte           N12   , Cs4
        .byte           N04   , As3 , v070
        .byte   W04
        .byte                   Bn2 , v069
        .byte   W04
        .byte                   Ds3
        .byte   W04
        .byte           N24   , As4
        .byte           N04   , Fs3
        .byte   W04
        .byte                   Gs3
        .byte   W04
        .byte                   As3
        .byte   W04
        .byte                   Gs2 , v073
        .byte   W04
        .byte                   Fs2 , v069
        .byte   W04
        .byte                   Gs2
        .byte   W04
        .byte           N24   , Ds4
        .byte           N04   , Cs3
        .byte   W04
        .byte           N03   , Ds3
        .byte   W04
        .byte           N04   , Gs3
        .byte   W04
        .byte                   As3 , v070
        .byte   W04
        .byte           N03   , As2 , v069
        .byte   W04
        .byte                   Cs3
        .byte   W04
        .byte           N12   , Cs4
        .byte           N03   , Fs3
        .byte   W03
        .byte           N04   , Gs3
        .byte   W04
        .byte                   As3
        .byte   W05
        .byte   PEND
@ 017   ----------------------------------------
musicFEFatesDesireBelow_0_17:
        .byte           N24   , Ds4 , v069
        .byte           N04   , En2 , v076
        .byte   W05
        .byte           N03   , Fs2 , v069
        .byte   W03
        .byte           N04   , Gs2
        .byte   W04
        .byte                   Cs3
        .byte   W04
        .byte                   Ds3
        .byte   W04
        .byte                   Fs3
        .byte   W04
        .byte           N24   , Gs4
        .byte           N04   , As3 , v070
        .byte   W04
        .byte                   Bn2 , v069
        .byte   W04
        .byte                   Cs3
        .byte   W04
        .byte                   Ds3
        .byte   W04
        .byte                   Gs3
        .byte   W04
        .byte                   As3
        .byte   W04
        .byte           N24   , Fs4
        .byte           N04   , En2 , v073
        .byte   W04
        .byte                   Fs2 , v069
        .byte   W04
        .byte                   Gs2
        .byte   W04
        .byte                   Cs3
        .byte   W04
        .byte           N03   , Ds3
        .byte   W04
        .byte           N04   , Gs3
        .byte   W04
        .byte           N07   , En4
        .byte           N04   , As3 , v070
        .byte   W04
        .byte           N03   , As2 , v069
        .byte   W03
        .byte           N09   , Fs4
        .byte   W01
        .byte           N03   , Cs3
        .byte   W04
        .byte                   Ds3
        .byte   W03
        .byte           N04   , Gs3
        .byte   W01
        .byte           N08   , En4
        .byte   W03
        .byte           N04   , As3
        .byte   W05
        .byte   PEND
@ 018   ----------------------------------------
musicFEFatesDesireBelow_0_18:
        .byte           N36   , Ds4 , v069
        .byte           N04   , Gs1 , v076
        .byte   W05
        .byte           N03   , Fs2 , v069
        .byte   W03
        .byte           N04   , Gs2
        .byte   W04
        .byte                   Cs3
        .byte   W04
        .byte                   Ds3
        .byte   W04
        .byte                   Gs3
        .byte   W04
        .byte                   As3 , v070
        .byte   W04
        .byte                   Bn2 , v069
        .byte   W04
        .byte                   Ds3
        .byte   W04
        .byte           N12   , Gs4
        .byte           N04   , Fs3
        .byte   W04
        .byte                   Gs3
        .byte   W04
        .byte                   As3
        .byte   W04
        .byte           N24   , As4
        .byte           N04   , Gs2 , v073
        .byte   W04
        .byte                   Fs2 , v069
        .byte   W04
        .byte                   Gs2
        .byte   W04
        .byte                   Cs3
        .byte   W04
        .byte           N03   , Ds3
        .byte   W04
        .byte           N04   , Gs3
        .byte   W04
        .byte           N24   , Bn4
        .byte           N04   , As3 , v070
        .byte   W04
        .byte           N03   , As2 , v069
        .byte   W04
        .byte                   Cs3
        .byte   W04
        .byte                   Fs3
        .byte   W03
        .byte           N04   , Gs3
        .byte   W04
        .byte                   As3
        .byte   W05
        .byte   PEND
@ 019   ----------------------------------------
musicFEFatesDesireBelow_0_19:
        .byte           N24   , Cs5 , v069
        .byte           N04   , Fn2 , v076
        .byte   W05
        .byte           N03   , Gs2 , v069
        .byte   W03
        .byte           N04   , As2
        .byte   W04
        .byte                   Cs3
        .byte   W04
        .byte                   Ds3
        .byte   W04
        .byte                   Gs3
        .byte   W04
        .byte           N24   , Gs4
        .byte           N04   , As3 , v070
        .byte   W04
        .byte                   As2 , v069
        .byte   W04
        .byte                   Cs3
        .byte   W04
        .byte                   Ds3
        .byte   W04
        .byte                   Gs3
        .byte   W04
        .byte                   As3
        .byte   W04
        .byte           N24   , Ds5
        .byte           N04   , Fn2 , v073
        .byte   W04
        .byte                   Gs2 , v069
        .byte   W04
        .byte                   As2
        .byte   W04
        .byte                   Cs3
        .byte   W04
        .byte           N03   , Ds3
        .byte   W04
        .byte           N08   , Gs3
        .byte   W04
        .byte           N07   , Cs5
        .byte   W04
        .byte           N03   , As3
        .byte   W03
        .byte           N09   , Bn4
        .byte   W01
        .byte           N03   , Gs3
        .byte   W04
        .byte                   Ds3
        .byte   W03
        .byte           N04   , Cs3
        .byte   W01
        .byte           N08   , Cs5
        .byte   W03
        .byte           N04   , Gs2
        .byte   W05
        .byte   PEND
@ 020   ----------------------------------------
musicFEFatesDesireBelow_0_20:
        .byte           N84   , Gs4 , v069 , gtp3
        .byte           N04   , En2 , v076
        .byte   W05
        .byte           N03   , As2 , v069
        .byte   W03
        .byte           N04   , Bn2
        .byte   W04
        .byte                   Cs3
        .byte   W04
        .byte                   Ds3
        .byte   W04
        .byte                   En3
        .byte   W04
        .byte                   Fs3 , v070
        .byte   W04
        .byte                   Gs2 , v069
        .byte   W04
        .byte                   As2
        .byte   W04
        .byte                   Fs3
        .byte   W04
        .byte                   Gs3
        .byte   W04
        .byte                   En3
        .byte   W04
        .byte                   As3 , v073
        .byte   W04
        .byte                   Bn3 , v069
        .byte   W04
        .byte                   Cs4
        .byte   W04
        .byte                   Ds4
        .byte   W04
        .byte           N03   , En4
        .byte   W04
        .byte           N04   , Fs4
        .byte   W04
        .byte                   Gs3 , v070
        .byte   W04
        .byte           N03   , As3 , v069
        .byte   W04
        .byte                   Fs4
        .byte   W04
        .byte           N12   , Gs4
        .byte   W03
        .byte           N04   , En4
        .byte   W04
        .byte                   As4
        .byte   W05
        .byte   PEND
@ 021   ----------------------------------------
musicFEFatesDesireBelow_0_21:
        .byte           N96   , Fs4 , v069
        .byte           N96   , Gs4
        .byte           N96   , Bn4
        .byte           N96   , Ds5
        .byte           N92   , En1 , v068 , gtp3
        .byte   W92
        .byte   W03
        .byte   TEMPO , 130/2
        .byte   W01
        .byte   PEND
@ 022   ----------------------------------------
musicFEFatesDesireBelow_0_22:
        .byte   TEMPO , 128/2
        .byte           N14   , En1 , v037
        .byte   W12
        .byte           N10   , En2 , v033
        .byte   W12
        .byte           N24   , Gs2 , v031
        .byte           N24   , As2 , v046
        .byte   W24
        .byte           N09   , Fs2 , v033
        .byte           N09   , Ds3 , v048
        .byte   W24
        .byte   PEND
@ 023   ----------------------------------------
musicFEFatesDesireBelow_0_23:
        .byte           N14   , En1 , v037
        .byte   W12
        .byte           N10   , En2 , v033
        .byte   W12
        .byte           N24   , Gs2 , v031
        .byte           N24   , As2 , v046
        .byte   W24
        .byte           N09   , Fs2 , v033
        .byte           N09   , Ds3 , v048
        .byte   W24
        .byte   PEND
@ 024   ----------------------------------------
        .byte   PATT
         .word  musicFEFatesDesireBelow_0_23
@ 025   ----------------------------------------
musicFEFatesDesireBelow_0_25:
        .byte           N14   , En1 , v037
        .byte   W12
        .byte           N10   , En2 , v033
        .byte   W12
        .byte           N24   , As3 , v038
        .byte           N24   , Gs2 , v031
        .byte           N24   , As2 , v046
        .byte   W24
        .byte                   Bn3 , v038
        .byte           N09   , Fs2 , v033
        .byte           N09   , Ds3 , v048
        .byte   W24
        .byte   PEND
@ 026   ----------------------------------------
musicFEFatesDesireBelow_0_26:
        .byte           N24   , Cs4 , v038
        .byte           N14   , En1 , v037
        .byte   W12
        .byte           N10   , En2 , v033
        .byte   W12
        .byte           N24   , Bn3 , v038
        .byte           N24   , Gs2 , v031
        .byte           N24   , As2 , v046
        .byte   W24
        .byte           N48   , As3 , v038
        .byte           N09   , Fs2 , v033
        .byte           N09   , Ds3 , v048
        .byte   W24
        .byte   PEND
@ 027   ----------------------------------------
musicFEFatesDesireBelow_0_27:
        .byte           N14   , En1 , v037
        .byte   W12
        .byte           N10   , En2 , v033
        .byte   W12
        .byte           N24   , Bn3 , v038
        .byte           N24   , Gs2 , v031
        .byte           N24   , As2 , v046
        .byte   W24
        .byte           N48   , Gs3 , v038
        .byte           N09   , Fs2 , v033
        .byte           N09   , Ds3 , v048
        .byte   W24
        .byte   PEND
@ 028   ----------------------------------------
musicFEFatesDesireBelow_0_28:
        .byte           N14   , En1 , v037
        .byte   W12
        .byte           N10   , En2 , v033
        .byte   W12
        .byte           N24   , Cs3 , v038
        .byte           N24   , Gs2 , v031
        .byte           N24   , As2 , v046
        .byte   W24
        .byte                   As3 , v038
        .byte           N09   , Fs2 , v033
        .byte           N09   , Ds3 , v048
        .byte   W24
        .byte   PEND
@ 029   ----------------------------------------
musicFEFatesDesireBelow_0_29:
        .byte           N48   , Fs3 , v038
        .byte           N14   , En1 , v037
        .byte   W12
        .byte           N10   , En2 , v033
        .byte   W12
        .byte           N24   , Gs2 , v031
        .byte           N24   , As2 , v046
        .byte   W24
        .byte                   Gs3 , v038
        .byte           N09   , Fs2 , v033
        .byte           N09   , Ds3 , v048
        .byte   W24
        .byte   PEND
@ 030   ----------------------------------------
musicFEFatesDesireBelow_0_30:
        .byte           N24   , Ds3 , v038
        .byte           N14   , Cs1 , v037
        .byte   W12
        .byte           N10   , Cs2 , v033
        .byte   W12
        .byte           N24   , Cs3 , v038
        .byte           N24   , Fs2 , v031
        .byte           N24   , As2 , v046
        .byte   W24
        .byte           N48   , Fs3 , v038
        .byte           N09   , En2 , v033
        .byte           N09   , Ds3 , v048
        .byte   W24
        .byte   PEND
@ 031   ----------------------------------------
musicFEFatesDesireBelow_0_31:
        .byte           N14   , Cs1 , v037
        .byte   W12
        .byte           N10   , Cs2 , v033
        .byte   W12
        .byte           N24   , Ds3 , v038
        .byte           N24   , Fs2 , v031
        .byte           N24   , As2 , v046
        .byte   W24
        .byte           N48   , As2 , v038
        .byte           N09   , En2 , v033
        .byte           N09   , Ds3 , v048
        .byte   W24
        .byte   PEND
@ 032   ----------------------------------------
musicFEFatesDesireBelow_0_32:
        .byte           N14   , Cs1 , v037
        .byte   W12
        .byte           N10   , Cs2 , v033
        .byte   W12
        .byte           N24   , Fs2 , v031
        .byte           N24   , As2 , v046
        .byte   W24
        .byte           N09   , En2 , v033
        .byte           N09   , Ds3 , v048
        .byte   W24
        .byte   PEND
@ 033   ----------------------------------------
musicFEFatesDesireBelow_0_33:
        .byte           N14   , Cs1 , v037
        .byte   W12
        .byte           N10   , Cs2 , v033
        .byte   W12
        .byte           N24   , Fs2 , v031
        .byte           N24   , As2 , v046
        .byte   W24
        .byte                   Bn2 , v038
        .byte           N09   , En2 , v033
        .byte           N09   , Ds3 , v048
        .byte   W24
        .byte   PEND
@ 034   ----------------------------------------
musicFEFatesDesireBelow_0_34:
        .byte           N56   , Cs3 , v038 , gtp1
        .byte           N14   , An1
        .byte   W12
        .byte           N10   , An2 , v033
        .byte   W12
        .byte           N24   , Fs2 , v031
        .byte           N24   , Gs2 , v046
        .byte   W24
        .byte           N09   , En2 , v033
        .byte           N24   , Cs3 , v048
        .byte   W24
        .byte   PEND
@ 035   ----------------------------------------
musicFEFatesDesireBelow_0_35:
        .byte           N24   , Fs3 , v038
        .byte           N14   , An1
        .byte   W12
        .byte           N10   , An2 , v033
        .byte   W12
        .byte           N24   , Ds3 , v038
        .byte           N24   , Fs2 , v031
        .byte           N24   , Gs2 , v046
        .byte   W24
        .byte                   En3 , v038
        .byte           N09   , En2 , v033
        .byte           N09   , Cs3 , v048
        .byte   W24
        .byte   PEND
@ 036   ----------------------------------------
musicFEFatesDesireBelow_0_36:
        .byte           N48   , Gs3 , v038
        .byte           N14   , An1
        .byte   W12
        .byte           N10   , An2 , v033
        .byte   W12
        .byte           N24   , Fs2 , v031
        .byte           N24   , Gs2 , v046
        .byte   W24
        .byte                   Fs3 , v038
        .byte           N09   , En2 , v033
        .byte           N09   , Cs3 , v048
        .byte   W24
        .byte   PEND
@ 037   ----------------------------------------
musicFEFatesDesireBelow_0_37:
        .byte           N24   , Ds3 , v038
        .byte           N14   , An1
        .byte   W12
        .byte           N10   , An2 , v033
        .byte   W12
        .byte           N24   , En3 , v038
        .byte           N24   , Fs2 , v031
        .byte           N24   , Gs2 , v046
        .byte   W24
        .byte           N48   , Bn3 , v038
        .byte           N09   , En2 , v033
        .byte           N09   , Cs3 , v048
        .byte   W24
        .byte   PEND
@ 038   ----------------------------------------
musicFEFatesDesireBelow_0_38:
        .byte           N14   , Gs1 , v038
        .byte   W12
        .byte           N10   , Gs2 , v033
        .byte   W12
        .byte           N24   , Fs3 , v038
        .byte           N24   , En2 , v031
        .byte           N24   , Fs2 , v046
        .byte   W24
        .byte                   Gs3 , v038
        .byte           N09   , Ds2 , v033
        .byte           N09   , Bn2 , v048
        .byte   W24
        .byte   PEND
@ 039   ----------------------------------------
musicFEFatesDesireBelow_0_39:
        .byte           N48   , Ds4 , v038
        .byte           N14   , Gs1
        .byte   W12
        .byte           N10   , Gs2 , v033
        .byte   W12
        .byte           N24   , En2 , v031
        .byte           N24   , Fs2 , v046
        .byte   W24
        .byte           N96   , Bn3 , v038
        .byte           N09   , Ds2 , v033
        .byte           N09   , Bn2 , v048
        .byte   W24
        .byte   PEND
@ 040   ----------------------------------------
musicFEFatesDesireBelow_0_40:
        .byte           N14   , Gs1 , v038
        .byte   W12
        .byte           N10   , Gs2 , v033
        .byte   W12
        .byte           N24   , En2 , v031
        .byte           N24   , Fs2 , v046
        .byte   W24
        .byte           N09   , Ds2 , v033
        .byte           N09   , Bn2 , v048
        .byte   W24
        .byte   PEND
@ 041   ----------------------------------------
musicFEFatesDesireBelow_0_41:
        .byte           N14   , Gs1 , v038
        .byte   W12
        .byte           N10   , Gs2 , v033
        .byte   W12
        .byte           N24   , Bn2 , v038
        .byte           N24   , En2 , v031
        .byte           N24   , Fs2 , v046
        .byte   W24
        .byte                   Cs3 , v038
        .byte           N09   , Ds2 , v033
        .byte           N09   , Bn2 , v048
        .byte   W24
        .byte   PEND
@ 042   ----------------------------------------
musicFEFatesDesireBelow_0_42:
        .byte           N24   , Dn3 , v038
        .byte           N14   , Gn1
        .byte   W12
        .byte           N10   , Gn2 , v033
        .byte   W12
        .byte           N24   , En3 , v038
        .byte           N24   , En2 , v031
        .byte           N24   , Fs2 , v046
        .byte   W24
        .byte                   Fs3 , v038
        .byte           N09   , Dn2 , v033
        .byte           N09   , Bn2 , v048
        .byte   W24
        .byte   PEND
@ 043   ----------------------------------------
musicFEFatesDesireBelow_0_43:
        .byte           N24   , Gn3 , v038
        .byte           N14   , Gn1
        .byte   W12
        .byte           N10   , Gn2 , v033
        .byte   W12
        .byte           N48   , Fs3 , v038
        .byte           N24   , En2 , v031
        .byte           N24   , Fs2 , v046
        .byte   W24
        .byte           N09   , Dn2 , v033
        .byte           N09   , Bn2 , v048
        .byte   W24
        .byte   PEND
@ 044   ----------------------------------------
musicFEFatesDesireBelow_0_44:
        .byte           N24   , En3 , v038
        .byte           N14   , Cn1 , v036
        .byte   W12
        .byte           N10   , Cn2 , v033
        .byte   W12
        .byte           N24   , Fs3 , v038
        .byte           N24   , En2 , v031
        .byte           N24   , Fs2 , v046
        .byte   W24
        .byte                   Gn3 , v038
        .byte           N09   , Dn2 , v033
        .byte           N09   , Bn2 , v048
        .byte   W24
        .byte   PEND
@ 045   ----------------------------------------
musicFEFatesDesireBelow_0_45:
        .byte           N24   , An3 , v038
        .byte           N14   , Cn1 , v036
        .byte   W12
        .byte           N10   , Cn2 , v033
        .byte   W12
        .byte           N24   , Bn3 , v038
        .byte           N24   , En2 , v031
        .byte           N24   , Fs2 , v046
        .byte   W24
        .byte                   Cn4 , v038
        .byte           N09   , Dn2 , v033
        .byte           N09   , Bn2 , v048
        .byte   W24
        .byte   PEND
@ 046   ----------------------------------------
musicFEFatesDesireBelow_0_46:
        .byte           TIE   , Cs4 , v038
        .byte           N14   , Cs1 , v037
        .byte   W12
        .byte           N10   , Cs2 , v033
        .byte   W12
        .byte           N24   , Fs2 , v031
        .byte           N24   , As2 , v046
        .byte   W24
        .byte           N09   , En2 , v033
        .byte           N09   , Ds3 , v048
        .byte   W24
        .byte   PEND
@ 047   ----------------------------------------
musicFEFatesDesireBelow_0_47:
        .byte           N14   , Cs1 , v037
        .byte   W12
        .byte           N10   , Cs2 , v033
        .byte   W12
        .byte           N24   , Fs2 , v031
        .byte           N24   , As2 , v046
        .byte   W24
        .byte           N09   , En2 , v033
        .byte           N09   , Ds3 , v048
        .byte   W12
        .byte           EOT   , Cs4
        .byte           N06   , Gs3 , v038
        .byte   W06
        .byte                   As3
        .byte   W06
        .byte   PEND
@ 048   ----------------------------------------
musicFEFatesDesireBelow_0_48:
        .byte           N72   , Gs3 , v038
        .byte           N14   , Cs1 , v037
        .byte   W12
        .byte           N10   , Cs2 , v033
        .byte   W12
        .byte           N24   , Fs2 , v031
        .byte           N24   , As2 , v046
        .byte   W24
        .byte           N09   , En2 , v033
        .byte           N09   , Ds3 , v048
        .byte   W24
        .byte   PEND
@ 049   ----------------------------------------
musicFEFatesDesireBelow_0_49:
        .byte           N14   , Cs1 , v037
        .byte   W12
        .byte           N10   , Cs2 , v033
        .byte   W12
        .byte           N24   , As3 , v038
        .byte           N24   , As4
        .byte           N24   , Fs2 , v031
        .byte           N24   , As2 , v046
        .byte   W24
        .byte                   Bn3 , v038
        .byte           N24   , Bn4
        .byte           N09   , En2 , v033
        .byte           N09   , Ds3 , v048
        .byte   W24
        .byte   PEND
@ 050   ----------------------------------------
musicFEFatesDesireBelow_0_50:
        .byte           N24   , Cs4 , v038
        .byte           N24   , Cs5
        .byte           N12   , En1 , v043
        .byte   W12
        .byte           N11   , En2 , v038
        .byte   W12
        .byte           N24   , Bn3
        .byte           N24   , Bn4
        .byte           N11   , As2 , v039
        .byte   W12
        .byte                   Gs2 , v038
        .byte   W12
        .byte           N48   , As3
        .byte           N48   , As4
        .byte           N11   , Fs2 , v042
        .byte   W12
        .byte                   Ds3 , v038
        .byte   W12
        .byte   PEND
@ 051   ----------------------------------------
musicFEFatesDesireBelow_0_51:
        .byte           N12   , En1 , v043
        .byte   W12
        .byte           N11   , En2 , v038
        .byte   W12
        .byte           N24   , Bn3
        .byte           N24   , Bn4
        .byte           N11   , As2 , v039
        .byte   W12
        .byte                   Gs2 , v038
        .byte   W12
        .byte           N48   , Gs3
        .byte           N48   , Gs4
        .byte           N11   , Fs2 , v042
        .byte   W12
        .byte                   Ds3 , v038
        .byte   W12
        .byte   PEND
@ 052   ----------------------------------------
musicFEFatesDesireBelow_0_52:
        .byte           N12   , En1 , v043
        .byte   W12
        .byte           N11   , En2 , v038
        .byte   W12
        .byte           N24   , Cs3
        .byte           N24   , Cs4
        .byte           N11   , As2 , v039
        .byte   W12
        .byte                   Gs2 , v038
        .byte   W12
        .byte           N24   , As3
        .byte           N24   , As4
        .byte           N11   , Fs2 , v042
        .byte   W12
        .byte                   Ds3 , v038
        .byte   W12
        .byte   PEND
@ 053   ----------------------------------------
musicFEFatesDesireBelow_0_53:
        .byte           N48   , Fs3 , v038
        .byte           N48   , Fs4
        .byte           N12   , En1 , v043
        .byte   W12
        .byte           N11   , En2 , v038
        .byte   W12
        .byte                   As2 , v039
        .byte   W12
        .byte                   Gs2 , v038
        .byte   W12
        .byte           N24   , Gs3
        .byte           N24   , Gs4
        .byte           N11   , Fs2 , v042
        .byte   W12
        .byte                   Ds3 , v038
        .byte   W12
        .byte   PEND
@ 054   ----------------------------------------
musicFEFatesDesireBelow_0_54:
        .byte           N24   , Ds3 , v038
        .byte           N24   , Ds4
        .byte           N12   , Cs1 , v043
        .byte   W12
        .byte           N11   , Cs2 , v038
        .byte   W12
        .byte           N24   , Cs3
        .byte           N24   , Cs4
        .byte           N11   , Fs2 , v039
        .byte   W12
        .byte                   As2 , v038
        .byte   W12
        .byte           N48   , Fs3
        .byte           N48   , Fs4
        .byte           N11   , Gs2 , v042
        .byte   W12
        .byte                   Ds3 , v038
        .byte   W12
        .byte   PEND
@ 055   ----------------------------------------
musicFEFatesDesireBelow_0_55:
        .byte           N12   , Cs1 , v043
        .byte   W12
        .byte           N11   , Cs2 , v038
        .byte   W12
        .byte           N24   , Ds3
        .byte           N24   , Ds4
        .byte           N11   , Fs2 , v039
        .byte   W12
        .byte                   As2 , v038
        .byte   W12
        .byte           N68   , As2 , v038 , gtp3
        .byte           N96   , As3
        .byte           N11   , Gs2 , v042
        .byte   W12
        .byte                   Ds3 , v038
        .byte   W12
        .byte   PEND
@ 056   ----------------------------------------
musicFEFatesDesireBelow_0_56:
        .byte           N12   , Cs1 , v043
        .byte   W12
        .byte           N11   , Cs2 , v038
        .byte   W12
        .byte                   Fs2 , v039
        .byte   W12
        .byte           N36   , As2 , v038
        .byte   W12
        .byte           N11   , Gs2 , v042
        .byte   W12
        .byte                   Ds3 , v038
        .byte   W12
        .byte   PEND
@ 057   ----------------------------------------
musicFEFatesDesireBelow_0_57:
        .byte           N12   , Cs1 , v043
        .byte   W12
        .byte           N11   , Cs2 , v038
        .byte   W12
        .byte                   Fs2 , v039
        .byte   W12
        .byte                   As2 , v038
        .byte   W12
        .byte           N24   , Bn2
        .byte           N24   , Bn3
        .byte           N11   , Gs2 , v042
        .byte   W12
        .byte                   Ds3 , v038
        .byte   W12
        .byte   PEND
@ 058   ----------------------------------------
musicFEFatesDesireBelow_0_58:
        .byte           N72   , Cs3 , v038
        .byte           N72   , Cs4
        .byte           N12   , An1 , v044
        .byte   W12
        .byte           N11   , An2 , v038
        .byte   W12
        .byte                   Gs2 , v039
        .byte   W12
        .byte                   Fs2 , v038
        .byte   W12
        .byte                   En2 , v042
        .byte   W12
        .byte                   Bn2 , v038
        .byte   W12
        .byte   PEND
@ 059   ----------------------------------------
musicFEFatesDesireBelow_0_59:
        .byte           N24   , Fs3 , v038
        .byte           N24   , Fs4
        .byte           N12   , An1 , v044
        .byte   W12
        .byte           N11   , An2 , v038
        .byte   W12
        .byte           N24   , Ds3
        .byte           N24   , Ds4
        .byte           N11   , Gs2 , v039
        .byte   W12
        .byte                   Fs2 , v038
        .byte   W12
        .byte           N24   , En3
        .byte           N24   , En4
        .byte           N11   , En2 , v042
        .byte   W12
        .byte                   Bn2 , v038
        .byte   W12
        .byte   PEND
@ 060   ----------------------------------------
musicFEFatesDesireBelow_0_60:
        .byte           N48   , Gs3 , v038
        .byte           N48   , Gs4
        .byte           N12   , An1 , v044
        .byte   W12
        .byte           N11   , An2 , v038
        .byte   W12
        .byte                   Gs2 , v039
        .byte   W12
        .byte                   Fs2 , v038
        .byte   W12
        .byte           N24   , Fs3
        .byte           N24   , Fs4
        .byte           N11   , En2 , v042
        .byte   W12
        .byte                   Bn2 , v038
        .byte   W12
        .byte   PEND
@ 061   ----------------------------------------
musicFEFatesDesireBelow_0_61:
        .byte           N24   , Ds3 , v038
        .byte           N24   , Ds4
        .byte           N12   , An1 , v044
        .byte   W12
        .byte           N11   , An2 , v038
        .byte   W12
        .byte           N24   , En3
        .byte           N24   , En4
        .byte           N11   , Gs2 , v039
        .byte   W12
        .byte                   Fs2 , v038
        .byte   W12
        .byte           N48   , Bn3
        .byte           N48   , Bn4
        .byte           N11   , En2 , v042
        .byte   W12
        .byte                   Bn2 , v038
        .byte   W12
        .byte   PEND
@ 062   ----------------------------------------
musicFEFatesDesireBelow_0_62:
        .byte           N12   , Gs1 , v044
        .byte   W12
        .byte           N11   , Gs2 , v038
        .byte   W12
        .byte           N24   , Fs3
        .byte           N24   , Fs4
        .byte           N11   , Fs2 , v039
        .byte   W12
        .byte                   En2 , v038
        .byte   W12
        .byte           N24   , Gs3
        .byte           N24   , Gs4
        .byte           N11   , Ds2 , v042
        .byte   W12
        .byte                   Ds3 , v038
        .byte   W12
        .byte   PEND
@ 063   ----------------------------------------
musicFEFatesDesireBelow_0_63:
        .byte           N48   , Ds4 , v038
        .byte           N48   , Ds5
        .byte           N12   , Gs1 , v044
        .byte   W12
        .byte           N11   , Gs2 , v038
        .byte   W12
        .byte                   Fs2 , v039
        .byte   W12
        .byte                   En2 , v038
        .byte   W12
        .byte           N96   , Bn3
        .byte           N96   , Bn4
        .byte           N11   , Ds2 , v042
        .byte   W12
        .byte                   Ds3 , v038
        .byte   W12
        .byte   PEND
@ 064   ----------------------------------------
musicFEFatesDesireBelow_0_64:
        .byte           N12   , Gs1 , v044
        .byte   W12
        .byte           N11   , Gs2 , v038
        .byte   W12
        .byte                   Fs2 , v039
        .byte   W12
        .byte                   En2 , v038
        .byte   W12
        .byte                   Ds2 , v042
        .byte   W12
        .byte                   Ds3 , v038
        .byte   W12
        .byte   PEND
@ 065   ----------------------------------------
musicFEFatesDesireBelow_0_65:
        .byte           N12   , Gs1 , v044
        .byte   W12
        .byte           N11   , Gs2 , v038
        .byte   W12
        .byte           N24   , Bn2
        .byte           N24   , Bn3
        .byte           N11   , Fs2 , v039
        .byte   W12
        .byte                   En2 , v038
        .byte   W12
        .byte           N24   , Cs3
        .byte           N24   , Cs4
        .byte           N11   , Ds2 , v042
        .byte   W12
        .byte                   Ds3 , v038
        .byte   W12
        .byte   PEND
@ 066   ----------------------------------------
musicFEFatesDesireBelow_0_66:
        .byte           N24   , Dn3 , v038
        .byte           N24   , Dn4
        .byte           N12   , Gn1 , v044
        .byte   W12
        .byte           N11   , Gn2 , v038
        .byte   W12
        .byte           N24   , En3
        .byte           N24   , En4
        .byte           N11   , Fs2 , v039
        .byte   W12
        .byte                   En2 , v038
        .byte   W12
        .byte           N24   , Fs3
        .byte           N24   , Fs4
        .byte           N11   , Dn2 , v042
        .byte   W12
        .byte                   Bn2 , v038
        .byte   W12
        .byte   PEND
@ 067   ----------------------------------------
musicFEFatesDesireBelow_0_67:
        .byte           N24   , Gn3 , v038
        .byte           N24   , Gn4
        .byte           N12   , Gn1
        .byte   W12
        .byte           N11   , Gn2
        .byte   W12
        .byte           N48   , Fs3
        .byte           N48   , Fs4
        .byte           N11   , Fs2 , v037
        .byte   W12
        .byte                   En2 , v036
        .byte   W12
        .byte                   Dn2
        .byte   W12
        .byte                   Bn2 , v035
        .byte   W12
        .byte   PEND
@ 068   ----------------------------------------
musicFEFatesDesireBelow_0_68:
        .byte           N24   , En3 , v038
        .byte           N24   , En4
        .byte           N12   , Cn1 , v032
        .byte   W12
        .byte           N11   , Cn2 , v033
        .byte   W12
        .byte           N24   , Fs3 , v038
        .byte           N24   , Fs4
        .byte           N11   , Fs2 , v033
        .byte   W12
        .byte                   En2 , v032
        .byte   W12
        .byte           N24   , Gn3 , v038
        .byte           N24   , Gn4
        .byte           N11   , Dn2 , v031
        .byte   W12
        .byte                   Dn3
        .byte   W12
        .byte   PEND
@ 069   ----------------------------------------
musicFEFatesDesireBelow_0_69:
        .byte           N24   , An3 , v038
        .byte           N24   , An4
        .byte           N12   , Cn1 , v029
        .byte   W12
        .byte           N11   , Cn2 , v030
        .byte   W12
        .byte           N24   , Bn3 , v038
        .byte           N24   , Bn4
        .byte           N11   , Fs2 , v029
        .byte   W12
        .byte                   En2
        .byte   W12
        .byte           N24   , Cn4 , v038
        .byte           N24   , Cn5
        .byte           N11   , Dn2 , v028
        .byte   W12
        .byte                   Dn3 , v027
        .byte   W12
        .byte   PEND
@ 070   ----------------------------------------
musicFEFatesDesireBelow_0_70:
        .byte   TEMPO , 86/2
        .byte           N24   , Gs4 , v026
        .byte           N48   , Cs4
        .byte           N44   , En3 , v026 , gtp3
        .byte           N24   , Bn2 , v031
        .byte   W24
        .byte           N12   , Fs4 , v026
        .byte           N23   , As2 , v029
        .byte   W12
        .byte           N12   , Gs4 , v026
        .byte   W12
        .byte   PEND
@ 071   ----------------------------------------
musicFEFatesDesireBelow_0_71:
        .byte           N48   , Ds4 , v026
        .byte           N24   , Bn3
        .byte           N44   , En3 , v026 , gtp3
        .byte           N24   , Gs2 , v031
        .byte   W24
        .byte                   As3 , v026
        .byte           N23   , Fs2 , v029
        .byte   W24
        .byte   PEND
@ 072   ----------------------------------------
musicFEFatesDesireBelow_0_72:
        .byte           N12   , Ds4 , v026
        .byte           N24   , Gs3
        .byte           N44   , En3 , v026 , gtp3
        .byte           N24   , En2 , v031
        .byte   W12
        .byte           N12   , Cs4 , v026
        .byte   W12
        .byte                   Cs4
        .byte           N12   , Fs3
        .byte           N23   , Fs2 , v029
        .byte   W12
        .byte           N12   , Ds4 , v026
        .byte           N12   , En3
        .byte   W12
        .byte   PEND
@ 073   ----------------------------------------
musicFEFatesDesireBelow_0_73:
        .byte           N24   , Gs3 , v026
        .byte           N24   , Ds3
        .byte           N24   , Fn2 , v031
        .byte   W24
        .byte           N12   , As3 , v026
        .byte   W12
        .byte                   Bn3
        .byte   W12
        .byte   PEND
@ 074   ----------------------------------------
musicFEFatesDesireBelow_0_74:
        .byte           N24   , Cs4 , v026
        .byte           N48   , Ds3
        .byte           N44   , Gs2 , v026 , gtp3
        .byte                   En2
        .byte   W24
        .byte           N12   , Bn3
        .byte   W12
        .byte                   As3
        .byte   W12
        .byte   PEND
@ 075   ----------------------------------------
musicFEFatesDesireBelow_0_75:
        .byte           N24   , Bn3 , v026
        .byte           N36   , Fs3
        .byte           N44   , Cs3 , v026 , gtp3
        .byte                   Ds2
        .byte   W24
        .byte           N24   , Fs4
        .byte   W12
        .byte           N12   , As3
        .byte   W12
        .byte   PEND
@ 076   ----------------------------------------
musicFEFatesDesireBelow_0_76:
        .byte           N12   , Fs4 , v026
        .byte           N24   , Bn3
        .byte           N24   , Cs3 , v031
        .byte           N44   , Dn2 , v026 , gtp3
        .byte   W12
        .byte           N12   , En4
        .byte   W12
        .byte                   En4
        .byte           N24   , Fs3
        .byte           N23   , An2 , v029
        .byte   W12
        .byte           N12   , Fs4 , v026
        .byte   W12
        .byte   PEND
@ 077   ----------------------------------------
musicFEFatesDesireBelow_0_77:
        .byte           N24   , Cs4 , v026
        .byte           N24   , Fs3
        .byte           N24   , As2 , v031
        .byte           N24   , Fs2
        .byte   W24
        .byte                   En3 , v026
        .byte   W24
        .byte   PEND
@ 078   ----------------------------------------
musicFEFatesDesireBelow_0_78:
        .byte           N24   , Ds4 , v026
        .byte           N24   , Ds3
        .byte           N44   , Bn2 , v026 , gtp3
        .byte           N24   , Gs2 , v031
        .byte   W24
        .byte           N12   , Cs4 , v026
        .byte           N24   , En3
        .byte           N23   , Gn2 , v029
        .byte   W12
        .byte           N12   , Ds4 , v026
        .byte   W12
        .byte   PEND
@ 079   ----------------------------------------
musicFEFatesDesireBelow_0_79:
        .byte           N48   , Gs3 , v026
        .byte           N24   , En3
        .byte           N24   , As2 , v031
        .byte           N24   , Fs2
        .byte   W24
        .byte                   Cs3 , v026
        .byte           N23   , An2 , v029
        .byte           N23   , Fn2
        .byte   W24
        .byte   PEND
@ 080   ----------------------------------------
musicFEFatesDesireBelow_0_80:
        .byte           N12   , Gs3 , v026
        .byte           N24   , Ds3
        .byte           N24   , Gs2 , v031
        .byte           N24   , En2
        .byte   W12
        .byte           N12   , Fs3 , v026
        .byte   W12
        .byte                   Fs3
        .byte           N24   , Cs3
        .byte           N23   , Fs2 , v029
        .byte           N23   , Dn2
        .byte   W12
        .byte           N12   , Gs3 , v026
        .byte   W12
        .byte   PEND
@ 081   ----------------------------------------
musicFEFatesDesireBelow_0_81:
        .byte           N24   , Ds3 , v026
        .byte           N24   , Bn2
        .byte           N24   , Fn2 , v031
        .byte           N24   , Cs2
        .byte   W24
        .byte           N12   , Cs4 , v026
        .byte   W12
        .byte                   Ds4
        .byte   W12
        .byte   PEND
@ 082   ----------------------------------------
musicFEFatesDesireBelow_0_82:
        .byte           N24   , Ds4 , v026
        .byte   W24
        .byte           N12   , Cs4
        .byte           N24   , An3
        .byte           N23   , Ds3 , v029
        .byte           N23   , Bn2
        .byte   W12
        .byte           N12   , Ds4 , v026
        .byte   W12
        .byte   PEND
@ 083   ----------------------------------------
musicFEFatesDesireBelow_0_83:
        .byte           N24   , Gs4 , v026
        .byte           N48   , Bn3
        .byte           N44   , Fn3 , v026 , gtp3
        .byte                   Cs3
        .byte   W24
        .byte           N12   , Ds4
        .byte   W12
        .byte                   Cs4
        .byte   W12
        .byte   PEND
@ 084   ----------------------------------------
musicFEFatesDesireBelow_0_84:
        .byte           N12   , Ds4 , v026
        .byte   W12
        .byte                   Cs4
        .byte   W12
        .byte                   Cs4
        .byte           N24   , Ds3
        .byte           N23   , An2 , v029
        .byte           N23   , Bn1 , v028
        .byte   W12
        .byte           N12   , Ds4 , v026
        .byte   W12
        .byte   PEND
@ 085   ----------------------------------------
musicFEFatesDesireBelow_0_85:
        .byte           N24   , Gs3 , v026
        .byte           N48   , Fn3
        .byte           N44   , Bn2 , v026 , gtp3
        .byte                   Cs2
        .byte   W24
        .byte           N12   , Cs3
        .byte   W12
        .byte                   Ds3
        .byte   W12
        .byte   PEND
@ 086   ----------------------------------------
musicFEFatesDesireBelow_0_86:
        .byte           N24   , Ds3 , v026
        .byte   W24
        .byte           N12   , Cs3
        .byte           N24   , An2
        .byte           N23   , Ds2 , v029
        .byte           N23   , Fn1 , v027
        .byte   W12
        .byte           N12   , Ds3 , v026
        .byte   W12
        .byte   PEND
@ 087   ----------------------------------------
musicFEFatesDesireBelow_0_87:
        .byte           N24   , Gs3 , v026
        .byte           N48   , Bn2
        .byte           N44   , Fn2 , v026 , gtp3
        .byte                   Gn1 , v024
        .byte   W24
        .byte           N12   , Ds3 , v026
        .byte   W12
        .byte                   Cs3
        .byte   W12
        .byte   PEND
@ 088   ----------------------------------------
musicFEFatesDesireBelow_0_88:
        .byte           N12   , Ds3 , v026
        .byte   W12
        .byte                   Cs3
        .byte   W12
        .byte                   Cs3
        .byte           N23   , Gn2 , v029
        .byte           N24   , Cn2 , v019
        .byte   W12
        .byte           N12   , Ds3 , v026
        .byte   W12
        .byte   PEND
@ 089   ----------------------------------------
        .byte   PATT
         .word  musicFEFatesDesireBelow_0_2
@ 090   ----------------------------------------
        .byte   PATT
         .word  musicFEFatesDesireBelow_0_1
@ 091   ----------------------------------------
        .byte   PATT
         .word  musicFEFatesDesireBelow_0_2
@ 092   ----------------------------------------
        .byte   PATT
         .word  musicFEFatesDesireBelow_0_3
@ 093   ----------------------------------------
        .byte   PATT
         .word  musicFEFatesDesireBelow_0_4
@ 094   ----------------------------------------
        .byte   PATT
         .word  musicFEFatesDesireBelow_0_5
@ 095   ----------------------------------------
        .byte   PATT
         .word  musicFEFatesDesireBelow_0_6
@ 096   ----------------------------------------
        .byte   PATT
         .word  musicFEFatesDesireBelow_0_7
@ 097   ----------------------------------------
        .byte   PATT
         .word  musicFEFatesDesireBelow_0_8
@ 098   ----------------------------------------
        .byte   PATT
         .word  musicFEFatesDesireBelow_0_9
@ 099   ----------------------------------------
        .byte   PATT
         .word  musicFEFatesDesireBelow_0_10
@ 100   ----------------------------------------
        .byte   PATT
         .word  musicFEFatesDesireBelow_0_11
@ 101   ----------------------------------------
        .byte   PATT
         .word  musicFEFatesDesireBelow_0_12
@ 102   ----------------------------------------
        .byte   PATT
         .word  musicFEFatesDesireBelow_0_13
@ 103   ----------------------------------------
        .byte   PATT
         .word  musicFEFatesDesireBelow_0_14
@ 104   ----------------------------------------
        .byte   PATT
         .word  musicFEFatesDesireBelow_0_15
@ 105   ----------------------------------------
        .byte   PATT
         .word  musicFEFatesDesireBelow_0_16
@ 106   ----------------------------------------
        .byte   PATT
         .word  musicFEFatesDesireBelow_0_17
@ 107   ----------------------------------------
        .byte   PATT
         .word  musicFEFatesDesireBelow_0_18
@ 108   ----------------------------------------
        .byte   PATT
         .word  musicFEFatesDesireBelow_0_19
@ 109   ----------------------------------------
        .byte   PATT
         .word  musicFEFatesDesireBelow_0_20
@ 110   ----------------------------------------
        .byte   PATT
         .word  musicFEFatesDesireBelow_0_21
@ 111   ----------------------------------------
        .byte   PATT
         .word  musicFEFatesDesireBelow_0_22
@ 112   ----------------------------------------
        .byte   PATT
         .word  musicFEFatesDesireBelow_0_23
@ 113   ----------------------------------------
        .byte   PATT
         .word  musicFEFatesDesireBelow_0_23
@ 114   ----------------------------------------
        .byte   PATT
         .word  musicFEFatesDesireBelow_0_25
@ 115   ----------------------------------------
        .byte   PATT
         .word  musicFEFatesDesireBelow_0_26
@ 116   ----------------------------------------
        .byte   PATT
         .word  musicFEFatesDesireBelow_0_27
@ 117   ----------------------------------------
        .byte   PATT
         .word  musicFEFatesDesireBelow_0_28
@ 118   ----------------------------------------
        .byte   PATT
         .word  musicFEFatesDesireBelow_0_29
@ 119   ----------------------------------------
        .byte   PATT
         .word  musicFEFatesDesireBelow_0_30
@ 120   ----------------------------------------
        .byte   PATT
         .word  musicFEFatesDesireBelow_0_31
@ 121   ----------------------------------------
        .byte   PATT
         .word  musicFEFatesDesireBelow_0_32
@ 122   ----------------------------------------
        .byte   PATT
         .word  musicFEFatesDesireBelow_0_33
@ 123   ----------------------------------------
        .byte   PATT
         .word  musicFEFatesDesireBelow_0_34
@ 124   ----------------------------------------
        .byte   PATT
         .word  musicFEFatesDesireBelow_0_35
@ 125   ----------------------------------------
        .byte   PATT
         .word  musicFEFatesDesireBelow_0_36
@ 126   ----------------------------------------
        .byte   PATT
         .word  musicFEFatesDesireBelow_0_37
@ 127   ----------------------------------------
        .byte   PATT
         .word  musicFEFatesDesireBelow_0_38
@ 128   ----------------------------------------
        .byte   PATT
         .word  musicFEFatesDesireBelow_0_39
@ 129   ----------------------------------------
        .byte   PATT
         .word  musicFEFatesDesireBelow_0_40
@ 130   ----------------------------------------
        .byte   PATT
         .word  musicFEFatesDesireBelow_0_41
@ 131   ----------------------------------------
        .byte   PATT
         .word  musicFEFatesDesireBelow_0_42
@ 132   ----------------------------------------
        .byte   PATT
         .word  musicFEFatesDesireBelow_0_43
@ 133   ----------------------------------------
        .byte   PATT
         .word  musicFEFatesDesireBelow_0_44
@ 134   ----------------------------------------
        .byte   PATT
         .word  musicFEFatesDesireBelow_0_45
@ 135   ----------------------------------------
        .byte   PATT
         .word  musicFEFatesDesireBelow_0_46
@ 136   ----------------------------------------
        .byte   PATT
         .word  musicFEFatesDesireBelow_0_47
@ 137   ----------------------------------------
        .byte   PATT
         .word  musicFEFatesDesireBelow_0_48
@ 138   ----------------------------------------
        .byte   PATT
         .word  musicFEFatesDesireBelow_0_49
@ 139   ----------------------------------------
        .byte   PATT
         .word  musicFEFatesDesireBelow_0_50
@ 140   ----------------------------------------
        .byte   PATT
         .word  musicFEFatesDesireBelow_0_51
@ 141   ----------------------------------------
        .byte   PATT
         .word  musicFEFatesDesireBelow_0_52
@ 142   ----------------------------------------
        .byte   PATT
         .word  musicFEFatesDesireBelow_0_53
@ 143   ----------------------------------------
        .byte   PATT
         .word  musicFEFatesDesireBelow_0_54
@ 144   ----------------------------------------
        .byte   PATT
         .word  musicFEFatesDesireBelow_0_55
@ 145   ----------------------------------------
        .byte   PATT
         .word  musicFEFatesDesireBelow_0_56
@ 146   ----------------------------------------
        .byte   PATT
         .word  musicFEFatesDesireBelow_0_57
@ 147   ----------------------------------------
        .byte   PATT
         .word  musicFEFatesDesireBelow_0_58
@ 148   ----------------------------------------
        .byte   PATT
         .word  musicFEFatesDesireBelow_0_59
@ 149   ----------------------------------------
        .byte   PATT
         .word  musicFEFatesDesireBelow_0_60
@ 150   ----------------------------------------
        .byte   PATT
         .word  musicFEFatesDesireBelow_0_61
@ 151   ----------------------------------------
        .byte   PATT
         .word  musicFEFatesDesireBelow_0_62
@ 152   ----------------------------------------
        .byte   PATT
         .word  musicFEFatesDesireBelow_0_63
@ 153   ----------------------------------------
        .byte   PATT
         .word  musicFEFatesDesireBelow_0_64
@ 154   ----------------------------------------
        .byte   PATT
         .word  musicFEFatesDesireBelow_0_65
@ 155   ----------------------------------------
        .byte   PATT
         .word  musicFEFatesDesireBelow_0_66
@ 156   ----------------------------------------
        .byte   PATT
         .word  musicFEFatesDesireBelow_0_67
@ 157   ----------------------------------------
        .byte   PATT
         .word  musicFEFatesDesireBelow_0_68
@ 158   ----------------------------------------
        .byte   PATT
         .word  musicFEFatesDesireBelow_0_69
@ 159   ----------------------------------------
        .byte   PATT
         .word  musicFEFatesDesireBelow_0_70
@ 160   ----------------------------------------
        .byte   PATT
         .word  musicFEFatesDesireBelow_0_71
@ 161   ----------------------------------------
        .byte   PATT
         .word  musicFEFatesDesireBelow_0_72
@ 162   ----------------------------------------
        .byte   PATT
         .word  musicFEFatesDesireBelow_0_73
@ 163   ----------------------------------------
        .byte   PATT
         .word  musicFEFatesDesireBelow_0_74
@ 164   ----------------------------------------
        .byte   PATT
         .word  musicFEFatesDesireBelow_0_75
@ 165   ----------------------------------------
        .byte   PATT
         .word  musicFEFatesDesireBelow_0_76
@ 166   ----------------------------------------
        .byte   PATT
         .word  musicFEFatesDesireBelow_0_77
@ 167   ----------------------------------------
        .byte   PATT
         .word  musicFEFatesDesireBelow_0_78
@ 168   ----------------------------------------
        .byte   PATT
         .word  musicFEFatesDesireBelow_0_79
@ 169   ----------------------------------------
        .byte   PATT
         .word  musicFEFatesDesireBelow_0_80
@ 170   ----------------------------------------
        .byte   PATT
         .word  musicFEFatesDesireBelow_0_81
@ 171   ----------------------------------------
        .byte   PATT
         .word  musicFEFatesDesireBelow_0_82
@ 172   ----------------------------------------
        .byte   PATT
         .word  musicFEFatesDesireBelow_0_83
@ 173   ----------------------------------------
        .byte   PATT
         .word  musicFEFatesDesireBelow_0_84
@ 174   ----------------------------------------
        .byte   PATT
         .word  musicFEFatesDesireBelow_0_85
@ 175   ----------------------------------------
        .byte   PATT
         .word  musicFEFatesDesireBelow_0_86
@ 176   ----------------------------------------
        .byte   PATT
         .word  musicFEFatesDesireBelow_0_87
@ 177   ----------------------------------------
        .byte   PATT
         .word  musicFEFatesDesireBelow_0_88
@ 178   ----------------------------------------
        .byte   FINE

@****************** Track 1 (Midi-Chn.1) ******************@

musicFEFatesDesireBelow_1:
        .byte   KEYSH , musicFEFatesDesireBelow_key+0
@ 000   ----------------------------------------
        .byte           VOICE , 0
        .byte           VOL   , 88
        .byte           N04   , Fn1 , v076
        .byte   W05
        .byte           N03   , Cn2 , v069
        .byte   W03
        .byte           N04   , Fn2
        .byte   W04
        .byte                   Gn2
        .byte   W04
        .byte                   Gs2
        .byte   W04
        .byte                   As2
        .byte   W04
        .byte                   Cn3 , v070
        .byte   W04
        .byte                   Dn3 , v069
        .byte   W04
        .byte                   Ds3
        .byte   W04
        .byte                   En3
        .byte   W04
        .byte                   Fn3
        .byte   W04
        .byte                   Gn3
        .byte   W03
        .byte           VOL   , 100
        .byte   W01
        .byte           N18   , Gs3 , v073
        .byte           N04   , As1
        .byte   W04
        .byte                   Fn2 , v069
        .byte   W04
        .byte                   Gs2
        .byte   W04
        .byte                   Cn3
        .byte   W04
        .byte           N03   , Cs3
        .byte   W04
        .byte           N04   , Gs3
        .byte   W04
        .byte           N17   , Fs3 , v070
        .byte           N04   , Gs1
        .byte   W04
        .byte           N03   , Ds2 , v069
        .byte   W04
        .byte                   Fs2
        .byte   W04
        .byte                   As2
        .byte   W03
        .byte           N04   , Bn2
        .byte   W04
        .byte                   Fs3
        .byte   W05
@ 001   ----------------------------------------
musicFEFatesDesireBelow_1_1:
        .byte           N44   , Fn3 , v076
        .byte           N04   , Fn1
        .byte   W05
        .byte           N03   , Cn2 , v069
        .byte   W03
        .byte           N04   , Fn2
        .byte   W04
        .byte                   Gn2
        .byte   W04
        .byte                   Gs2
        .byte   W04
        .byte                   As2
        .byte   W04
        .byte                   Cn3 , v070
        .byte   W04
        .byte                   Dn3 , v069
        .byte   W04
        .byte                   Ds3
        .byte   W04
        .byte                   En3
        .byte   W04
        .byte           N08   , Fn3
        .byte   W04
        .byte           N04   , Gn3
        .byte   W04
        .byte           N18   , Gs3 , v073
        .byte           N04   , Fs1
        .byte   W04
        .byte                   Cs2 , v069
        .byte   W04
        .byte                   Gs2
        .byte   W04
        .byte                   Cn3
        .byte   W04
        .byte           N03   , Cs3
        .byte   W04
        .byte           N04   , Gs3
        .byte   W04
        .byte           N17   , Cs4 , v070
        .byte           N04   , Ds2
        .byte   W04
        .byte           N03   , As2 , v069
        .byte   W04
        .byte                   Cs3
        .byte   W04
        .byte                   Fn3
        .byte   W03
        .byte           N04   , Fs3
        .byte   W04
        .byte                   Cs4
        .byte   W05
        .byte   PEND
@ 002   ----------------------------------------
musicFEFatesDesireBelow_1_2:
        .byte           N48   , Cn4 , v076
        .byte           N04   , Fn1
        .byte   W05
        .byte           N03   , Cn2 , v069
        .byte   W03
        .byte           N04   , Fn2
        .byte   W04
        .byte                   Gn2
        .byte   W04
        .byte                   Gs2
        .byte   W04
        .byte                   As2
        .byte   W04
        .byte                   Cn3 , v070
        .byte   W04
        .byte                   Dn3 , v069
        .byte   W04
        .byte                   Ds3
        .byte   W04
        .byte                   En3
        .byte   W04
        .byte                   Fn3
        .byte   W04
        .byte                   Gn3
        .byte   W04
        .byte           N18   , Gs3 , v073
        .byte           N04   , As1
        .byte   W04
        .byte                   Fn2 , v069
        .byte   W04
        .byte                   Gs2
        .byte   W04
        .byte                   Cn3
        .byte   W04
        .byte           N03   , Cs3
        .byte   W04
        .byte           N04   , Gs3
        .byte   W04
        .byte           N17   , Fs3 , v070
        .byte           N04   , Gs1
        .byte   W04
        .byte           N03   , Ds2 , v069
        .byte   W04
        .byte                   Fs2
        .byte   W04
        .byte                   As2
        .byte   W03
        .byte           N04   , Bn2
        .byte   W04
        .byte                   Fs3
        .byte   W05
        .byte   PEND
@ 003   ----------------------------------------
musicFEFatesDesireBelow_1_3:
        .byte           N48   , Fn3 , v076
        .byte           N04   , Gn1
        .byte   W05
        .byte           N03   , Dn2 , v069
        .byte   W03
        .byte           N04   , Gn2
        .byte   W04
        .byte                   An2
        .byte   W04
        .byte                   As2
        .byte   W04
        .byte                   Cn3
        .byte   W04
        .byte                   Dn3 , v070
        .byte   W04
        .byte                   An2 , v069
        .byte   W04
        .byte                   As2
        .byte   W04
        .byte                   Dn3
        .byte   W04
        .byte                   Gn3
        .byte   W04
        .byte                   An3
        .byte   W04
        .byte                   As3 , v073
        .byte           N24   , Cs2
        .byte   W04
        .byte           N04   , Gs3 , v069
        .byte   W04
        .byte                   Fn3
        .byte   W04
        .byte                   Cn3
        .byte   W04
        .byte           N03   , Ds3
        .byte   W04
        .byte           N04   , Gs2
        .byte   W04
        .byte                   Fs3 , v070
        .byte           N23   , Cn2
        .byte   W04
        .byte           N03   , En3 , v069
        .byte   W04
        .byte                   Cs3
        .byte   W04
        .byte                   Gn2
        .byte   W03
        .byte           N04   , As2
        .byte   W04
        .byte                   En2
        .byte   W05
        .byte   PEND
@ 004   ----------------------------------------
musicFEFatesDesireBelow_1_4:
        .byte           N12   , Fn2 , v065
        .byte           N20   , Gs2 , v084
        .byte           N04   , Fn1 , v076
        .byte   W05
        .byte           N03   , Cn2 , v069
        .byte   W03
        .byte           N40   , Fn2
        .byte   W04
        .byte           N04   , Gn2
        .byte   W04
        .byte           N32   , Gs2
        .byte   W04
        .byte           N04   , As2
        .byte   W04
        .byte                   Cn3 , v070
        .byte   W04
        .byte                   Dn3 , v069
        .byte   W04
        .byte                   Ds3
        .byte   W04
        .byte                   En3
        .byte   W04
        .byte                   Fn3
        .byte   W04
        .byte                   Gn3
        .byte   W04
        .byte           N18   , Gs3 , v073
        .byte           N19   , Cs3
        .byte           N04   , As1
        .byte   W04
        .byte                   Fn2 , v069
        .byte   W04
        .byte                   Gs2
        .byte   W04
        .byte                   Cn3
        .byte   W04
        .byte           N08   , Cs3
        .byte   W04
        .byte           N04   , Gs3
        .byte   W04
        .byte           N17   , Fs3 , v070
        .byte           N19   , Bn2
        .byte           N04   , Gs1
        .byte   W04
        .byte           N03   , Ds2 , v069
        .byte   W04
        .byte                   Fs2
        .byte   W04
        .byte                   As2
        .byte   W03
        .byte           N08   , Bn2
        .byte   W04
        .byte           N04   , Fs3
        .byte   W05
        .byte   PEND
@ 005   ----------------------------------------
musicFEFatesDesireBelow_1_5:
        .byte           N28   , Cn3 , v076
        .byte           N04   , Fn1
        .byte   W05
        .byte           N03   , Cn2 , v069
        .byte   W03
        .byte           N04   , Fn2
        .byte   W04
        .byte                   Gn2
        .byte   W04
        .byte                   Gs2
        .byte   W04
        .byte                   As2
        .byte   W04
        .byte           N24   , Cn3 , v070
        .byte   W04
        .byte           N04   , Dn3 , v069
        .byte   W04
        .byte                   Ds3
        .byte   W04
        .byte                   En3
        .byte   W04
        .byte                   Fn3
        .byte   W04
        .byte                   Gn3
        .byte   W04
        .byte           N18   , Gs3 , v073
        .byte           N24   , Ds3
        .byte           N04   , Fs1
        .byte   W04
        .byte                   Cs2 , v069
        .byte   W04
        .byte                   Gs2
        .byte   W04
        .byte                   Cn3
        .byte   W04
        .byte           N03   , Cs3
        .byte   W04
        .byte           N04   , Gs3
        .byte   W04
        .byte           N17   , Cs4 , v070
        .byte           N11   , Cs3
        .byte           N04   , Ds2
        .byte   W04
        .byte           N03   , As2 , v069
        .byte   W04
        .byte           N15   , Cs3
        .byte   W04
        .byte           N03   , Fn3
        .byte   W03
        .byte           N04   , Fs3
        .byte   W04
        .byte                   Cn4
        .byte   W05
        .byte   PEND
@ 006   ----------------------------------------
musicFEFatesDesireBelow_1_6:
        .byte           N28   , Cn3 , v076
        .byte           N04   , Fn1
        .byte   W05
        .byte           N03   , Cn2 , v069
        .byte   W03
        .byte           N04   , Fn2
        .byte   W04
        .byte                   Gn2
        .byte   W04
        .byte                   Gs2
        .byte   W04
        .byte                   As2
        .byte   W04
        .byte           N24   , Cn3 , v070
        .byte   W04
        .byte           N04   , Dn3 , v069
        .byte   W04
        .byte                   Ds3
        .byte   W04
        .byte                   En3
        .byte   W04
        .byte                   Fn3
        .byte   W04
        .byte                   Gn3
        .byte   W04
        .byte           N18   , Gs3 , v073
        .byte           N16   , Cn3
        .byte           N04   , As1
        .byte   W04
        .byte                   Fn2 , v069
        .byte   W04
        .byte                   Gs2
        .byte   W04
        .byte           N12   , Cn3
        .byte   W04
        .byte           N03   , Cs3
        .byte   W04
        .byte           N04   , Gs3
        .byte   W04
        .byte           N17   , Fs3 , v070
        .byte           N19   , Bn2
        .byte           N04   , Gs1
        .byte   W04
        .byte           N03   , Ds2 , v069
        .byte   W04
        .byte                   Fs2
        .byte   W04
        .byte                   As2
        .byte   W03
        .byte           N08   , Bn2
        .byte   W04
        .byte           N04   , Fs3
        .byte   W05
        .byte   PEND
@ 007   ----------------------------------------
musicFEFatesDesireBelow_1_7:
        .byte           N18   , Fn3 , v076
        .byte           N20   , As2
        .byte           N04   , Gn1
        .byte   W05
        .byte           N03   , Dn2 , v069
        .byte   W03
        .byte           N04   , Gn2
        .byte   W04
        .byte                   An2
        .byte   W04
        .byte           N08   , As2
        .byte   W04
        .byte           N04   , Fn3
        .byte   W04
        .byte           N18   , Dn3 , v070
        .byte           N24   , Bn2
        .byte           N04   , En1 , v069
        .byte   W04
        .byte                   Bn1
        .byte   W04
        .byte                   En2
        .byte   W04
        .byte                   Fs2
        .byte   W04
        .byte                   Gn2
        .byte   W04
        .byte                   Dn3
        .byte   W04
        .byte           N18   , En3 , v073
        .byte           N16   , Gs2
        .byte           N04   , Fs1
        .byte   W04
        .byte                   Cs2 , v069
        .byte   W04
        .byte                   Fs2
        .byte   W04
        .byte           N12   , Gs2
        .byte   W04
        .byte           N03   , An2
        .byte   W04
        .byte           N04   , En3
        .byte   W04
        .byte           N17   , Cs3 , v070
        .byte           N19   , Fs2
        .byte           N04   , Dn1 , v069
        .byte   W04
        .byte           N03   , An1
        .byte   W04
        .byte                   Dn2
        .byte   W04
        .byte                   En2
        .byte   W03
        .byte           N08   , Fs2
        .byte   W04
        .byte           N04   , Cs3
        .byte   W05
        .byte   PEND
@ 008   ----------------------------------------
musicFEFatesDesireBelow_1_8:
        .byte           N12   , Fn2 , v065
        .byte           N20   , Cn3 , v084
        .byte           N04   , Cs2 , v076
        .byte   W05
        .byte           N03   , Ds2 , v069
        .byte   W03
        .byte           N40   , Fn2
        .byte   W04
        .byte           N04   , As2
        .byte   W04
        .byte           N24   , Cn3
        .byte   W04
        .byte           N04   , Fn3
        .byte   W04
        .byte                   Gn3 , v070
        .byte   W04
        .byte                   Gn2 , v069
        .byte   W04
        .byte                   As2
        .byte   W04
        .byte           N12   , Cn3
        .byte   W04
        .byte           N04   , Fn3
        .byte   W04
        .byte                   Gn3
        .byte   W04
        .byte           N44   , Fn4 , v073 , gtp3
        .byte           N04   , Cs2
        .byte   W04
        .byte                   Ds2 , v069
        .byte   W04
        .byte                   Fn2
        .byte   W04
        .byte                   As2
        .byte   W04
        .byte           N03   , Cn3
        .byte   W04
        .byte           N04   , Fn3
        .byte   W04
        .byte                   Gn3 , v070
        .byte   W04
        .byte           N03   , Gn2 , v069
        .byte   W04
        .byte                   As2
        .byte   W04
        .byte                   Cn3
        .byte   W03
        .byte           N04   , Fn3
        .byte   W04
        .byte                   Gn3
        .byte   W05
        .byte   PEND
@ 009   ----------------------------------------
musicFEFatesDesireBelow_1_9:
        .byte           N24   , Fn4 , v076
        .byte           N04   , As1
        .byte   W05
        .byte           N03   , Ds2 , v069
        .byte   W03
        .byte           N04   , Fn2
        .byte   W04
        .byte                   As2
        .byte   W04
        .byte                   Cn3
        .byte   W04
        .byte                   Fn3
        .byte   W04
        .byte           N24   , Gn4 , v070
        .byte           N04   , Gn3
        .byte   W04
        .byte                   Gn2 , v069
        .byte   W04
        .byte                   As2
        .byte   W04
        .byte                   Cn3
        .byte   W04
        .byte                   Fn3
        .byte   W04
        .byte                   Gn3
        .byte   W04
        .byte           N24   , Gs4 , v073
        .byte           N04   , As1
        .byte   W04
        .byte                   Ds2 , v069
        .byte   W04
        .byte                   Fn2
        .byte   W04
        .byte                   As2
        .byte   W04
        .byte           N03   , Cn3
        .byte   W04
        .byte           N04   , Fn3
        .byte   W04
        .byte           N23   , As4 , v070
        .byte           N04   , Gn3
        .byte   W04
        .byte           N03   , Gn2 , v069
        .byte   W04
        .byte                   As2
        .byte   W04
        .byte                   Cn3
        .byte   W03
        .byte           N04   , Fn3
        .byte   W04
        .byte                   Gn3
        .byte   W05
        .byte   PEND
@ 010   ----------------------------------------
musicFEFatesDesireBelow_1_10:
        .byte           N24   , Cn5 , v076
        .byte           N04   , Cs2
        .byte   W05
        .byte           N03   , Ds2 , v069
        .byte   W03
        .byte           N04   , Fn2
        .byte   W04
        .byte                   As2
        .byte   W04
        .byte                   Cn3
        .byte   W04
        .byte                   Fn3
        .byte   W04
        .byte           N24   , Fn4 , v070
        .byte           N04   , Gn3
        .byte   W04
        .byte                   Gn2 , v069
        .byte   W04
        .byte                   As2
        .byte   W04
        .byte                   Cn3
        .byte   W04
        .byte                   Fn3
        .byte   W04
        .byte                   Gn3
        .byte   W04
        .byte           N24   , Ds5 , v073
        .byte           N04   , Cs2
        .byte   W04
        .byte                   Ds2 , v069
        .byte   W04
        .byte                   Fn2
        .byte   W04
        .byte                   As2
        .byte   W04
        .byte           N03   , Cn3
        .byte   W04
        .byte           N04   , Fn3
        .byte   W04
        .byte           N07   , Cs5 , v070
        .byte           N04   , Gn3
        .byte   W04
        .byte           N03   , Gn2 , v069
        .byte   W04
        .byte           N07   , Cn5
        .byte           N03   , As2
        .byte   W04
        .byte                   Cn3
        .byte   W03
        .byte           N08   , Bn4
        .byte           N04   , Fn3
        .byte   W04
        .byte                   Gn3
        .byte   W05
        .byte   PEND
@ 011   ----------------------------------------
musicFEFatesDesireBelow_1_11:
        .byte           N24   , Cn5 , v076
        .byte           N04   , As1
        .byte   W05
        .byte           N03   , Ds2 , v069
        .byte   W03
        .byte           N04   , Fn2
        .byte   W04
        .byte                   As2
        .byte   W04
        .byte                   Cn3
        .byte   W04
        .byte                   Fn3
        .byte   W04
        .byte           N48   , Fn4 , v070
        .byte           N04   , Gn3
        .byte   W04
        .byte                   Gn2 , v069
        .byte   W04
        .byte                   As2
        .byte   W04
        .byte                   Cn3
        .byte   W04
        .byte                   Fn3
        .byte   W04
        .byte                   Gn3
        .byte   W04
        .byte                   As1 , v073
        .byte   W04
        .byte                   Ds2 , v069
        .byte   W04
        .byte                   Fn2
        .byte   W04
        .byte                   As2
        .byte   W04
        .byte           N03   , Cn3
        .byte   W04
        .byte           N04   , Fn3
        .byte   W04
        .byte           N23   , As4 , v070
        .byte           N04   , Gn3
        .byte   W04
        .byte           N03   , Gn2 , v069
        .byte   W04
        .byte                   As2
        .byte   W04
        .byte                   Cn3
        .byte   W03
        .byte           N04   , Fn3
        .byte   W04
        .byte                   Gn3
        .byte   W05
        .byte   PEND
@ 012   ----------------------------------------
musicFEFatesDesireBelow_1_12:
        .byte           N44   , Gs4 , v069 , gtp3
        .byte           N24   , Fn4 , v076
        .byte           N04   , Fs1
        .byte   W05
        .byte           N03   , Gs1 , v069
        .byte   W03
        .byte           N04   , As1
        .byte   W04
        .byte                   Ds2
        .byte   W04
        .byte                   Fn2
        .byte   W04
        .byte                   As2
        .byte   W04
        .byte           N11   , Ds4 , v070
        .byte           N04   , Cn3
        .byte   W04
        .byte                   Cn2 , v069
        .byte   W04
        .byte                   Ds2
        .byte   W04
        .byte           N56   , Gs4 , v069 , gtp3
        .byte           N04   , Fn2
        .byte   W04
        .byte                   As2
        .byte   W04
        .byte                   Cn3
        .byte   W04
        .byte           N24   , Fn4 , v073
        .byte           N04   , Fs1
        .byte   W04
        .byte                   Gs1 , v069
        .byte   W04
        .byte                   As1
        .byte   W04
        .byte                   Ds2
        .byte   W04
        .byte           N03   , Fn2
        .byte   W04
        .byte           N04   , As2
        .byte   W04
        .byte           N11   , Ds4 , v070
        .byte           N04   , Cn3
        .byte   W04
        .byte           N03   , Cn2 , v069
        .byte   W04
        .byte                   Ds2
        .byte   W04
        .byte           N11   , Gs4
        .byte           N03   , Fn2
        .byte   W03
        .byte           N04   , As2
        .byte   W04
        .byte                   Cn3
        .byte   W05
        .byte   PEND
@ 013   ----------------------------------------
musicFEFatesDesireBelow_1_13:
        .byte           N92   , Fn4 , v069 , gtp3
        .byte           N24   , As3 , v076
        .byte           N04   , Cn2
        .byte   W05
        .byte           N03   , Gs1 , v069
        .byte   W03
        .byte           N04   , As1
        .byte   W04
        .byte                   Ds2
        .byte   W04
        .byte                   Fn2
        .byte   W04
        .byte                   As2
        .byte   W04
        .byte           N11   , Gs3 , v070
        .byte           N04   , Cn3
        .byte   W04
        .byte                   Cn2 , v069
        .byte   W04
        .byte                   Ds2
        .byte   W04
        .byte           N11   , Ds4
        .byte           N04   , Fn2
        .byte   W04
        .byte                   As2
        .byte   W04
        .byte                   Cn3
        .byte   W04
        .byte           N24   , As3 , v073
        .byte           N04   , Cn2
        .byte   W04
        .byte                   Gs1 , v069
        .byte   W04
        .byte                   As1
        .byte   W04
        .byte                   Ds2
        .byte   W04
        .byte           N03   , Fn2
        .byte   W04
        .byte           N04   , As2
        .byte   W04
        .byte           N11   , Gs3 , v070
        .byte           N04   , Cn3
        .byte   W04
        .byte           N03   , Cn2 , v069
        .byte   W04
        .byte                   Ds2
        .byte   W04
        .byte           N11   , Ds4
        .byte           N03   , Fn2
        .byte   W03
        .byte           N04   , As2
        .byte   W04
        .byte                   Cn3
        .byte   W05
        .byte   PEND
@ 014   ----------------------------------------
musicFEFatesDesireBelow_1_14:
        .byte           N24   , Fn4 , v076
        .byte           N92   , As3 , v069 , gtp3
        .byte           N04   , Fs1 , v076
        .byte   W05
        .byte           N03   , Gs1 , v069
        .byte   W03
        .byte           N04   , As1
        .byte   W04
        .byte                   Ds2
        .byte   W04
        .byte                   Fn2
        .byte   W04
        .byte                   As2
        .byte   W04
        .byte           N11   , Ds4 , v070
        .byte           N04   , Cn3
        .byte   W04
        .byte                   Cn2 , v069
        .byte   W04
        .byte                   Ds2
        .byte   W04
        .byte           N11   , Gs4
        .byte           N04   , Fn2
        .byte   W04
        .byte                   As2
        .byte   W04
        .byte                   Cn3
        .byte   W04
        .byte           N24   , Fn4 , v073
        .byte           N04   , Fs1
        .byte   W04
        .byte                   Gs1 , v069
        .byte   W04
        .byte                   As1
        .byte   W04
        .byte                   Ds2
        .byte   W04
        .byte           N03   , Fn2
        .byte   W04
        .byte           N04   , As2
        .byte   W04
        .byte           N11   , Ds4 , v070
        .byte           N04   , Cn3
        .byte   W04
        .byte           N03   , Cn2 , v069
        .byte   W04
        .byte                   Ds2
        .byte   W04
        .byte           N11   , As4
        .byte           N03   , Fn2
        .byte   W03
        .byte           N04   , As2
        .byte   W04
        .byte                   Cn3
        .byte   W05
        .byte   PEND
@ 015   ----------------------------------------
musicFEFatesDesireBelow_1_15:
        .byte           N44   , Fn4 , v069 , gtp3
        .byte           N24   , Dn4 , v076
        .byte           N04   , Gn1
        .byte   W05
        .byte           N03   , An1 , v069
        .byte   W03
        .byte           N04   , As1
        .byte   W04
        .byte                   En2
        .byte   W04
        .byte                   Fn2
        .byte   W04
        .byte                   As2
        .byte   W04
        .byte           N11   , Cn4 , v070
        .byte           N04   , Cn3
        .byte   W04
        .byte                   Cn2 , v069
        .byte   W04
        .byte                   En2
        .byte   W04
        .byte           N56   , Fn4 , v069 , gtp3
        .byte           N04   , Fn2
        .byte   W04
        .byte                   As2
        .byte   W04
        .byte                   Cn3
        .byte   W04
        .byte           N24   , Dn4 , v073
        .byte           N04   , Gn1
        .byte   W04
        .byte                   An1 , v069
        .byte   W04
        .byte                   As1
        .byte   W04
        .byte                   En2
        .byte   W04
        .byte           N03   , Fn2
        .byte   W04
        .byte           N04   , As2
        .byte   W04
        .byte           N11   , Cn4 , v070
        .byte           N04   , Cn3
        .byte   W04
        .byte           N03   , Cn2 , v069
        .byte   W04
        .byte                   Dn2
        .byte   W04
        .byte           N11   , Fn4
        .byte           N03   , Fn2
        .byte   W03
        .byte           N04   , As2
        .byte   W04
        .byte                   Cn3
        .byte   W05
        .byte   PEND
@ 016   ----------------------------------------
musicFEFatesDesireBelow_1_16:
        .byte           N24   , Ds4 , v076
        .byte           N04   , Gs1
        .byte   W05
        .byte           N03   , Fs2 , v069
        .byte   W03
        .byte           N04   , Gs2
        .byte   W04
        .byte                   Cs3
        .byte   W04
        .byte                   Ds3
        .byte   W04
        .byte                   Gs3
        .byte   W04
        .byte           N11   , Cs4 , v070
        .byte           N04   , As3
        .byte   W04
        .byte                   Bn2 , v069
        .byte   W04
        .byte                   Ds3
        .byte   W04
        .byte           N23   , As4
        .byte           N04   , Fs3
        .byte   W04
        .byte                   Gs3
        .byte   W04
        .byte                   As3
        .byte   W04
        .byte                   Gs2 , v073
        .byte   W04
        .byte                   Fs2 , v069
        .byte   W04
        .byte                   Gs2
        .byte   W04
        .byte           N24   , Ds4
        .byte           N04   , Cs3
        .byte   W04
        .byte           N03   , Ds3
        .byte   W04
        .byte           N04   , Gs3
        .byte   W04
        .byte                   As3 , v070
        .byte   W04
        .byte           N03   , As2 , v069
        .byte   W04
        .byte                   Cs3
        .byte   W04
        .byte           N11   , Cs4
        .byte           N03   , Fs3
        .byte   W03
        .byte           N04   , Gs3
        .byte   W04
        .byte                   As3
        .byte   W05
        .byte   PEND
@ 017   ----------------------------------------
musicFEFatesDesireBelow_1_17:
        .byte           N24   , Ds4 , v076
        .byte           N04   , En2
        .byte   W05
        .byte           N03   , Fs2 , v069
        .byte   W03
        .byte           N04   , Gs2
        .byte   W04
        .byte                   Cs3
        .byte   W04
        .byte                   Ds3
        .byte   W04
        .byte                   Fs3
        .byte   W04
        .byte           N24   , Gs4 , v070
        .byte           N04   , As3
        .byte   W04
        .byte                   Bn2 , v069
        .byte   W04
        .byte                   Cs3
        .byte   W04
        .byte                   Ds3
        .byte   W04
        .byte                   Gs3
        .byte   W04
        .byte                   As3
        .byte   W04
        .byte           N24   , Fs4 , v073
        .byte           N04   , En2
        .byte   W04
        .byte                   Fs2 , v069
        .byte   W04
        .byte                   Gs2
        .byte   W04
        .byte                   Cs3
        .byte   W04
        .byte           N03   , Ds3
        .byte   W04
        .byte           N04   , Gs3
        .byte   W04
        .byte           N07   , En4 , v070
        .byte           N04   , As3
        .byte   W04
        .byte           N03   , As2 , v069
        .byte   W04
        .byte           N07   , Fs4
        .byte           N03   , Cs3
        .byte   W04
        .byte                   Ds3
        .byte   W03
        .byte           N08   , En4
        .byte           N04   , Gs3
        .byte   W04
        .byte                   As3
        .byte   W05
        .byte   PEND
@ 018   ----------------------------------------
musicFEFatesDesireBelow_1_18:
        .byte           N36   , Ds4 , v076
        .byte           N04   , Gs1
        .byte   W05
        .byte           N03   , Fs2 , v069
        .byte   W03
        .byte           N04   , Gs2
        .byte   W04
        .byte                   Cs3
        .byte   W04
        .byte                   Ds3
        .byte   W04
        .byte                   Gs3
        .byte   W04
        .byte                   As3 , v070
        .byte   W04
        .byte                   Bn2 , v069
        .byte   W04
        .byte                   Ds3
        .byte   W04
        .byte           N11   , Gs4
        .byte           N04   , Fs3
        .byte   W04
        .byte                   Gs3
        .byte   W04
        .byte                   As3
        .byte   W04
        .byte           N24   , As4 , v073
        .byte           N04   , Gs2
        .byte   W04
        .byte                   Fs2 , v069
        .byte   W04
        .byte                   Gs2
        .byte   W04
        .byte                   Cs3
        .byte   W04
        .byte           N03   , Ds3
        .byte   W04
        .byte           N04   , Gs3
        .byte   W04
        .byte           N23   , Bn4 , v070
        .byte           N04   , As3
        .byte   W04
        .byte           N03   , As2 , v069
        .byte   W04
        .byte                   Cs3
        .byte   W04
        .byte                   Fs3
        .byte   W03
        .byte           N04   , Gs3
        .byte   W04
        .byte                   As3
        .byte   W05
        .byte   PEND
@ 019   ----------------------------------------
musicFEFatesDesireBelow_1_19:
        .byte           N24   , Cs5 , v076
        .byte           N04   , Fn2
        .byte   W05
        .byte           N03   , Gs2 , v069
        .byte   W03
        .byte           N04   , As2
        .byte   W04
        .byte                   Cs3
        .byte   W04
        .byte                   Ds3
        .byte   W04
        .byte                   Gs3
        .byte   W04
        .byte           N24   , Gs4 , v070
        .byte           N04   , As3
        .byte   W04
        .byte                   As2 , v069
        .byte   W04
        .byte                   Cs3
        .byte   W04
        .byte                   Ds3
        .byte   W04
        .byte                   Gs3
        .byte   W04
        .byte                   As3
        .byte   W04
        .byte           N24   , Ds5 , v073
        .byte           N04   , Fn2
        .byte   W04
        .byte                   Gs2 , v069
        .byte   W04
        .byte                   As2
        .byte   W04
        .byte                   Cs3
        .byte   W04
        .byte           N03   , Ds3
        .byte   W04
        .byte           N08   , Gs3
        .byte   W04
        .byte           N07   , Cs5 , v070
        .byte   W04
        .byte           N03   , As3 , v069
        .byte   W04
        .byte           N07   , Bn4
        .byte           N03   , Gs3
        .byte   W04
        .byte                   Ds3
        .byte   W03
        .byte           N08   , Cs5
        .byte           N04   , Cs3
        .byte   W04
        .byte                   Gs2
        .byte   W05
        .byte   PEND
@ 020   ----------------------------------------
musicFEFatesDesireBelow_1_20:
        .byte           N84   , Gs4 , v069 , gtp3
        .byte           N04   , En2 , v076
        .byte   W05
        .byte           N03   , As2 , v069
        .byte   W03
        .byte           N04   , Bn2
        .byte   W04
        .byte                   Cs3
        .byte   W04
        .byte                   Ds3
        .byte   W04
        .byte                   En3
        .byte   W04
        .byte                   Fs3 , v070
        .byte   W04
        .byte                   Gs2 , v069
        .byte   W04
        .byte                   As2
        .byte   W04
        .byte                   Fs3
        .byte   W04
        .byte                   Gs3
        .byte   W04
        .byte                   En3
        .byte   W04
        .byte                   As3 , v073
        .byte   W04
        .byte                   Bn3 , v069
        .byte   W04
        .byte                   Cs4
        .byte   W04
        .byte                   Ds4
        .byte   W04
        .byte           N03   , En4
        .byte   W04
        .byte           N04   , Fs4
        .byte   W04
        .byte                   Gs3 , v070
        .byte   W04
        .byte           N03   , As3 , v069
        .byte   W04
        .byte                   Fs4
        .byte   W04
        .byte           N11   , Gs4
        .byte   W03
        .byte           N04   , En4
        .byte   W04
        .byte                   As4
        .byte   W05
        .byte   PEND
@ 021   ----------------------------------------
musicFEFatesDesireBelow_1_21:
        .byte           N92   , Fs4 , v059 , gtp3
        .byte                   Gs4
        .byte           N92   , Bn4 , v059 , gtp3
        .byte                   Ds5 , v077
        .byte           N92   , En1 , v068 , gtp3
        .byte   W96
        .byte   PEND
@ 022   ----------------------------------------
        .byte   PATT
         .word  musicFEFatesDesireBelow_0_23
@ 023   ----------------------------------------
        .byte   PATT
         .word  musicFEFatesDesireBelow_0_23
@ 024   ----------------------------------------
        .byte   PATT
         .word  musicFEFatesDesireBelow_0_23
@ 025   ----------------------------------------
musicFEFatesDesireBelow_1_25:
        .byte           N14   , En1 , v037
        .byte   W12
        .byte           N10   , En2 , v033
        .byte   W12
        .byte           N24   , As3 , v039
        .byte           N24   , Gs2 , v031
        .byte           N24   , As2 , v046
        .byte   W24
        .byte           N23   , Bn3 , v042
        .byte           N09   , Fs2 , v033
        .byte           N09   , Ds3 , v048
        .byte   W24
        .byte   PEND
@ 026   ----------------------------------------
musicFEFatesDesireBelow_1_26:
        .byte           N24   , Cs4 , v044
        .byte           N14   , En1 , v037
        .byte   W12
        .byte           N10   , En2 , v033
        .byte   W12
        .byte           N24   , Bn3 , v039
        .byte           N24   , Gs2 , v031
        .byte           N24   , As2 , v046
        .byte   W24
        .byte           N48   , As3 , v042
        .byte           N09   , Fs2 , v033
        .byte           N09   , Ds3 , v048
        .byte   W24
        .byte   PEND
@ 027   ----------------------------------------
musicFEFatesDesireBelow_1_27:
        .byte           N14   , En1 , v037
        .byte   W12
        .byte           N10   , En2 , v033
        .byte   W12
        .byte           N24   , Bn3 , v039
        .byte           N24   , Gs2 , v031
        .byte           N24   , As2 , v046
        .byte   W24
        .byte           N48   , Gs3 , v042
        .byte           N09   , Fs2 , v033
        .byte           N09   , Ds3 , v048
        .byte   W24
        .byte   PEND
@ 028   ----------------------------------------
musicFEFatesDesireBelow_1_28:
        .byte           N14   , En1 , v037
        .byte   W12
        .byte           N10   , En2 , v033
        .byte   W12
        .byte           N24   , Cs3 , v039
        .byte           N24   , Gs2 , v031
        .byte           N24   , As2 , v046
        .byte   W24
        .byte           N23   , As3 , v042
        .byte           N09   , Fs2 , v033
        .byte           N09   , Ds3 , v048
        .byte   W24
        .byte   PEND
@ 029   ----------------------------------------
musicFEFatesDesireBelow_1_29:
        .byte           N48   , Fs3 , v038
        .byte           N14   , En1 , v037
        .byte   W12
        .byte           N10   , En2 , v033
        .byte   W12
        .byte           N24   , Gs2 , v031
        .byte           N24   , As2 , v046
        .byte   W24
        .byte           N23   , Gs3 , v042
        .byte           N09   , Fs2 , v033
        .byte           N09   , Ds3 , v048
        .byte   W24
        .byte   PEND
@ 030   ----------------------------------------
musicFEFatesDesireBelow_1_30:
        .byte           N24   , Ds3 , v044
        .byte           N14   , Cs1 , v037
        .byte   W12
        .byte           N10   , Cs2 , v033
        .byte   W12
        .byte           N24   , Cs3 , v039
        .byte           N24   , Fs2 , v031
        .byte           N24   , As2 , v046
        .byte   W24
        .byte           N48   , Fs3 , v042
        .byte           N09   , En2 , v033
        .byte           N09   , Ds3 , v048
        .byte   W24
        .byte   PEND
@ 031   ----------------------------------------
musicFEFatesDesireBelow_1_31:
        .byte           N14   , Cs1 , v037
        .byte   W12
        .byte           N10   , Cs2 , v033
        .byte   W12
        .byte           N24   , Ds3 , v039
        .byte           N24   , Fs2 , v031
        .byte           N24   , As2 , v046
        .byte   W24
        .byte           N48   , As2 , v042
        .byte           N09   , En2 , v033
        .byte           N09   , Ds3 , v048
        .byte   W24
        .byte   PEND
@ 032   ----------------------------------------
        .byte   PATT
         .word  musicFEFatesDesireBelow_0_32
@ 033   ----------------------------------------
musicFEFatesDesireBelow_1_33:
        .byte           N14   , Cs1 , v037
        .byte   W12
        .byte           N10   , Cs2 , v033
        .byte   W12
        .byte           N24   , Fs2 , v031
        .byte           N24   , As2 , v046
        .byte   W24
        .byte           N23   , Bn2 , v042
        .byte           N09   , En2 , v033
        .byte           N09   , Ds3 , v048
        .byte   W24
        .byte   PEND
@ 034   ----------------------------------------
musicFEFatesDesireBelow_1_34:
        .byte           N56   , Cs3 , v038 , gtp1
        .byte           N14   , An1
        .byte   W12
        .byte           N10   , An2 , v033
        .byte   W12
        .byte           N24   , Fs2 , v031
        .byte           N24   , Gs2 , v046
        .byte   W24
        .byte           N09   , En2 , v033
        .byte           N23   , Cs3 , v048
        .byte   W24
        .byte   PEND
@ 035   ----------------------------------------
musicFEFatesDesireBelow_1_35:
        .byte           N24   , Fs3 , v044
        .byte           N14   , An1 , v038
        .byte   W12
        .byte           N10   , An2 , v033
        .byte   W12
        .byte           N24   , Ds3 , v039
        .byte           N24   , Fs2 , v031
        .byte           N24   , Gs2 , v046
        .byte   W24
        .byte           N23   , En3 , v042
        .byte           N09   , En2 , v033
        .byte           N09   , Cs3 , v048
        .byte   W24
        .byte   PEND
@ 036   ----------------------------------------
musicFEFatesDesireBelow_1_36:
        .byte           N48   , Gs3 , v038
        .byte           N14   , An1
        .byte   W12
        .byte           N10   , An2 , v033
        .byte   W12
        .byte           N24   , Fs2 , v031
        .byte           N24   , Gs2 , v046
        .byte   W24
        .byte           N23   , Fs3 , v042
        .byte           N09   , En2 , v033
        .byte           N09   , Cs3 , v048
        .byte   W24
        .byte   PEND
@ 037   ----------------------------------------
musicFEFatesDesireBelow_1_37:
        .byte           N24   , Ds3 , v044
        .byte           N14   , An1 , v038
        .byte   W12
        .byte           N10   , An2 , v033
        .byte   W12
        .byte           N24   , En3 , v039
        .byte           N24   , Fs2 , v031
        .byte           N24   , Gs2 , v046
        .byte   W24
        .byte           N48   , Bn3 , v042
        .byte           N09   , En2 , v033
        .byte           N09   , Cs3 , v048
        .byte   W24
        .byte   PEND
@ 038   ----------------------------------------
musicFEFatesDesireBelow_1_38:
        .byte           N14   , Gs1 , v038
        .byte   W12
        .byte           N10   , Gs2 , v033
        .byte   W12
        .byte           N24   , Fs3 , v039
        .byte           N24   , En2 , v031
        .byte           N24   , Fs2 , v046
        .byte   W24
        .byte           N23   , Gs3 , v042
        .byte           N09   , Ds2 , v033
        .byte           N09   , Bn2 , v048
        .byte   W24
        .byte   PEND
@ 039   ----------------------------------------
musicFEFatesDesireBelow_1_39:
        .byte           N48   , Ds4 , v038
        .byte           N14   , Gs1
        .byte   W12
        .byte           N10   , Gs2 , v033
        .byte   W12
        .byte           N24   , En2 , v031
        .byte           N24   , Fs2 , v046
        .byte   W24
        .byte           N92   , Bn3 , v042 , gtp3
        .byte           N09   , Ds2 , v033
        .byte           N09   , Bn2 , v048
        .byte   W24
        .byte   PEND
@ 040   ----------------------------------------
        .byte   PATT
         .word  musicFEFatesDesireBelow_0_40
@ 041   ----------------------------------------
musicFEFatesDesireBelow_1_41:
        .byte           N14   , Gs1 , v038
        .byte   W12
        .byte           N10   , Gs2 , v033
        .byte   W12
        .byte           N24   , Bn2 , v039
        .byte           N24   , En2 , v031
        .byte           N24   , Fs2 , v046
        .byte   W24
        .byte           N23   , Cs3 , v042
        .byte           N09   , Ds2 , v033
        .byte           N09   , Bn2 , v048
        .byte   W24
        .byte   PEND
@ 042   ----------------------------------------
musicFEFatesDesireBelow_1_42:
        .byte           N24   , Dn3 , v044
        .byte           N14   , Gn1 , v038
        .byte   W12
        .byte           N10   , Gn2 , v033
        .byte   W12
        .byte           N24   , En3 , v039
        .byte           N24   , En2 , v031
        .byte           N24   , Fs2 , v046
        .byte   W24
        .byte           N23   , Fs3 , v042
        .byte           N09   , Dn2 , v033
        .byte           N09   , Bn2 , v048
        .byte   W24
        .byte   PEND
@ 043   ----------------------------------------
musicFEFatesDesireBelow_1_43:
        .byte           N24   , Gn3 , v044
        .byte           N14   , Gn1 , v038
        .byte   W12
        .byte           N10   , Gn2 , v033
        .byte   W12
        .byte           N44   , Fs3 , v038 , gtp3
        .byte           N24   , En2 , v031
        .byte           N24   , Fs2 , v046
        .byte   W24
        .byte           N09   , Dn2 , v033
        .byte           N09   , Bn2 , v048
        .byte   W24
        .byte   PEND
@ 044   ----------------------------------------
musicFEFatesDesireBelow_1_44:
        .byte           N24   , En3 , v044
        .byte           N14   , Cn1 , v036
        .byte   W12
        .byte           N10   , Cn2 , v033
        .byte   W12
        .byte           N24   , Fs3 , v039
        .byte           N24   , En2 , v031
        .byte           N24   , Fs2 , v046
        .byte   W24
        .byte           N23   , Gn3 , v042
        .byte           N09   , Dn2 , v033
        .byte           N09   , Bn2 , v048
        .byte   W24
        .byte   PEND
@ 045   ----------------------------------------
musicFEFatesDesireBelow_1_45:
        .byte           N24   , An3 , v044
        .byte           N14   , Cn1 , v036
        .byte   W12
        .byte           N10   , Cn2 , v033
        .byte   W12
        .byte           N24   , Bn3 , v039
        .byte           N24   , En2 , v031
        .byte           N24   , Fs2 , v046
        .byte   W24
        .byte           N23   , Cn4 , v042
        .byte           N09   , Dn2 , v033
        .byte           N09   , Bn2 , v048
        .byte   W24
        .byte   PEND
@ 046   ----------------------------------------
        .byte   PATT
         .word  musicFEFatesDesireBelow_0_46
@ 047   ----------------------------------------
musicFEFatesDesireBelow_1_47:
        .byte           N14   , Cs1 , v037
        .byte   W12
        .byte           N10   , Cs2 , v033
        .byte   W12
        .byte           N24   , Fs2 , v031
        .byte           N24   , As2 , v046
        .byte   W24
        .byte           N09   , En2 , v033
        .byte           N09   , Ds3 , v048
        .byte   W11
        .byte           EOT   , Cs4
        .byte   W01
        .byte           N05   , Gs3 , v038
        .byte   W05
        .byte           N06   , As3
        .byte   W07
        .byte   PEND
@ 048   ----------------------------------------
musicFEFatesDesireBelow_1_48:
        .byte           N68   , Gs3 , v038 , gtp3
        .byte           N14   , Cs1 , v037
        .byte   W12
        .byte           N10   , Cs2 , v033
        .byte   W12
        .byte           N24   , Fs2 , v031
        .byte           N24   , As2 , v046
        .byte   W24
        .byte           N09   , En2 , v033
        .byte           N09   , Ds3 , v048
        .byte   W24
        .byte   PEND
@ 049   ----------------------------------------
musicFEFatesDesireBelow_1_49:
        .byte           N14   , Cs1 , v037
        .byte   W12
        .byte           N10   , Cs2 , v033
        .byte   W12
        .byte           N24   , As3 , v031
        .byte           N24   , As4 , v046
        .byte           N24   , Fs2 , v031
        .byte           N24   , As2 , v046
        .byte   W24
        .byte           N23   , Bn3 , v033
        .byte           N23   , Bn4 , v048
        .byte           N09   , En2 , v033
        .byte           N09   , Ds3 , v048
        .byte   W24
        .byte   PEND
@ 050   ----------------------------------------
musicFEFatesDesireBelow_1_50:
        .byte           N24   , Cs4 , v035
        .byte           N24   , Cs5 , v050
        .byte           N12   , En1 , v043
        .byte   W12
        .byte           N11   , En2 , v038
        .byte   W12
        .byte           N24   , Bn3 , v031
        .byte           N24   , Bn4 , v046
        .byte           N11   , As2 , v039
        .byte   W12
        .byte                   Gs2 , v038
        .byte   W12
        .byte           N48   , As3 , v033
        .byte           N48   , As4 , v048
        .byte           N11   , Fs2 , v042
        .byte   W12
        .byte                   Ds3 , v038
        .byte   W12
        .byte   PEND
@ 051   ----------------------------------------
musicFEFatesDesireBelow_1_51:
        .byte           N12   , En1 , v043
        .byte   W12
        .byte           N11   , En2 , v038
        .byte   W12
        .byte           N24   , Bn3 , v031
        .byte           N24   , Bn4 , v046
        .byte           N11   , As2 , v039
        .byte   W12
        .byte                   Gs2 , v038
        .byte   W12
        .byte           N48   , Gs3 , v033
        .byte           N48   , Gs4 , v048
        .byte           N11   , Fs2 , v042
        .byte   W12
        .byte                   Ds3 , v038
        .byte   W12
        .byte   PEND
@ 052   ----------------------------------------
musicFEFatesDesireBelow_1_52:
        .byte           N12   , En1 , v043
        .byte   W12
        .byte           N11   , En2 , v038
        .byte   W12
        .byte           N24   , Cs3 , v031
        .byte           N24   , Cs4 , v046
        .byte           N11   , As2 , v039
        .byte   W12
        .byte                   Gs2 , v038
        .byte   W12
        .byte           N23   , As3 , v033
        .byte           N23   , As4 , v048
        .byte           N11   , Fs2 , v042
        .byte   W12
        .byte                   Ds3 , v038
        .byte   W12
        .byte   PEND
@ 053   ----------------------------------------
musicFEFatesDesireBelow_1_53:
        .byte           N48   , Fs3 , v031
        .byte           N48   , Fs4 , v045
        .byte           N12   , En1 , v043
        .byte   W12
        .byte           N11   , En2 , v038
        .byte   W12
        .byte                   As2 , v039
        .byte   W12
        .byte                   Gs2 , v038
        .byte   W12
        .byte           N23   , Gs3 , v033
        .byte           N23   , Gs4 , v048
        .byte           N11   , Fs2 , v042
        .byte   W12
        .byte                   Ds3 , v038
        .byte   W12
        .byte   PEND
@ 054   ----------------------------------------
musicFEFatesDesireBelow_1_54:
        .byte           N24   , Ds3 , v035
        .byte           N24   , Ds4 , v050
        .byte           N12   , Cs1 , v043
        .byte   W12
        .byte           N11   , Cs2 , v038
        .byte   W12
        .byte           N24   , Cs3 , v031
        .byte           N24   , Cs4 , v046
        .byte           N11   , Fs2 , v039
        .byte   W12
        .byte                   As2 , v038
        .byte   W12
        .byte           N48   , Fs3 , v033
        .byte           N48   , Fs4 , v048
        .byte           N11   , Gs2 , v042
        .byte   W12
        .byte                   Ds3 , v038
        .byte   W12
        .byte   PEND
@ 055   ----------------------------------------
musicFEFatesDesireBelow_1_55:
        .byte           N12   , Cs1 , v043
        .byte   W12
        .byte           N11   , Cs2 , v038
        .byte   W12
        .byte           N24   , Ds3 , v031
        .byte           N24   , Ds4 , v046
        .byte           N11   , Fs2 , v039
        .byte   W12
        .byte                   As2 , v038
        .byte   W12
        .byte           N68   , As2 , v033 , gtp3
        .byte           N92   , As3 , v048 , gtp3
        .byte           N11   , Gs2 , v042
        .byte   W12
        .byte                   Ds3 , v038
        .byte   W12
        .byte   PEND
@ 056   ----------------------------------------
musicFEFatesDesireBelow_1_56:
        .byte           N12   , Cs1 , v043
        .byte   W12
        .byte           N11   , Cs2 , v038
        .byte   W12
        .byte                   Fs2 , v039
        .byte   W12
        .byte           N32   , As2 , v038 , gtp3
        .byte   W12
        .byte           N11   , Gs2 , v042
        .byte   W12
        .byte                   Ds3 , v038
        .byte   W12
        .byte   PEND
@ 057   ----------------------------------------
musicFEFatesDesireBelow_1_57:
        .byte           N12   , Cs1 , v043
        .byte   W12
        .byte           N11   , Cs2 , v038
        .byte   W12
        .byte                   Fs2 , v039
        .byte   W12
        .byte                   As2 , v038
        .byte   W12
        .byte           N23   , Bn2 , v033
        .byte           N23   , Bn3 , v048
        .byte           N11   , Gs2 , v042
        .byte   W12
        .byte                   Ds3 , v038
        .byte   W12
        .byte   PEND
@ 058   ----------------------------------------
musicFEFatesDesireBelow_1_58:
        .byte           N68   , Cs3 , v031 , gtp3
        .byte                   Cs4 , v045
        .byte           N12   , An1 , v044
        .byte   W12
        .byte           N11   , An2 , v038
        .byte   W12
        .byte                   Gs2 , v039
        .byte   W12
        .byte                   Fs2 , v038
        .byte   W12
        .byte                   En2 , v042
        .byte   W12
        .byte                   Bn2 , v038
        .byte   W12
        .byte   PEND
@ 059   ----------------------------------------
musicFEFatesDesireBelow_1_59:
        .byte           N24   , Fs3 , v035
        .byte           N24   , Fs4 , v050
        .byte           N12   , An1 , v044
        .byte   W12
        .byte           N11   , An2 , v038
        .byte   W12
        .byte           N24   , Ds3 , v031
        .byte           N24   , Ds4 , v046
        .byte           N11   , Gs2 , v039
        .byte   W12
        .byte                   Fs2 , v038
        .byte   W12
        .byte           N23   , En3 , v033
        .byte           N23   , En4 , v048
        .byte           N11   , En2 , v042
        .byte   W12
        .byte                   Bn2 , v038
        .byte   W12
        .byte   PEND
@ 060   ----------------------------------------
musicFEFatesDesireBelow_1_60:
        .byte           N48   , Gs3 , v031
        .byte           N48   , Gs4 , v045
        .byte           N12   , An1 , v044
        .byte   W12
        .byte           N11   , An2 , v038
        .byte   W12
        .byte                   Gs2 , v039
        .byte   W12
        .byte                   Fs2 , v038
        .byte   W12
        .byte           N23   , Fs3 , v033
        .byte           N23   , Fs4 , v048
        .byte           N11   , En2 , v042
        .byte   W12
        .byte                   Bn2 , v038
        .byte   W12
        .byte   PEND
@ 061   ----------------------------------------
musicFEFatesDesireBelow_1_61:
        .byte           N24   , Ds3 , v035
        .byte           N24   , Ds4 , v050
        .byte           N12   , An1 , v044
        .byte   W12
        .byte           N11   , An2 , v038
        .byte   W12
        .byte           N24   , En3 , v031
        .byte           N24   , En4 , v046
        .byte           N11   , Gs2 , v039
        .byte   W12
        .byte                   Fs2 , v038
        .byte   W12
        .byte           N48   , Bn3 , v033
        .byte           N48   , Bn4 , v048
        .byte           N11   , En2 , v042
        .byte   W12
        .byte                   Bn2 , v038
        .byte   W12
        .byte   PEND
@ 062   ----------------------------------------
musicFEFatesDesireBelow_1_62:
        .byte           N12   , Gs1 , v044
        .byte   W12
        .byte           N11   , Gs2 , v038
        .byte   W12
        .byte           N24   , Fs3 , v031
        .byte           N24   , Fs4 , v046
        .byte           N11   , Fs2 , v039
        .byte   W12
        .byte                   En2 , v038
        .byte   W12
        .byte           N23   , Gs3 , v033
        .byte           N23   , Gs4 , v048
        .byte           N11   , Ds2 , v042
        .byte   W12
        .byte                   Ds3 , v038
        .byte   W12
        .byte   PEND
@ 063   ----------------------------------------
musicFEFatesDesireBelow_1_63:
        .byte           N48   , Ds4 , v031
        .byte           N48   , Ds5 , v045
        .byte           N12   , Gs1 , v044
        .byte   W12
        .byte           N11   , Gs2 , v038
        .byte   W12
        .byte                   Fs2 , v039
        .byte   W12
        .byte                   En2 , v038
        .byte   W12
        .byte           N92   , Bn3 , v033 , gtp3
        .byte                   Bn4 , v048
        .byte           N11   , Ds2 , v042
        .byte   W12
        .byte                   Ds3 , v038
        .byte   W12
        .byte   PEND
@ 064   ----------------------------------------
        .byte   PATT
         .word  musicFEFatesDesireBelow_0_64
@ 065   ----------------------------------------
musicFEFatesDesireBelow_1_65:
        .byte           N12   , Gs1 , v044
        .byte   W12
        .byte           N11   , Gs2 , v038
        .byte   W12
        .byte           N24   , Bn2 , v031
        .byte           N24   , Bn3 , v046
        .byte           N11   , Fs2 , v039
        .byte   W12
        .byte                   En2 , v038
        .byte   W12
        .byte           N23   , Cs3 , v033
        .byte           N23   , Cs4 , v048
        .byte           N11   , Ds2 , v042
        .byte   W12
        .byte                   Ds3 , v038
        .byte   W12
        .byte   PEND
@ 066   ----------------------------------------
musicFEFatesDesireBelow_1_66:
        .byte           N24   , Dn3 , v035
        .byte           N24   , Dn4 , v050
        .byte           N12   , Gn1 , v044
        .byte   W12
        .byte           N11   , Gn2 , v038
        .byte   W12
        .byte           N24   , En3 , v031
        .byte           N24   , En4 , v046
        .byte           N11   , Fs2 , v039
        .byte   W12
        .byte                   En2 , v038
        .byte   W12
        .byte           N23   , Fs3 , v033
        .byte           N23   , Fs4 , v048
        .byte           N11   , Dn2 , v042
        .byte   W12
        .byte                   Bn2 , v038
        .byte   W12
        .byte   PEND
@ 067   ----------------------------------------
musicFEFatesDesireBelow_1_67:
        .byte           N24   , Gn3 , v031
        .byte           N24   , Gn4 , v045
        .byte           N12   , Gn1 , v038
        .byte   W12
        .byte           N11   , Gn2
        .byte   W12
        .byte           N44   , Fs3 , v030 , gtp3
        .byte                   Fs4 , v044
        .byte           N11   , Fs2 , v037
        .byte   W12
        .byte                   En2 , v036
        .byte   W12
        .byte                   Dn2
        .byte   W12
        .byte                   Bn2 , v035
        .byte   W12
        .byte   PEND
@ 068   ----------------------------------------
musicFEFatesDesireBelow_1_68:
        .byte           N24   , En3 , v027
        .byte           N24   , En4 , v041
        .byte           N12   , Cn1 , v032
        .byte   W12
        .byte           N11   , Cn2 , v033
        .byte   W12
        .byte           N24   , Fs3 , v026
        .byte           N24   , Fs4 , v039
        .byte           N11   , Fs2 , v033
        .byte   W12
        .byte                   En2 , v032
        .byte   W12
        .byte           N23   , Gn3 , v024
        .byte           N23   , Gn4 , v037
        .byte           N11   , Dn2 , v031
        .byte   W12
        .byte                   Dn3
        .byte   W12
        .byte   PEND
@ 069   ----------------------------------------
musicFEFatesDesireBelow_1_69:
        .byte           N24   , An3 , v023
        .byte           N24   , An4 , v036
        .byte           N12   , Cn1 , v029
        .byte   W12
        .byte           N11   , Cn2 , v030
        .byte   W12
        .byte           N24   , Bn3 , v022
        .byte           N24   , Bn4 , v034
        .byte           N11   , Fs2 , v029
        .byte   W12
        .byte                   En2
        .byte   W12
        .byte           N23   , Cn4 , v021
        .byte           N23   , Cn5 , v033
        .byte           N11   , Dn2 , v028
        .byte   W12
        .byte                   Dn3 , v027
        .byte   W12
        .byte   PEND
@ 070   ----------------------------------------
musicFEFatesDesireBelow_1_70:
        .byte           N24   , Gs4 , v026 , gtp1
        .byte           N44   , Cs4 , v026 , gtp3
        .byte                   En3
        .byte           N24   , Bn2 , v031
        .byte   W24
        .byte           N13   , Fs4 , v026
        .byte           N23   , As2 , v029
        .byte   W12
        .byte           N13   , Gs4 , v026
        .byte   W12
        .byte   PEND
@ 071   ----------------------------------------
musicFEFatesDesireBelow_1_71:
        .byte           N44   , Ds4 , v022 , gtp3
        .byte           N24   , Bn3 , v031
        .byte           N44   , En3 , v026 , gtp3
        .byte           N24   , Gs2 , v031
        .byte   W24
        .byte           N23   , As3 , v029
        .byte           N23   , Fs2
        .byte   W24
        .byte   PEND
@ 072   ----------------------------------------
musicFEFatesDesireBelow_1_72:
        .byte           N14   , Ds4 , v026
        .byte           N24   , Gs3 , v031
        .byte           N44   , En3 , v026 , gtp3
        .byte           N24   , En2 , v031
        .byte   W12
        .byte           N12   , Cs4 , v026
        .byte   W12
        .byte           N13
        .byte           N11   , Fs3 , v029
        .byte           N23   , Fs2
        .byte   W12
        .byte           N13   , Ds4 , v026
        .byte           N11   , En3
        .byte   W12
        .byte   PEND
@ 073   ----------------------------------------
musicFEFatesDesireBelow_1_73:
        .byte           N23   , Gs3 , v022
        .byte           N24   , Ds3 , v031
        .byte           N24   , Fn2
        .byte   W24
        .byte           N13   , As3 , v026
        .byte   W05
        .byte           VOL   , 88
        .byte   W07
        .byte           N13   , Bn3
        .byte   W12
        .byte   PEND
@ 074   ----------------------------------------
musicFEFatesDesireBelow_1_74:
        .byte           N24   , Cs4 , v026 , gtp1
        .byte           N44   , Ds3 , v026 , gtp3
        .byte                   Gs2
        .byte           N44   , En2 , v026 , gtp3
        .byte   W24
        .byte           N13   , Bn3
        .byte   W12
        .byte                   As3
        .byte   W12
        .byte   PEND
@ 075   ----------------------------------------
musicFEFatesDesireBelow_1_75:
        .byte           N24   , Bn3 , v026 , gtp1
        .byte           N36   , Fs3
        .byte           N44   , Cs3 , v026 , gtp3
        .byte                   Ds2
        .byte   W24
        .byte           N23   , Fs4
        .byte   W12
        .byte           N11   , As3
        .byte   W12
        .byte   PEND
@ 076   ----------------------------------------
musicFEFatesDesireBelow_1_76:
        .byte           N14   , Fs4 , v026
        .byte           N24   , Bn3 , v031
        .byte           N24   , Cs3
        .byte           N44   , Dn2 , v026 , gtp3
        .byte   W12
        .byte           N12   , En4
        .byte   W12
        .byte           N13
        .byte           N23   , Fs3 , v029
        .byte           N23   , An2
        .byte   W12
        .byte           N13   , Fs4 , v026
        .byte   W12
        .byte   PEND
@ 077   ----------------------------------------
musicFEFatesDesireBelow_1_77:
        .byte           N23   , Cs4 , v022
        .byte           N24   , Fs3 , v031
        .byte           N24   , As2
        .byte           N24   , Fs2
        .byte   W24
        .byte           N23   , En3 , v029
        .byte   W24
        .byte   PEND
@ 078   ----------------------------------------
musicFEFatesDesireBelow_1_78:
        .byte           N24   , Ds4 , v026 , gtp1
        .byte           N24   , Ds3 , v031
        .byte           N44   , Bn2 , v026 , gtp3
        .byte           N24   , Gs2 , v031
        .byte   W24
        .byte           N13   , Cs4 , v026
        .byte           N23   , En3 , v029
        .byte           N23   , Gn2
        .byte   W12
        .byte           N13   , Ds4 , v026
        .byte   W12
        .byte   PEND
@ 079   ----------------------------------------
musicFEFatesDesireBelow_1_79:
        .byte           N44   , Gs3 , v022 , gtp3
        .byte           N24   , En3 , v031
        .byte           N24   , As2
        .byte           N24   , Fs2
        .byte   W24
        .byte           N23   , Cs3 , v029
        .byte           N23   , An2
        .byte           N23   , Fn2
        .byte   W24
        .byte   PEND
@ 080   ----------------------------------------
musicFEFatesDesireBelow_1_80:
        .byte           N14   , Gs3 , v026
        .byte           N24   , Ds3 , v031
        .byte           N24   , Gs2
        .byte           N24   , En2
        .byte   W12
        .byte           N12   , Fs3 , v026
        .byte   W12
        .byte           N13
        .byte           N23   , Cs3 , v029
        .byte           N23   , Fs2
        .byte           N23   , Dn2
        .byte   W12
        .byte           N13   , Gs3 , v026
        .byte   W12
        .byte   PEND
@ 081   ----------------------------------------
musicFEFatesDesireBelow_1_81:
        .byte           N23   , Ds3 , v022
        .byte           N24   , Bn2 , v031
        .byte           N24   , Fn2
        .byte           N24   , Cs2
        .byte   W24
        .byte           N13   , Cs4 , v026
        .byte   W12
        .byte           N11   , Ds4
        .byte   W12
        .byte   PEND
@ 082   ----------------------------------------
musicFEFatesDesireBelow_1_82:
        .byte           N24   , Ds4 , v026 , gtp1
        .byte   W24
        .byte           N13   , Cs4
        .byte           N23   , An3 , v029
        .byte           N23   , Ds3
        .byte           N23   , Bn2
        .byte   W12
        .byte           N13   , Ds4 , v026
        .byte   W12
        .byte   PEND
@ 083   ----------------------------------------
musicFEFatesDesireBelow_1_83:
        .byte           N24   , Gs4 , v026 , gtp1
        .byte           N44   , Bn3 , v026 , gtp3
        .byte                   Fn3
        .byte           N44   , Cs3 , v026 , gtp3
        .byte   W24
        .byte           N13   , Ds4
        .byte   W12
        .byte                   Cs4
        .byte   W12
        .byte   PEND
@ 084   ----------------------------------------
musicFEFatesDesireBelow_1_84:
        .byte           N14   , Ds4 , v026
        .byte   W12
        .byte           N12   , Cs4
        .byte   W12
        .byte           N13
        .byte           N23   , Ds3 , v029
        .byte           N23   , An2
        .byte           N23   , Bn1 , v028
        .byte   W12
        .byte           N13   , Ds4 , v026
        .byte   W12
        .byte   PEND
@ 085   ----------------------------------------
musicFEFatesDesireBelow_1_85:
        .byte           N23   , Gs3 , v022
        .byte           N44   , Fn3 , v026 , gtp3
        .byte                   Bn2
        .byte           N44   , Cs2 , v026 , gtp3
        .byte   W24
        .byte           N13   , Cs3
        .byte   W12
        .byte           N11   , Ds3
        .byte   W12
        .byte   PEND
@ 086   ----------------------------------------
musicFEFatesDesireBelow_1_86:
        .byte           N24   , Ds3 , v026 , gtp1
        .byte   W24
        .byte           N13   , Cs3 , v031
        .byte           N23   , An2
        .byte           N23   , Ds2 , v029
        .byte           N23   , Fn1 , v027
        .byte   W12
        .byte           N13   , Ds3 , v032
        .byte   W12
        .byte   PEND
@ 087   ----------------------------------------
musicFEFatesDesireBelow_1_87:
        .byte           N24   , Gs3 , v035 , gtp1
        .byte           N44   , Bn2 , v035 , gtp3
        .byte                   Fn2 , v026
        .byte           N44   , Gn1 , v024 , gtp3
        .byte   W24
        .byte           N13   , Ds3 , v041
        .byte   W12
        .byte                   Cs3 , v044
        .byte   W12
        .byte   PEND
@ 088   ----------------------------------------
musicFEFatesDesireBelow_1_88:
        .byte           N14   , Ds3 , v046
        .byte   W12
        .byte           N12   , Cs3 , v049
        .byte   W12
        .byte           N13   , Cs3 , v052
        .byte           N23   , Gn2 , v029
        .byte           N24   , Cn2 , v019
        .byte   W12
        .byte           N10   , Ds3 , v049
        .byte   W12
        .byte   PEND
@ 089   ----------------------------------------
        .byte           N04   , Fn1 , v076
        .byte   W05
        .byte           N03   , Cn2 , v069
        .byte   W03
        .byte           N04   , Fn2
        .byte   W04
        .byte                   Gn2
        .byte   W04
        .byte                   Gs2
        .byte   W04
        .byte                   As2
        .byte   W04
        .byte                   Cn3 , v070
        .byte   W04
        .byte                   Dn3 , v069
        .byte   W04
        .byte                   Ds3
        .byte   W04
        .byte                   En3
        .byte   W04
        .byte                   Fn3
        .byte   W04
        .byte                   Gn3
        .byte   W03
        .byte           VOL   , 100
        .byte   W01
        .byte           N18   , Gs3 , v073
        .byte           N04   , As1
        .byte   W04
        .byte                   Fn2 , v069
        .byte   W04
        .byte                   Gs2
        .byte   W04
        .byte                   Cn3
        .byte   W04
        .byte           N03   , Cs3
        .byte   W04
        .byte           N04   , Gs3
        .byte   W04
        .byte           N17   , Fs3 , v070
        .byte           N04   , Gs1
        .byte   W04
        .byte           N03   , Ds2 , v069
        .byte   W04
        .byte                   Fs2
        .byte   W04
        .byte                   As2
        .byte   W03
        .byte           N04   , Bn2
        .byte   W04
        .byte                   Fs3
        .byte   W05
@ 090   ----------------------------------------
        .byte   PATT
         .word  musicFEFatesDesireBelow_1_1
@ 091   ----------------------------------------
        .byte   PATT
         .word  musicFEFatesDesireBelow_1_2
@ 092   ----------------------------------------
        .byte   PATT
         .word  musicFEFatesDesireBelow_1_3
@ 093   ----------------------------------------
        .byte   PATT
         .word  musicFEFatesDesireBelow_1_4
@ 094   ----------------------------------------
        .byte   PATT
         .word  musicFEFatesDesireBelow_1_5
@ 095   ----------------------------------------
        .byte   PATT
         .word  musicFEFatesDesireBelow_1_6
@ 096   ----------------------------------------
        .byte   PATT
         .word  musicFEFatesDesireBelow_1_7
@ 097   ----------------------------------------
        .byte   PATT
         .word  musicFEFatesDesireBelow_1_8
@ 098   ----------------------------------------
        .byte   PATT
         .word  musicFEFatesDesireBelow_1_9
@ 099   ----------------------------------------
        .byte   PATT
         .word  musicFEFatesDesireBelow_1_10
@ 100   ----------------------------------------
        .byte   PATT
         .word  musicFEFatesDesireBelow_1_11
@ 101   ----------------------------------------
        .byte   PATT
         .word  musicFEFatesDesireBelow_1_12
@ 102   ----------------------------------------
        .byte   PATT
         .word  musicFEFatesDesireBelow_1_13
@ 103   ----------------------------------------
        .byte   PATT
         .word  musicFEFatesDesireBelow_1_14
@ 104   ----------------------------------------
        .byte   PATT
         .word  musicFEFatesDesireBelow_1_15
@ 105   ----------------------------------------
        .byte   PATT
         .word  musicFEFatesDesireBelow_1_16
@ 106   ----------------------------------------
        .byte   PATT
         .word  musicFEFatesDesireBelow_1_17
@ 107   ----------------------------------------
        .byte   PATT
         .word  musicFEFatesDesireBelow_1_18
@ 108   ----------------------------------------
        .byte   PATT
         .word  musicFEFatesDesireBelow_1_19
@ 109   ----------------------------------------
        .byte   PATT
         .word  musicFEFatesDesireBelow_1_20
@ 110   ----------------------------------------
        .byte   PATT
         .word  musicFEFatesDesireBelow_1_21
@ 111   ----------------------------------------
        .byte   PATT
         .word  musicFEFatesDesireBelow_0_23
@ 112   ----------------------------------------
        .byte   PATT
         .word  musicFEFatesDesireBelow_0_23
@ 113   ----------------------------------------
        .byte   PATT
         .word  musicFEFatesDesireBelow_0_23
@ 114   ----------------------------------------
        .byte   PATT
         .word  musicFEFatesDesireBelow_1_25
@ 115   ----------------------------------------
        .byte   PATT
         .word  musicFEFatesDesireBelow_1_26
@ 116   ----------------------------------------
        .byte   PATT
         .word  musicFEFatesDesireBelow_1_27
@ 117   ----------------------------------------
        .byte   PATT
         .word  musicFEFatesDesireBelow_1_28
@ 118   ----------------------------------------
        .byte   PATT
         .word  musicFEFatesDesireBelow_1_29
@ 119   ----------------------------------------
        .byte   PATT
         .word  musicFEFatesDesireBelow_1_30
@ 120   ----------------------------------------
        .byte   PATT
         .word  musicFEFatesDesireBelow_1_31
@ 121   ----------------------------------------
        .byte   PATT
         .word  musicFEFatesDesireBelow_0_32
@ 122   ----------------------------------------
        .byte   PATT
         .word  musicFEFatesDesireBelow_1_33
@ 123   ----------------------------------------
        .byte   PATT
         .word  musicFEFatesDesireBelow_1_34
@ 124   ----------------------------------------
        .byte   PATT
         .word  musicFEFatesDesireBelow_1_35
@ 125   ----------------------------------------
        .byte   PATT
         .word  musicFEFatesDesireBelow_1_36
@ 126   ----------------------------------------
        .byte   PATT
         .word  musicFEFatesDesireBelow_1_37
@ 127   ----------------------------------------
        .byte   PATT
         .word  musicFEFatesDesireBelow_1_38
@ 128   ----------------------------------------
        .byte   PATT
         .word  musicFEFatesDesireBelow_1_39
@ 129   ----------------------------------------
        .byte   PATT
         .word  musicFEFatesDesireBelow_0_40
@ 130   ----------------------------------------
        .byte   PATT
         .word  musicFEFatesDesireBelow_1_41
@ 131   ----------------------------------------
        .byte   PATT
         .word  musicFEFatesDesireBelow_1_42
@ 132   ----------------------------------------
        .byte   PATT
         .word  musicFEFatesDesireBelow_1_43
@ 133   ----------------------------------------
        .byte   PATT
         .word  musicFEFatesDesireBelow_1_44
@ 134   ----------------------------------------
        .byte   PATT
         .word  musicFEFatesDesireBelow_1_45
@ 135   ----------------------------------------
        .byte   PATT
         .word  musicFEFatesDesireBelow_0_46
@ 136   ----------------------------------------
        .byte   PATT
         .word  musicFEFatesDesireBelow_1_47
@ 137   ----------------------------------------
        .byte   PATT
         .word  musicFEFatesDesireBelow_1_48
@ 138   ----------------------------------------
        .byte   PATT
         .word  musicFEFatesDesireBelow_1_49
@ 139   ----------------------------------------
        .byte   PATT
         .word  musicFEFatesDesireBelow_1_50
@ 140   ----------------------------------------
        .byte   PATT
         .word  musicFEFatesDesireBelow_1_51
@ 141   ----------------------------------------
        .byte   PATT
         .word  musicFEFatesDesireBelow_1_52
@ 142   ----------------------------------------
        .byte   PATT
         .word  musicFEFatesDesireBelow_1_53
@ 143   ----------------------------------------
        .byte   PATT
         .word  musicFEFatesDesireBelow_1_54
@ 144   ----------------------------------------
        .byte   PATT
         .word  musicFEFatesDesireBelow_1_55
@ 145   ----------------------------------------
        .byte   PATT
         .word  musicFEFatesDesireBelow_1_56
@ 146   ----------------------------------------
        .byte   PATT
         .word  musicFEFatesDesireBelow_1_57
@ 147   ----------------------------------------
        .byte   PATT
         .word  musicFEFatesDesireBelow_1_58
@ 148   ----------------------------------------
        .byte   PATT
         .word  musicFEFatesDesireBelow_1_59
@ 149   ----------------------------------------
        .byte   PATT
         .word  musicFEFatesDesireBelow_1_60
@ 150   ----------------------------------------
        .byte   PATT
         .word  musicFEFatesDesireBelow_1_61
@ 151   ----------------------------------------
        .byte   PATT
         .word  musicFEFatesDesireBelow_1_62
@ 152   ----------------------------------------
        .byte   PATT
         .word  musicFEFatesDesireBelow_1_63
@ 153   ----------------------------------------
        .byte   PATT
         .word  musicFEFatesDesireBelow_0_64
@ 154   ----------------------------------------
        .byte   PATT
         .word  musicFEFatesDesireBelow_1_65
@ 155   ----------------------------------------
        .byte   PATT
         .word  musicFEFatesDesireBelow_1_66
@ 156   ----------------------------------------
        .byte   PATT
         .word  musicFEFatesDesireBelow_1_67
@ 157   ----------------------------------------
        .byte   PATT
         .word  musicFEFatesDesireBelow_1_68
@ 158   ----------------------------------------
        .byte   PATT
         .word  musicFEFatesDesireBelow_1_69
@ 159   ----------------------------------------
        .byte   PATT
         .word  musicFEFatesDesireBelow_1_70
@ 160   ----------------------------------------
        .byte   PATT
         .word  musicFEFatesDesireBelow_1_71
@ 161   ----------------------------------------
        .byte   PATT
         .word  musicFEFatesDesireBelow_1_72
@ 162   ----------------------------------------
        .byte   PATT
         .word  musicFEFatesDesireBelow_1_73
@ 163   ----------------------------------------
        .byte   PATT
         .word  musicFEFatesDesireBelow_1_74
@ 164   ----------------------------------------
        .byte   PATT
         .word  musicFEFatesDesireBelow_1_75
@ 165   ----------------------------------------
        .byte   PATT
         .word  musicFEFatesDesireBelow_1_76
@ 166   ----------------------------------------
        .byte   PATT
         .word  musicFEFatesDesireBelow_1_77
@ 167   ----------------------------------------
        .byte   PATT
         .word  musicFEFatesDesireBelow_1_78
@ 168   ----------------------------------------
        .byte   PATT
         .word  musicFEFatesDesireBelow_1_79
@ 169   ----------------------------------------
        .byte   PATT
         .word  musicFEFatesDesireBelow_1_80
@ 170   ----------------------------------------
        .byte   PATT
         .word  musicFEFatesDesireBelow_1_81
@ 171   ----------------------------------------
        .byte   PATT
         .word  musicFEFatesDesireBelow_1_82
@ 172   ----------------------------------------
        .byte   PATT
         .word  musicFEFatesDesireBelow_1_83
@ 173   ----------------------------------------
        .byte   PATT
         .word  musicFEFatesDesireBelow_1_84
@ 174   ----------------------------------------
        .byte   PATT
         .word  musicFEFatesDesireBelow_1_85
@ 175   ----------------------------------------
        .byte   PATT
         .word  musicFEFatesDesireBelow_1_86
@ 176   ----------------------------------------
        .byte   PATT
         .word  musicFEFatesDesireBelow_1_87
@ 177   ----------------------------------------
        .byte   PATT
         .word  musicFEFatesDesireBelow_1_88
@ 178   ----------------------------------------
        .byte   FINE


@********************** End of Song ***********************@

        .align  2
musicFEFatesDesireBelow:
        .byte   2                       @ Num Tracks
        .byte   0                       @ Unknown
        .byte   musicFEFatesDesireBelow_pri @ Priority
        .byte   musicFEFatesDesireBelow_rev @ Reverb

        .word   musicFEFatesDesireBelow_grp

        .word   musicFEFatesDesireBelow_0
        .word   musicFEFatesDesireBelow_1

        .end
