        .include "MPlayDef.s"

        .equ    musicFERadiantDawnEternalBond_grp, native_instrument_map_bin
        .equ    musicFERadiantDawnEternalBond_pri, 0
        .equ    musicFERadiantDawnEternalBond_rev, 0
        .equ    musicFERadiantDawnEternalBond_key, 0

        .section .rodata
        .global musicFERadiantDawnEternalBond
        .align  2

@****************** Track 0 (Midi-Chn.0) ******************@

musicFERadiantDawnEternalBond_0:
        .byte   KEYSH , musicFERadiantDawnEternalBond_key+0
@ 000   ----------------------------------------
        .byte   TEMPO , 134/2
        .byte           VOICE , 0
        .byte           VOL   , 100
        .byte           N16   , Fs4 , v031
        .byte   W16
        .byte           N08   , Fs4 , v026
        .byte   W08
        .byte                   Fs4 , v027
        .byte   W08
        .byte           N07   , Fs5 , v026
        .byte   W08
        .byte           N08   , Fs4
        .byte   W08
        .byte           N16   , Fs4 , v029
        .byte   W16
        .byte           N08   , Fs4 , v026
        .byte   W08
        .byte           N07   , Fs4 , v027
        .byte   W08
        .byte                   Fs5 , v026
        .byte   W07
        .byte           N08   , Fs4
        .byte   W09
@ 001   ----------------------------------------
        .byte                   Fs3 , v059
        .byte   W08
        .byte                   Fs4 , v053
        .byte   W08
        .byte                   Fs3 , v054
        .byte   W08
        .byte                   Fs3 , v056
        .byte   W08
        .byte           N07   , Cs4 , v060
        .byte   W08
        .byte           N08   , En4 , v063
        .byte   W08
        .byte                   Fs3 , v066
        .byte   W08
        .byte           N07   , Fs4 , v069
        .byte   W08
        .byte           N08   , Fs3 , v073
        .byte   W08
        .byte           N07   , Fs3 , v076
        .byte   W08
        .byte                   Cs4 , v080
        .byte   W07
        .byte           N08   , En4 , v082
        .byte   W09
@ 002   ----------------------------------------
        .byte           N14   , Fs3 , v111
        .byte           N09   , Cs4
        .byte           N09   , Fs4 , v127
        .byte   W48
        .byte           N24   , Fs2 , v063
        .byte   W24
        .byte           N21   , Cs3 , v073
        .byte   W06
        .byte   TEMPO , 132/2
        .byte   W18
@ 003   ----------------------------------------
        .byte   TEMPO , 134/2
        .byte           N48   , Fs3 , v049
        .byte           N48   , Bn3
        .byte           N48   , Fs4 , v066
        .byte   W48
        .byte           N24   , Bn3 , v045
        .byte           N24   , Fs4
        .byte           N24   , Bn4 , v061
        .byte   W18
        .byte   TEMPO , 132/2
        .byte   W06
        .byte           N23   , Cs4 , v047
        .byte           N23   , En4
        .byte           N23   , Cs5 , v064
        .byte   W06
        .byte   TEMPO , 130/2
        .byte   W18
@ 004   ----------------------------------------
musicFERadiantDawnEternalBond_0_4:
        .byte           N24   , Dn4 , v049
        .byte           N24   , En4
        .byte           N24   , Dn5 , v066
        .byte   W06
        .byte   TEMPO , 134/2
        .byte   W18
        .byte                   Fs4 , v052
        .byte           N24   , Fs5 , v069
        .byte   W24
        .byte                   Bn3 , v054
        .byte           N24   , Cs4
        .byte           N24   , Bn4 , v072
        .byte   W24
        .byte           N11   , Dn4 , v056
        .byte           N12   , Dn5 , v074
        .byte   W12
        .byte           N11   , Cs4 , v058
        .byte           N11   , Cs5 , v076
        .byte   W12
        .byte   PEND
@ 005   ----------------------------------------
musicFERadiantDawnEternalBond_0_5:
        .byte           N24   , Bn3 , v065
        .byte           N24   , Dn4
        .byte           N24   , Bn4 , v084
        .byte   W24
        .byte                   An3 , v060
        .byte           N24   , En4
        .byte           N24   , An4 , v078
        .byte   W24
        .byte                   Bn3 , v063
        .byte           N24   , Fs4
        .byte           N24   , Bn4 , v081
        .byte   W24
        .byte           N15   , Fs4 , v060
        .byte           N15   , Cs5
        .byte           N15   , Fs5 , v078
        .byte   W15
        .byte           N08   , En4 , v059
        .byte           N08   , En5 , v077
        .byte   W09
        .byte   PEND
@ 006   ----------------------------------------
musicFERadiantDawnEternalBond_0_6:
        .byte           N48   , Fs4 , v065
        .byte           N48   , En5
        .byte           N48   , Fs5 , v084
        .byte   W72
        .byte           N11   , Fs4 , v060
        .byte           N23   , Dn5
        .byte           N12   , Fs5 , v078
        .byte   W12
        .byte           N11   , Gs4 , v059
        .byte           N11   , Gs5 , v077
        .byte   W12
        .byte   PEND
@ 007   ----------------------------------------
musicFERadiantDawnEternalBond_0_7:
        .byte           N24   , An4 , v065
        .byte           N24   , Fs5
        .byte           N24   , An5 , v084
        .byte   W24
        .byte                   Fs4 , v060
        .byte           N24   , Cs5
        .byte           N24   , Fs5 , v078
        .byte   W24
        .byte                   Gs4 , v063
        .byte           N24   , En5
        .byte           N24   , Gs5 , v081
        .byte   W24
        .byte           N23   , Cs5 , v060
        .byte           N23   , An5
        .byte           N23   , Cs6 , v078
        .byte   W24
        .byte   PEND
@ 008   ----------------------------------------
musicFERadiantDawnEternalBond_0_8:
        .byte           N24   , Bn4 , v065
        .byte           N24   , En5
        .byte           N24   , Bn5 , v084
        .byte   W24
        .byte           N11   , An4 , v060
        .byte           N12   , An5 , v078
        .byte   W12
        .byte           N11   , Gs4 , v061
        .byte           N12   , Gs5 , v080
        .byte   W12
        .byte           N24   , Fs4 , v063
        .byte           N24   , An4
        .byte           N24   , Fs5 , v081
        .byte   W24
        .byte           N11   , Fs4 , v064
        .byte           N12   , Fs5 , v082
        .byte   W12
        .byte           N11   , Gs4 , v065
        .byte           N11   , Gs5 , v084
        .byte   W12
        .byte   PEND
@ 009   ----------------------------------------
musicFERadiantDawnEternalBond_0_9:
        .byte           N24   , An4 , v066
        .byte           N24   , Cs5
        .byte           N24   , An5 , v085
        .byte   W24
        .byte                   Fs4 , v069
        .byte           N24   , An4
        .byte           N24   , Fs5 , v088
        .byte   W24
        .byte                   Gs4 , v070
        .byte           N24   , En5
        .byte           N24   , Gs5 , v090
        .byte   W24
        .byte           N23   , Cs5 , v073
        .byte           N23   , An5
        .byte           N23   , Cs6 , v092
        .byte   W24
        .byte   PEND
@ 010   ----------------------------------------
musicFERadiantDawnEternalBond_0_10:
        .byte           N24   , Bn4 , v120
        .byte           N24   , Ds5
        .byte           N24   , Fs5
        .byte           N24   , Bn5 , v127
        .byte   W24
        .byte           N14   , Fs3 , v076
        .byte           N10   , Fs4 , v095
        .byte   W24
        .byte           N13   , Bn3 , v074
        .byte           N09   , Bn4 , v094
        .byte   W24
        .byte           N13   , Ds4 , v072
        .byte           N09   , Ds5 , v091
        .byte   W24
        .byte   PEND
@ 011   ----------------------------------------
musicFERadiantDawnEternalBond_0_11:
        .byte           N14   , Gn4 , v069
        .byte           N10   , Gn5 , v088
        .byte   W24
        .byte           N14   , Fs4 , v066
        .byte           N10   , Fs5 , v085
        .byte   W24
        .byte           N13   , Ds4 , v064
        .byte           N09   , Ds5 , v082
        .byte   W24
        .byte                   Bn3 , v061
        .byte           N09   , Bn4 , v080
        .byte   W24
        .byte   PEND
@ 012   ----------------------------------------
musicFERadiantDawnEternalBond_0_12:
        .byte           N48   , Fs2 , v082
        .byte           N48   , Bn2
        .byte           N48   , Fs3 , v103
        .byte   W48
        .byte           N24   , Bn2 , v080
        .byte           N24   , Fs3
        .byte           N24   , Bn3 , v100
        .byte   W18
        .byte   TEMPO , 132/2
        .byte   W06
        .byte           N23   , Cs3 , v077
        .byte           N23   , En3
        .byte           N23   , Cs4 , v097
        .byte   W06
        .byte   TEMPO , 130/2
        .byte   W18
        .byte   PEND
@ 013   ----------------------------------------
musicFERadiantDawnEternalBond_0_13:
        .byte           N24   , Dn3 , v082
        .byte           N24   , En3
        .byte           N24   , Dn4 , v103
        .byte   W06
        .byte   TEMPO , 134/2
        .byte   W18
        .byte                   Fs3 , v077
        .byte           N24   , Fs4 , v097
        .byte   W24
        .byte                   Bn2 , v080
        .byte           N24   , Cs3
        .byte           N24   , Bn3 , v100
        .byte   W24
        .byte           N11   , Dn3 , v077
        .byte           N12   , Dn4 , v097
        .byte   W12
        .byte           N11   , Cs3 , v076
        .byte           N11   , Cs4 , v095
        .byte   W12
        .byte   PEND
@ 014   ----------------------------------------
musicFERadiantDawnEternalBond_0_14:
        .byte           N24   , Bn2 , v065
        .byte           N24   , Dn3
        .byte           N24   , Bn3 , v084
        .byte   W24
        .byte                   An2 , v060
        .byte           N24   , En3
        .byte           N24   , An3 , v078
        .byte   W24
        .byte                   Bn2 , v063
        .byte           N24   , Fs3
        .byte           N24   , Bn3 , v081
        .byte   W24
        .byte           N15   , Fs3 , v060
        .byte           N15   , Cs4
        .byte           N15   , Fs4 , v078
        .byte   W15
        .byte           N08   , En3 , v059
        .byte           N08   , En4 , v077
        .byte   W09
        .byte   PEND
@ 015   ----------------------------------------
musicFERadiantDawnEternalBond_0_15:
        .byte           N48   , Fs3 , v065
        .byte           N48   , En4
        .byte           N48   , Fs4 , v084
        .byte   W72
        .byte           N11   , Fs3 , v070
        .byte           N23   , Dn4
        .byte           N12   , Fs4 , v090
        .byte   W12
        .byte           N11   , Gs3 , v073
        .byte           N11   , Gs4 , v092
        .byte   W12
        .byte   PEND
@ 016   ----------------------------------------
musicFERadiantDawnEternalBond_0_16:
        .byte           N24   , An3 , v082
        .byte           N24   , Fs4
        .byte           N24   , An4 , v103
        .byte   W24
        .byte                   Fs3 , v077
        .byte           N24   , Cs4
        .byte           N24   , Fs4 , v097
        .byte   W24
        .byte                   Gs3 , v080
        .byte           N24   , En4
        .byte           N24   , Gs4 , v100
        .byte   W24
        .byte           N23   , Cs4 , v077
        .byte           N23   , An4
        .byte           N23   , Cs5 , v097
        .byte   W24
        .byte   PEND
@ 017   ----------------------------------------
musicFERadiantDawnEternalBond_0_17:
        .byte           N24   , Bn3 , v082
        .byte           N24   , En4
        .byte           N24   , Bn4 , v103
        .byte   W24
        .byte           N11   , An3 , v077
        .byte           N12   , An4 , v097
        .byte   W12
        .byte           N11   , Gs3 , v078
        .byte           N12   , Gs4 , v098
        .byte   W12
        .byte           N24   , Fs3 , v080
        .byte           N24   , An3
        .byte           N24   , Fs4 , v100
        .byte   W24
        .byte           N11   , Fs3 , v081
        .byte           N12   , Fs4 , v101
        .byte   W12
        .byte           N11   , Gs3 , v082
        .byte           N11   , Gs4 , v103
        .byte   W12
        .byte   PEND
@ 018   ----------------------------------------
musicFERadiantDawnEternalBond_0_18:
        .byte           N24   , An3 , v084
        .byte           N24   , Cs4
        .byte           N24   , An4 , v105
        .byte   W24
        .byte                   Fs3 , v087
        .byte           N24   , An3
        .byte           N24   , Fs4 , v108
        .byte   W24
        .byte                   Gs3 , v088
        .byte           N24   , En4
        .byte           N24   , Gs4 , v109
        .byte   W24
        .byte           N23   , Cs4 , v091
        .byte           N23   , An4
        .byte           N23   , Cs5 , v112
        .byte   W24
        .byte   PEND
@ 019   ----------------------------------------
musicFERadiantDawnEternalBond_0_19:
        .byte           N48   , Bn3 , v127
        .byte           N48   , Ds4
        .byte           N48   , Fs4
        .byte           N48   , Bn4
        .byte   W16
        .byte           N08   , Fs2 , v094
        .byte           N08   , Fs3 , v116
        .byte   W08
        .byte           N68   , Bn2 , v095 , gtp3
        .byte                   Bn3 , v117
        .byte   W72
        .byte   PEND
@ 020   ----------------------------------------
musicFERadiantDawnEternalBond_0_20:
        .byte           N14   , Gn4 , v094
        .byte           N10   , Gn5 , v116
        .byte   W24
        .byte           N14   , Fs4 , v094
        .byte           N10   , Fs5 , v116
        .byte   W24
        .byte           N13   , Ds4 , v094
        .byte           N09   , Ds5 , v116
        .byte   W24
        .byte                   Bn3 , v095
        .byte           N09   , Bn4 , v117
        .byte   W24
        .byte   PEND
@ 021   ----------------------------------------
musicFERadiantDawnEternalBond_0_21:
        .byte           N78   , Bn3 , v094 , gtp1
        .byte                   Ds4 , v111
        .byte           N80   , Fs4
        .byte           N80   , Bn4 , v103
        .byte   W80
        .byte           N08   , Ds5 , v084
        .byte   W07
        .byte           N09   , Fs5 , v081
        .byte   W09
        .byte   PEND
@ 022   ----------------------------------------
musicFERadiantDawnEternalBond_0_22:
        .byte           N14   , Gn4 , v068
        .byte           N10   , Gn5 , v087
        .byte   W24
        .byte           N14   , Fs4 , v061
        .byte           N10   , Fs5 , v080
        .byte   W24
        .byte           N13   , Ds4 , v055
        .byte           N09   , Ds5 , v073
        .byte   W24
        .byte                   Bn3 , v049
        .byte           N09   , Bn4 , v066
        .byte   W24
        .byte   PEND
@ 023   ----------------------------------------
        .byte           TIE   , En3 , v053
        .byte   W96
@ 024   ----------------------------------------
musicFERadiantDawnEternalBond_0_24:
        .byte           N48   , Dn3 , v053 , gtp2
        .byte   W03
        .byte           EOT   , En3
        .byte   W44
        .byte   W01
        .byte           N24   , Cs3 , v053 , gtp1
        .byte   W24
        .byte           N24   , Bn2
        .byte   W21
        .byte           N03   , Dn3
        .byte   W03
        .byte   PEND
@ 025   ----------------------------------------
musicFERadiantDawnEternalBond_0_25:
        .byte           N10   , Cs3 , v047
        .byte   W24
        .byte           N68   , Cs3 , v053 , gtp3
        .byte   W72
        .byte   PEND
@ 026   ----------------------------------------
musicFERadiantDawnEternalBond_0_26:
        .byte           N18   , Fs3 , v069
        .byte   W24
        .byte                   Fs3 , v064
        .byte   W24
        .byte                   Fs4 , v066
        .byte   W24
        .byte           N17   , Cs5 , v064
        .byte   W24
        .byte   PEND
@ 027   ----------------------------------------
musicFERadiantDawnEternalBond_0_27:
        .byte   W24
        .byte           N24   , Bn2 , v044 , gtp1
        .byte           N24   , Bn3 , v060
        .byte   W24
        .byte                   Fs3 , v044 , gtp1
        .byte           N24   , Fs4 , v060
        .byte   W24
        .byte                   Cs4 , v044
        .byte           N23   , Cs5 , v060
        .byte   W24
        .byte   PEND
@ 028   ----------------------------------------
musicFERadiantDawnEternalBond_0_28:
        .byte           N23   , Bn3 , v038
        .byte           N24   , Bn4 , v054
        .byte   W24
        .byte           N13   , An3 , v044
        .byte           N12   , An4 , v060
        .byte   W12
        .byte           N13   , Gs3 , v044
        .byte           N12   , Gs4 , v060
        .byte   W12
        .byte           N23   , Fs3 , v038
        .byte           N24   , Fs4 , v054
        .byte   W24
        .byte           N13   , En3 , v044
        .byte           N12   , En4 , v060
        .byte   W12
        .byte           N13   , Dn3 , v044
        .byte           N11   , Dn4 , v060
        .byte   W12
        .byte   PEND
@ 029   ----------------------------------------
musicFERadiantDawnEternalBond_0_29:
        .byte           N23   , Cs3 , v038
        .byte           N24   , Cs4 , v054
        .byte   W24
        .byte           N13   , Bn2 , v044
        .byte           N12   , Bn3 , v060
        .byte   W12
        .byte           N13   , An2 , v044
        .byte           N12   , An3 , v060
        .byte   W12
        .byte           N24   , Gs2 , v044 , gtp1
        .byte           N24   , Gs3 , v060
        .byte   W24
        .byte           N22   , Bn2 , v038
        .byte           N23   , Bn3 , v054
        .byte   W24
        .byte   PEND
@ 030   ----------------------------------------
musicFERadiantDawnEternalBond_0_30:
        .byte           N08   , Fs4 , v120
        .byte           N08   , Fs5 , v127
        .byte   W08
        .byte                   Fs5 , v112
        .byte           N08   , Fs6 , v127
        .byte   W08
        .byte                   Fs4 , v112
        .byte           N08   , Fs5 , v127
        .byte   W08
        .byte           N48   , Fs4 , v076 , gtp1
        .byte           N48   , Fs5 , v090
        .byte   W48
        .byte           N24   , Cs4 , v076
        .byte           N23   , Cs5 , v095
        .byte   W24
        .byte   PEND
@ 031   ----------------------------------------
musicFERadiantDawnEternalBond_0_31:
        .byte           N23   , Bn3 , v069
        .byte           N24   , Fs4
        .byte           N24   , Bn4 , v088
        .byte   W24
        .byte           N18   , An3 , v076
        .byte           N16   , Fs4
        .byte           N16   , An4 , v095
        .byte   W16
        .byte           N09   , Gs3 , v076
        .byte           N09   , Fs4
        .byte           N08   , Gs4 , v095
        .byte   W08
        .byte           N23   , Fs3 , v069
        .byte           N23   , Cs4
        .byte           N24   , Fs4 , v088
        .byte   W24
        .byte           N17   , En3 , v076
        .byte           N15   , An3
        .byte           N15   , En4 , v095
        .byte   W15
        .byte           N09   , Dn3 , v076
        .byte           N09   , An3
        .byte           N08   , Dn4 , v095
        .byte   W09
        .byte   PEND
@ 032   ----------------------------------------
musicFERadiantDawnEternalBond_0_32:
        .byte           N23   , Cs3 , v069
        .byte           N24   , Fs3
        .byte           N24   , Cs4 , v088
        .byte   W24
        .byte           N18   , Bn2 , v076
        .byte           N18   , Fs3
        .byte           N16   , Bn3 , v095
        .byte   W16
        .byte           N09   , An2 , v076
        .byte           N09   , Dn3
        .byte           N08   , An3 , v095
        .byte   W08
        .byte           N24   , Gs2 , v076 , gtp1
        .byte                   Cs3
        .byte           N24   , Gs3 , v095
        .byte   W24
        .byte           N22   , Bn2 , v069
        .byte           N23   , Fs3
        .byte           N23   , Bn3 , v088
        .byte   W24
        .byte   PEND
@ 033   ----------------------------------------
musicFERadiantDawnEternalBond_0_33:
        .byte           N24   , Dn3 , v076 , gtp1
        .byte           N24   , Fs3
        .byte           N24   , Dn4 , v095
        .byte   W24
        .byte           N18   , Cs3 , v076
        .byte           N16   , Fs3
        .byte           N16   , Cs4 , v095
        .byte   W16
        .byte           N09   , Bn2 , v076
        .byte           N08   , Fs3
        .byte           N08   , Bn3 , v095
        .byte   W08
        .byte           N23   , Cs3 , v069
        .byte           N23   , Fs3
        .byte           N24   , Cs4 , v088
        .byte   W24
        .byte           N23   , Gs3 , v077
        .byte           N23   , Gs4 , v097
        .byte   W24
        .byte   PEND
@ 034   ----------------------------------------
musicFERadiantDawnEternalBond_0_34:
        .byte           N09   , An3 , v076
        .byte           N08   , An4 , v095
        .byte   W08
        .byte           N09   , Gs3 , v076
        .byte           N08   , Gs4 , v095
        .byte   W08
        .byte           N09   , Fs3 , v076
        .byte           N08   , Fs4 , v095
        .byte   W08
        .byte           N23   , Gs3 , v069
        .byte           N24   , Gs4 , v088
        .byte   W24
        .byte           N09   , En3 , v076
        .byte           N08   , En4 , v095
        .byte   W08
        .byte           N09   , Dn3 , v076
        .byte           N08   , Dn4 , v095
        .byte   W08
        .byte           N09   , Cs3 , v076
        .byte           N08   , Cs4 , v095
        .byte   W08
        .byte           N03   , Cs4 , v080
        .byte   W03
        .byte                   Dn4
        .byte   W03
        .byte           N04   , Cs4
        .byte   W04
        .byte           N03   , Dn4
        .byte   W03
        .byte                   Cs4
        .byte   W04
        .byte                   Dn4
        .byte   W03
        .byte                   Cs4
        .byte   W04
        .byte   PEND
@ 035   ----------------------------------------
musicFERadiantDawnEternalBond_0_35:
        .byte   W24
        .byte           N48   , Fs3 , v077
        .byte           N48   , Fs4 , v091
        .byte   W48
        .byte           N24   , Gn3 , v081
        .byte           N23   , Gn4 , v101
        .byte   W24
        .byte   PEND
@ 036   ----------------------------------------
musicFERadiantDawnEternalBond_0_36:
        .byte           N24   , Gs3 , v084 , gtp1
        .byte           N24   , Gs4 , v105
        .byte   W24
        .byte                   En3 , v087 , gtp1
        .byte           N24   , En4 , v108
        .byte           N08   , Gs3 , v098
        .byte   W08
        .byte           N07   , Bn3
        .byte   W08
        .byte           N08   , Gs3 , v100
        .byte   W08
        .byte           N15   , Gs3 , v088
        .byte           N24   , Gs4 , v109
        .byte           N08   , Cs4 , v100
        .byte   W08
        .byte           N17   , Gs3 , v101
        .byte   W08
        .byte           N07   , Fn3
        .byte   W08
        .byte           N15   , Cs4 , v091
        .byte           N23   , Cs5 , v112
        .byte           N07   , Fn4 , v103
        .byte   W08
        .byte           N16   , Cs4
        .byte   W07
        .byte           N08   , Bn3 , v105
        .byte   W09
        .byte   PEND
@ 037   ----------------------------------------
musicFERadiantDawnEternalBond_0_37:
        .byte           N42   , Dn4 , v076
        .byte           N42   , Fs4
        .byte           N40   , An4
        .byte           N40   , Dn5 , v095
        .byte   W40
        .byte           N08   , Cs4 , v076
        .byte           N08   , Cs5 , v095
        .byte   W08
        .byte           TIE   , Cs4 , v069
        .byte           TIE   , Fs4 , v084
        .byte           TIE   , As4
        .byte           TIE   , Cs5 , v077
        .byte   W48
        .byte   PEND
@ 038   ----------------------------------------
        .byte   W96
@ 039   ----------------------------------------
musicFERadiantDawnEternalBond_0_39:
        .byte   W72
        .byte           EOT   , Cs4
        .byte                   Fs4
        .byte                   As4
        .byte                   Cs5
        .byte           N23   , Dn3 , v054
        .byte   W24
        .byte   PEND
@ 040   ----------------------------------------
musicFERadiantDawnEternalBond_0_40:
        .byte           N09   , Dn4 , v059
        .byte   W08
        .byte                   En4 , v061
        .byte   W08
        .byte                   Fs4 , v065
        .byte   W08
        .byte                   En4 , v068
        .byte   W08
        .byte                   Fs4 , v070
        .byte   W08
        .byte                   Gn4 , v073
        .byte   W08
        .byte                   Fs4 , v077
        .byte   W08
        .byte                   Gn4 , v080
        .byte   W08
        .byte                   An4 , v082
        .byte   W08
        .byte           N22   , Bn4 , v080
        .byte   W24
        .byte   PEND
@ 041   ----------------------------------------
        .byte           N92   , Cs3 , v053 , gtp3
        .byte   W96
@ 042   ----------------------------------------
        .byte                   En3
        .byte   W96
@ 043   ----------------------------------------
        .byte           TIE   , Dn3
        .byte   W96
@ 044   ----------------------------------------
musicFERadiantDawnEternalBond_0_44:
        .byte   W78
        .byte   W01
        .byte           EOT   , Dn3
        .byte   W01
        .byte           N07   , Cs3 , v053
        .byte   W07
        .byte           N08   , Dn3
        .byte   W09
        .byte   PEND
@ 045   ----------------------------------------
musicFERadiantDawnEternalBond_0_45:
        .byte           N92   , Cs3 , v044 , gtp3
        .byte                   Cs4 , v060
        .byte   W96
        .byte   PEND
@ 046   ----------------------------------------
musicFERadiantDawnEternalBond_0_46:
        .byte           N92   , En3 , v044 , gtp3
        .byte                   En4 , v060
        .byte   W96
        .byte   PEND
@ 047   ----------------------------------------
musicFERadiantDawnEternalBond_0_47:
        .byte           TIE   , Dn3 , v044
        .byte           TIE   , Dn4 , v060
        .byte   W96
        .byte   PEND
@ 048   ----------------------------------------
musicFERadiantDawnEternalBond_0_48:
        .byte   W48
        .byte           EOT   , Dn3
        .byte                   Dn4
        .byte           N44   , Gs4 , v056 , gtp3
        .byte           TIE   , Cs4
        .byte   W48
        .byte   PEND
@ 049   ----------------------------------------
musicFERadiantDawnEternalBond_0_49:
        .byte           N92   , An4 , v053 , gtp3
        .byte   W92
        .byte   W03
        .byte           EOT   , Cs4
        .byte   W01
        .byte   PEND
@ 050   ----------------------------------------
musicFERadiantDawnEternalBond_0_50:
        .byte           N48   , Gs4 , v059
        .byte           N92   , En4 , v053 , gtp3
        .byte   W48
        .byte           N44   , Cs5 , v056 , gtp3
        .byte   W48
        .byte   PEND
@ 051   ----------------------------------------
musicFERadiantDawnEternalBond_0_51:
        .byte           N15   , Bn4 , v059
        .byte           TIE   , Dn4 , v053
        .byte   W16
        .byte           N15   , An4
        .byte   W16
        .byte                   Gs4
        .byte   W16
        .byte           N96   , Fs4 , v056
        .byte   W48
        .byte   PEND
@ 052   ----------------------------------------
musicFERadiantDawnEternalBond_0_52:
        .byte   W48
        .byte           EOT   , Dn4
        .byte           N15   , En4 , v056
        .byte           N44   , Cs4 , v056 , gtp3
        .byte   W16
        .byte           N15   , Dn4 , v053
        .byte   W16
        .byte                   Cs4
        .byte   W16
        .byte   PEND
@ 053   ----------------------------------------
musicFERadiantDawnEternalBond_0_53:
        .byte           N48   , Cs4 , v059
        .byte           N92   , Fs3 , v044 , gtp3
        .byte                   An3 , v060
        .byte   W48
        .byte           N24   , Bn3 , v056
        .byte   W24
        .byte           N23   , En4 , v054
        .byte   W24
        .byte   PEND
@ 054   ----------------------------------------
musicFERadiantDawnEternalBond_0_54:
        .byte           N24   , Fs4 , v059
        .byte           N92   , En3 , v044 , gtp3
        .byte           N48   , Cs4 , v060
        .byte   W24
        .byte           N68   , Cs4 , v054 , gtp3
        .byte   W24
        .byte           N24   , Fs4 , v056
        .byte   W24
        .byte           N23   , Gn4 , v054
        .byte   W24
        .byte   PEND
@ 055   ----------------------------------------
musicFERadiantDawnEternalBond_0_55:
        .byte           N92   , Gs4 , v053 , gtp3
        .byte                   Gs3 , v044
        .byte           N92   , Dn4 , v060 , gtp3
        .byte   W96
        .byte   PEND
@ 056   ----------------------------------------
musicFERadiantDawnEternalBond_0_56:
        .byte   W48
        .byte           N44   , Gs3 , v047 , gtp3
        .byte                   En4
        .byte           N44   , Gs4 , v064 , gtp3
        .byte   W48
        .byte   PEND
@ 057   ----------------------------------------
musicFERadiantDawnEternalBond_0_57:
        .byte           N48   , An3 , v065
        .byte           N48   , Cs4
        .byte           N48   , An4 , v084
        .byte   W48
        .byte           N24   , Fs3 , v063
        .byte           N24   , Cs4
        .byte           N24   , Fs4 , v081
        .byte   W24
        .byte           N23   , Cs4 , v060
        .byte           N23   , En4
        .byte           N23   , Cs5 , v078
        .byte   W24
        .byte   PEND
@ 058   ----------------------------------------
musicFERadiantDawnEternalBond_0_58:
        .byte           N19   , Dn4 , v065
        .byte           N19   , Fs4
        .byte           N19   , An4
        .byte           N19   , Dn5 , v084
        .byte   W48
        .byte           N09   , Cs4 , v063
        .byte           N09   , Fs4
        .byte           N09   , An4
        .byte           N09   , Cs5 , v081
        .byte   W32
        .byte           N07   , Bn4 , v069
        .byte   W07
        .byte           N08   , An4
        .byte   W09
        .byte   PEND
@ 059   ----------------------------------------
musicFERadiantDawnEternalBond_0_59:
        .byte           N92   , Gs3 , v059 , gtp3
        .byte           N56   , En4
        .byte           N36   , Gs4 , v077 , gtp3
        .byte   W32
        .byte           N60   , Gs4 , v069 , gtp3
        .byte   W08
        .byte           N08   , Fs4
        .byte   W08
        .byte           N44   , En4 , v073 , gtp3
        .byte   W08
        .byte           N15   , Dn4 , v069
        .byte   W16
        .byte           N23   , Cs4 , v070
        .byte   W24
        .byte   PEND
@ 060   ----------------------------------------
musicFERadiantDawnEternalBond_0_60:
        .byte           N48   , Bn3 , v076
        .byte   W48
        .byte           N44   , Dn4 , v073 , gtp3
        .byte   W48
        .byte   PEND
@ 061   ----------------------------------------
musicFERadiantDawnEternalBond_0_61:
        .byte           TIE   , An3 , v059
        .byte           TIE   , Cs4
        .byte           TIE   , An4 , v072
        .byte   W96
        .byte   PEND
@ 062   ----------------------------------------
musicFERadiantDawnEternalBond_0_62:
        .byte   W92
        .byte   W03
        .byte           EOT   , An3
        .byte                   Cs4
        .byte                   An4
        .byte   W01
        .byte   PEND
@ 063   ----------------------------------------
musicFERadiantDawnEternalBond_0_63:
        .byte           N08   , Fs3 , v059
        .byte   W08
        .byte                   Fs4 , v053
        .byte   W08
        .byte                   Fs3
        .byte   W08
        .byte                   Fs3 , v054
        .byte   W08
        .byte           N07   , Cs4 , v053
        .byte   W08
        .byte           N08   , En4
        .byte   W08
        .byte                   Fs3 , v056
        .byte   W08
        .byte           N07   , Fs4 , v053
        .byte   W08
        .byte           N08   , Fs3
        .byte   W08
        .byte           N07   , Fs3 , v054
        .byte   W08
        .byte                   Cs4 , v053
        .byte   W07
        .byte           N08   , En4
        .byte   W09
        .byte   PEND
@ 064   ----------------------------------------
musicFERadiantDawnEternalBond_0_64:
        .byte           N08   , Fs3 , v059
        .byte   W08
        .byte                   Fs4 , v053
        .byte   W08
        .byte                   Fs3 , v055
        .byte   W08
        .byte                   Fs3 , v058
        .byte   W08
        .byte           N07   , Cs4 , v060
        .byte   W08
        .byte           N08   , En4 , v061
        .byte   W08
        .byte                   Fs3 , v064
        .byte   W08
        .byte           N07   , Fs4 , v066
        .byte   W08
        .byte           N08   , Fs3 , v069
        .byte   W08
        .byte           N07   , Fs3 , v072
        .byte   W08
        .byte                   Cs4 , v073
        .byte   W07
        .byte           N08   , En4 , v076
        .byte   W09
        .byte   PEND
@ 065   ----------------------------------------
        .byte           N12   , Fs3 , v094
        .byte           N07   , Cs4
        .byte           N07   , Fs4 , v116
        .byte   W48
        .byte           N24   , Fs2 , v069
        .byte   W24
        .byte           N21   , Cs3 , v087
        .byte   W24
@ 066   ----------------------------------------
        .byte           N48   , Fs3 , v049
        .byte           N48   , Bn3
        .byte           N48   , Fs4 , v066
        .byte   W48
        .byte           N24   , Bn3 , v045
        .byte           N24   , Fs4
        .byte           N24   , Bn4 , v061
        .byte   W18
        .byte   TEMPO , 132/2
        .byte   W06
        .byte           N23   , Cs4 , v047
        .byte           N23   , En4
        .byte           N23   , Cs5 , v064
        .byte   W06
        .byte   TEMPO , 130/2
        .byte   W18
@ 067   ----------------------------------------
        .byte   PATT
         .word  musicFERadiantDawnEternalBond_0_4
@ 068   ----------------------------------------
        .byte   PATT
         .word  musicFERadiantDawnEternalBond_0_5
@ 069   ----------------------------------------
        .byte   PATT
         .word  musicFERadiantDawnEternalBond_0_6
@ 070   ----------------------------------------
        .byte   PATT
         .word  musicFERadiantDawnEternalBond_0_7
@ 071   ----------------------------------------
        .byte   PATT
         .word  musicFERadiantDawnEternalBond_0_8
@ 072   ----------------------------------------
        .byte   PATT
         .word  musicFERadiantDawnEternalBond_0_9
@ 073   ----------------------------------------
        .byte   PATT
         .word  musicFERadiantDawnEternalBond_0_10
@ 074   ----------------------------------------
        .byte   PATT
         .word  musicFERadiantDawnEternalBond_0_11
@ 075   ----------------------------------------
        .byte   PATT
         .word  musicFERadiantDawnEternalBond_0_12
@ 076   ----------------------------------------
        .byte   PATT
         .word  musicFERadiantDawnEternalBond_0_13
@ 077   ----------------------------------------
        .byte   PATT
         .word  musicFERadiantDawnEternalBond_0_14
@ 078   ----------------------------------------
        .byte   PATT
         .word  musicFERadiantDawnEternalBond_0_15
@ 079   ----------------------------------------
        .byte   PATT
         .word  musicFERadiantDawnEternalBond_0_16
@ 080   ----------------------------------------
        .byte   PATT
         .word  musicFERadiantDawnEternalBond_0_17
@ 081   ----------------------------------------
        .byte   PATT
         .word  musicFERadiantDawnEternalBond_0_18
@ 082   ----------------------------------------
        .byte   PATT
         .word  musicFERadiantDawnEternalBond_0_19
@ 083   ----------------------------------------
        .byte   PATT
         .word  musicFERadiantDawnEternalBond_0_20
@ 084   ----------------------------------------
        .byte   PATT
         .word  musicFERadiantDawnEternalBond_0_21
@ 085   ----------------------------------------
        .byte   PATT
         .word  musicFERadiantDawnEternalBond_0_22
@ 086   ----------------------------------------
        .byte           TIE   , En3 , v053
        .byte   W96
@ 087   ----------------------------------------
        .byte   PATT
         .word  musicFERadiantDawnEternalBond_0_24
@ 088   ----------------------------------------
        .byte   PATT
         .word  musicFERadiantDawnEternalBond_0_25
@ 089   ----------------------------------------
        .byte   PATT
         .word  musicFERadiantDawnEternalBond_0_26
@ 090   ----------------------------------------
        .byte   PATT
         .word  musicFERadiantDawnEternalBond_0_27
@ 091   ----------------------------------------
        .byte   PATT
         .word  musicFERadiantDawnEternalBond_0_28
@ 092   ----------------------------------------
        .byte   PATT
         .word  musicFERadiantDawnEternalBond_0_29
@ 093   ----------------------------------------
        .byte   PATT
         .word  musicFERadiantDawnEternalBond_0_30
@ 094   ----------------------------------------
        .byte   PATT
         .word  musicFERadiantDawnEternalBond_0_31
@ 095   ----------------------------------------
        .byte   PATT
         .word  musicFERadiantDawnEternalBond_0_32
@ 096   ----------------------------------------
        .byte   PATT
         .word  musicFERadiantDawnEternalBond_0_33
@ 097   ----------------------------------------
        .byte   PATT
         .word  musicFERadiantDawnEternalBond_0_34
@ 098   ----------------------------------------
        .byte   PATT
         .word  musicFERadiantDawnEternalBond_0_35
@ 099   ----------------------------------------
        .byte   PATT
         .word  musicFERadiantDawnEternalBond_0_36
@ 100   ----------------------------------------
        .byte   PATT
         .word  musicFERadiantDawnEternalBond_0_37
@ 101   ----------------------------------------
        .byte   W96
@ 102   ----------------------------------------
        .byte   PATT
         .word  musicFERadiantDawnEternalBond_0_39
@ 103   ----------------------------------------
        .byte   PATT
         .word  musicFERadiantDawnEternalBond_0_40
@ 104   ----------------------------------------
        .byte           N92   , Cs3 , v053 , gtp3
        .byte   W96
@ 105   ----------------------------------------
        .byte                   En3
        .byte   W96
@ 106   ----------------------------------------
        .byte           TIE   , Dn3
        .byte   W96
@ 107   ----------------------------------------
        .byte   PATT
         .word  musicFERadiantDawnEternalBond_0_44
@ 108   ----------------------------------------
        .byte   PATT
         .word  musicFERadiantDawnEternalBond_0_45
@ 109   ----------------------------------------
        .byte   PATT
         .word  musicFERadiantDawnEternalBond_0_46
@ 110   ----------------------------------------
        .byte   PATT
         .word  musicFERadiantDawnEternalBond_0_47
@ 111   ----------------------------------------
        .byte   PATT
         .word  musicFERadiantDawnEternalBond_0_48
@ 112   ----------------------------------------
        .byte   PATT
         .word  musicFERadiantDawnEternalBond_0_49
@ 113   ----------------------------------------
        .byte   PATT
         .word  musicFERadiantDawnEternalBond_0_50
@ 114   ----------------------------------------
        .byte   PATT
         .word  musicFERadiantDawnEternalBond_0_51
@ 115   ----------------------------------------
        .byte   PATT
         .word  musicFERadiantDawnEternalBond_0_52
@ 116   ----------------------------------------
        .byte   PATT
         .word  musicFERadiantDawnEternalBond_0_53
@ 117   ----------------------------------------
        .byte   PATT
         .word  musicFERadiantDawnEternalBond_0_54
@ 118   ----------------------------------------
        .byte   PATT
         .word  musicFERadiantDawnEternalBond_0_55
@ 119   ----------------------------------------
        .byte   PATT
         .word  musicFERadiantDawnEternalBond_0_56
@ 120   ----------------------------------------
        .byte   PATT
         .word  musicFERadiantDawnEternalBond_0_57
@ 121   ----------------------------------------
        .byte   PATT
         .word  musicFERadiantDawnEternalBond_0_58
@ 122   ----------------------------------------
        .byte   PATT
         .word  musicFERadiantDawnEternalBond_0_59
@ 123   ----------------------------------------
        .byte   PATT
         .word  musicFERadiantDawnEternalBond_0_60
@ 124   ----------------------------------------
        .byte   PATT
         .word  musicFERadiantDawnEternalBond_0_61
@ 125   ----------------------------------------
        .byte   PATT
         .word  musicFERadiantDawnEternalBond_0_62
@ 126   ----------------------------------------
        .byte   PATT
         .word  musicFERadiantDawnEternalBond_0_63
@ 127   ----------------------------------------
        .byte   PATT
         .word  musicFERadiantDawnEternalBond_0_64
@ 128   ----------------------------------------
        .byte           N12   , Fs3 , v094
        .byte           N07   , Cs4
        .byte           N07   , Fs4 , v116
        .byte   W48
        .byte           N24   , Fs2 , v003
        .byte   W24
        .byte           N21   , Cs3 , v009
        .byte   W21
        .byte   FINE

@****************** Track 1 (Midi-Chn.1) ******************@

musicFERadiantDawnEternalBond_1:
        .byte   KEYSH , musicFERadiantDawnEternalBond_key+0
@ 000   ----------------------------------------
        .byte           VOICE , 0
        .byte           VOL   , 88
        .byte           N92   , Fs0 , v056 , gtp3
        .byte                   Fs1 , v080
        .byte   W96
@ 001   ----------------------------------------
        .byte           N16   , Fs1 , v049
        .byte           N16   , Fs2 , v066
        .byte   W16
        .byte           N14   , Fs1 , v044
        .byte           N14   , Fs2 , v055
        .byte   W14
        .byte           N06   , Fs1 , v047
        .byte           N06   , Fs2 , v059
        .byte   W06
        .byte           N12   , Fs1 , v049
        .byte           N12   , Fs2 , v061
        .byte   W12
        .byte           N16   , Fs1 , v054
        .byte           N16   , Fs2 , v066
        .byte   W16
        .byte           N14   , Fs1 , v060
        .byte           N14   , Fs2 , v073
        .byte   W14
        .byte           N06   , Fs1 , v066
        .byte           N06   , Fs2 , v080
        .byte   W06
        .byte           N11   , Fs1 , v069
        .byte           N11   , Fs2 , v088
        .byte   W12
@ 002   ----------------------------------------
        .byte           N09   , Fs0 , v105
        .byte           N09   , Fs1 , v127
        .byte   W24
        .byte           N24   , Fs1 , v053
        .byte   W24
        .byte           N44   , Fs1 , v063
        .byte   W48
@ 003   ----------------------------------------
musicFERadiantDawnEternalBond_1_3:
        .byte           N48   , Bn0 , v033
        .byte           N48   , Fs1 , v035
        .byte           N48   , Bn1 , v050
        .byte   W48
        .byte           N44   , An0 , v031 , gtp3
        .byte                   En1 , v032
        .byte           N44   , An1 , v048 , gtp3
        .byte   W48
        .byte   PEND
@ 004   ----------------------------------------
musicFERadiantDawnEternalBond_1_4:
        .byte           N48   , En0 , v037
        .byte           N48   , An0 , v038
        .byte           N48   , En1 , v056
        .byte   W48
        .byte           N44   , Cs1 , v048 , gtp3
        .byte                   Gs1 , v049
        .byte           N44   , Cs2 , v066 , gtp3
        .byte   W48
        .byte   PEND
@ 005   ----------------------------------------
musicFERadiantDawnEternalBond_1_5:
        .byte           N48   , Dn1 , v034
        .byte           N48   , An1 , v035
        .byte           N48   , Dn2 , v050
        .byte   W48
        .byte           N44   , Bn0 , v031 , gtp3
        .byte                   Fs1 , v033
        .byte           N44   , Bn1 , v048 , gtp3
        .byte   W48
        .byte   PEND
@ 006   ----------------------------------------
musicFERadiantDawnEternalBond_1_6:
        .byte           N48   , Gs0 , v032
        .byte           N48   , En1 , v034
        .byte           N48   , Gs1 , v050
        .byte   W48
        .byte           N44   , Dn1 , v032 , gtp3
        .byte                   An1 , v033
        .byte           N44   , Dn2 , v048 , gtp3
        .byte   W48
        .byte   PEND
@ 007   ----------------------------------------
musicFERadiantDawnEternalBond_1_7:
        .byte           N48   , Fs1 , v035
        .byte           N48   , Cs2
        .byte           N48   , Fs2 , v050
        .byte   W48
        .byte           N44   , En1 , v032 , gtp3
        .byte                   Bn1 , v033
        .byte           N44   , En2 , v048 , gtp3
        .byte   W48
        .byte   PEND
@ 008   ----------------------------------------
musicFERadiantDawnEternalBond_1_8:
        .byte           N24   , En1 , v034
        .byte           N24   , Bn1 , v035
        .byte           N24   , En2 , v050
        .byte   W24
        .byte           N11   , Fs1 , v031
        .byte           N11   , Cs2
        .byte           N12   , Fs2 , v046
        .byte   W12
        .byte           N11   , En1 , v031
        .byte           N11   , Bn1 , v032
        .byte           N12   , En2 , v047
        .byte   W12
        .byte           N24   , Bn0 , v031
        .byte           N24   , Fs1 , v033
        .byte           N24   , Bn1 , v048
        .byte   W24
        .byte           N23   , En1 , v033
        .byte           N23   , Bn1 , v034
        .byte           N23   , En2 , v049
        .byte   W24
        .byte   PEND
@ 009   ----------------------------------------
musicFERadiantDawnEternalBond_1_9:
        .byte           N48   , Dn1 , v035
        .byte           N48   , An1 , v036
        .byte           N48   , Dn2 , v052
        .byte   W48
        .byte           N24   , En1 , v038
        .byte           N24   , Bn1 , v039
        .byte           N24   , En2 , v055
        .byte   W24
        .byte           N23   , Cs1 , v041
        .byte           N23   , Gs1 , v042
        .byte           N23   , Cs2 , v058
        .byte   W24
        .byte   PEND
@ 010   ----------------------------------------
musicFERadiantDawnEternalBond_1_10:
        .byte           N92   , Bn0 , v045 , gtp3
        .byte           N36   , Fs1 , v047 , gtp2
        .byte           N60   , Bn1 , v064 , gtp1
        .byte   W24
        .byte           N68   , Fs1 , v037 , gtp3
        .byte   W24
        .byte           N44   , Bn1 , v037 , gtp3
        .byte   W24
        .byte           N13   , Ds2 , v035
        .byte   W24
        .byte   PEND
@ 011   ----------------------------------------
musicFERadiantDawnEternalBond_1_11:
        .byte           N14   , Gn2 , v033
        .byte   W24
        .byte                   Fs2 , v031
        .byte   W24
        .byte           N13   , Ds2 , v030
        .byte   W24
        .byte           N06   , Bn1 , v028
        .byte   W12
        .byte           N04   , En1 , v026
        .byte   W12
        .byte   PEND
@ 012   ----------------------------------------
musicFERadiantDawnEternalBond_1_12:
        .byte           N48   , Bn0 , v063
        .byte           N48   , Fs1 , v065
        .byte           N48   , Bn1 , v084
        .byte   W48
        .byte           N44   , An0 , v059 , gtp3
        .byte                   En1 , v061
        .byte           N44   , An1 , v081 , gtp3
        .byte   W48
        .byte   PEND
@ 013   ----------------------------------------
musicFERadiantDawnEternalBond_1_13:
        .byte           N48   , En0 , v060
        .byte           N48   , An0 , v061
        .byte           N48   , En1 , v082
        .byte   W48
        .byte           N44   , Cs1 , v061 , gtp3
        .byte                   Gs1 , v063
        .byte           N44   , Cs2 , v081 , gtp3
        .byte   W48
        .byte   PEND
@ 014   ----------------------------------------
musicFERadiantDawnEternalBond_1_14:
        .byte           N48   , Dn1 , v064
        .byte           N48   , An1 , v065
        .byte           N48   , Dn2 , v084
        .byte   W48
        .byte           N44   , Bn0 , v060 , gtp3
        .byte                   Fs1 , v063
        .byte           N44   , Bn1 , v081 , gtp3
        .byte   W48
        .byte   PEND
@ 015   ----------------------------------------
musicFERadiantDawnEternalBond_1_15:
        .byte           N48   , Gs0 , v061
        .byte           N48   , En1 , v064
        .byte           N48   , Gs1 , v084
        .byte   W48
        .byte           N44   , Dn1 , v065 , gtp3
        .byte                   An1 , v066
        .byte           N44   , Dn2 , v085 , gtp3
        .byte   W48
        .byte   PEND
@ 016   ----------------------------------------
musicFERadiantDawnEternalBond_1_16:
        .byte           N48   , Fs1 , v065
        .byte           N48   , Cs2
        .byte           N48   , Fs2 , v084
        .byte   W48
        .byte           N44   , En1 , v061 , gtp3
        .byte                   Bn1 , v063
        .byte           N44   , En2 , v081 , gtp3
        .byte   W48
        .byte   PEND
@ 017   ----------------------------------------
musicFERadiantDawnEternalBond_1_17:
        .byte           N24   , En1 , v064
        .byte           N24   , Bn1 , v065
        .byte           N24   , En2 , v084
        .byte   W24
        .byte           N11   , Fs1 , v060
        .byte           N11   , Cs2
        .byte           N12   , Fs2 , v078
        .byte   W12
        .byte           N11   , En1 , v060
        .byte           N11   , Bn1 , v061
        .byte           N12   , En2 , v080
        .byte   W12
        .byte           N24   , Bn0 , v060
        .byte           N24   , Fs1 , v063
        .byte           N24   , Bn1 , v081
        .byte   W24
        .byte           N23   , En1 , v063
        .byte           N23   , Bn1 , v064
        .byte           N23   , En2 , v082
        .byte   W24
        .byte   PEND
@ 018   ----------------------------------------
musicFERadiantDawnEternalBond_1_18:
        .byte           N48   , Dn1 , v065
        .byte           N48   , An1 , v066
        .byte           N48   , Dn2 , v085
        .byte   W48
        .byte           N24   , En1 , v069
        .byte           N24   , Bn1 , v070
        .byte           N24   , En2 , v090
        .byte   W24
        .byte           N23   , Cs1 , v072
        .byte           N23   , Gs1 , v073
        .byte           N23   , Cs2 , v092
        .byte   W24
        .byte   PEND
@ 019   ----------------------------------------
musicFERadiantDawnEternalBond_1_19:
        .byte           N16   , Bn0 , v092
        .byte           N16   , Fs1 , v095
        .byte           N16   , Bn1 , v117
        .byte   W16
        .byte           N08   , Bn0 , v056
        .byte           N08   , Fs1 , v059
        .byte           N08   , Bn1 , v072
        .byte   W08
        .byte           N48   , Bn0 , v058
        .byte           N48   , Fs1 , v060
        .byte           N48   , Bn1 , v073
        .byte   W48
        .byte           N08   , Bn0 , v058
        .byte           N08   , Bn1 , v073
        .byte   W08
        .byte           N07   , Bn0 , v056
        .byte           N07   , Bn1 , v072
        .byte   W07
        .byte           N08   , Bn0 , v056
        .byte           N08   , Bn1 , v072
        .byte   W09
        .byte   PEND
@ 020   ----------------------------------------
musicFERadiantDawnEternalBond_1_20:
        .byte           N72   , Bn0 , v056
        .byte           N72   , Fs1 , v059
        .byte           N72   , Bn1 , v077
        .byte   W72
        .byte           N08   , Bn1 , v060
        .byte           N08   , Fs2 , v078
        .byte   W08
        .byte           N07   , Bn1 , v059
        .byte           N07   , Fs2 , v072
        .byte   W07
        .byte           N08   , Bn1 , v059
        .byte           N08   , Fs2 , v077
        .byte   W09
        .byte   PEND
@ 021   ----------------------------------------
musicFERadiantDawnEternalBond_1_21:
        .byte           N16   , Bn1 , v065
        .byte           N16   , Fs2
        .byte           N16   , Bn2 , v084
        .byte   W16
        .byte           N08   , Bn1 , v056
        .byte           N08   , Fs2
        .byte           N08   , Bn2 , v069
        .byte   W08
        .byte           N24   , Bn1 , v054
        .byte           N24   , Fs2
        .byte           N24   , Bn2 , v066
        .byte   W24
        .byte           N16   , Bn1 , v048
        .byte           N16   , Fs2
        .byte           N16   , Bn2 , v060
        .byte   W16
        .byte           N08   , Bn1 , v045
        .byte           N08   , Fs2
        .byte           N08   , Bn2 , v056
        .byte   W08
        .byte           N23   , Bn1 , v043
        .byte           N23   , Fs2
        .byte           N23   , Bn2 , v054
        .byte   W24
        .byte   PEND
@ 022   ----------------------------------------
musicFERadiantDawnEternalBond_1_22:
        .byte           N16   , Bn1 , v037
        .byte           N16   , Fs2
        .byte           N16   , Bn2 , v048
        .byte   W16
        .byte           N08   , Bn1 , v034
        .byte           N08   , Fs2
        .byte           N08   , Bn2 , v045
        .byte   W08
        .byte           N24   , Bn1 , v032
        .byte           N24   , Fs2
        .byte           N24   , Bn2 , v043
        .byte   W24
        .byte           N16   , Bn1 , v028
        .byte           N16   , Fs2
        .byte           N16   , Bn2 , v037
        .byte   W16
        .byte           N08   , Bn1 , v025
        .byte           N08   , Fs2
        .byte           N08   , Bn2 , v034
        .byte   W08
        .byte           N23   , Bn1 , v023
        .byte           N23   , Fs2
        .byte           N23   , Bn2 , v036
        .byte   W24
        .byte   PEND
@ 023   ----------------------------------------
musicFERadiantDawnEternalBond_1_23:
        .byte           N16   , Fs1 , v053
        .byte           N16   , Fs2 , v070
        .byte   W16
        .byte           N08   , Fs1 , v038
        .byte   W08
        .byte           N06   , Fs1 , v039
        .byte   W16
        .byte           N08   , Fs1 , v038
        .byte   W08
        .byte                   Fs1 , v042
        .byte   W08
        .byte                   Fs1 , v038
        .byte   W08
        .byte                   Fs1
        .byte   W08
        .byte           N06   , Fs1 , v039
        .byte   W15
        .byte           N08   , Fs1 , v038
        .byte   W09
        .byte   PEND
@ 024   ----------------------------------------
musicFERadiantDawnEternalBond_1_24:
        .byte           N07   , Fs1 , v044
        .byte   W16
        .byte           N08   , Fs1 , v038
        .byte   W08
        .byte           N06   , Fs1 , v039
        .byte   W16
        .byte           N08   , Fs1 , v038
        .byte   W08
        .byte                   Fs1 , v042
        .byte   W08
        .byte                   Fs1 , v038
        .byte   W08
        .byte                   Fs1
        .byte   W08
        .byte           N06   , Fs1 , v039
        .byte   W15
        .byte           N08   , Fs1 , v038
        .byte   W09
        .byte   PEND
@ 025   ----------------------------------------
        .byte   PATT
         .word  musicFERadiantDawnEternalBond_1_24
@ 026   ----------------------------------------
        .byte   PATT
         .word  musicFERadiantDawnEternalBond_1_24
@ 027   ----------------------------------------
        .byte   PATT
         .word  musicFERadiantDawnEternalBond_1_24
@ 028   ----------------------------------------
musicFERadiantDawnEternalBond_1_28:
        .byte           N16   , Fs2 , v053
        .byte           N15   , Cs3
        .byte           N16   , Fs3 , v070
        .byte   W16
        .byte           N08   , Fs1 , v031
        .byte           N08   , Fs2 , v045
        .byte   W08
        .byte           N24   , Fs1 , v031
        .byte           N24   , Fs2 , v042
        .byte   W24
        .byte           N16   , Fs1 , v033
        .byte           N16   , Fs2 , v044
        .byte   W16
        .byte           N08   , Fs1 , v031
        .byte           N08   , Fs2 , v041
        .byte   W08
        .byte           N23   , Fs1 , v031
        .byte           N23   , Fs2 , v042
        .byte   W24
        .byte   PEND
@ 029   ----------------------------------------
musicFERadiantDawnEternalBond_1_29:
        .byte           N16   , Fs1 , v035
        .byte           N15   , Cs2 , v047
        .byte           N16   , Fs2 , v042
        .byte   W16
        .byte           N08   , Fs1 , v031
        .byte           N08   , Fs2 , v041
        .byte   W08
        .byte           N24   , Fs1 , v031
        .byte           N24   , Fs2 , v042
        .byte   W24
        .byte           N16   , Fs1 , v033
        .byte           N16   , Fs2 , v044
        .byte   W16
        .byte           N08   , Fs1 , v031
        .byte           N08   , Fs2 , v041
        .byte   W08
        .byte           N23   , Fs1 , v031
        .byte           N23   , Fs2 , v042
        .byte   W24
        .byte   PEND
@ 030   ----------------------------------------
musicFERadiantDawnEternalBond_1_30:
        .byte           N16   , Fs1 , v065
        .byte           N15   , Cs2 , v080
        .byte           N16   , Fs2 , v073
        .byte   W16
        .byte           N08   , Fs1 , v059
        .byte           N08   , Fs2 , v072
        .byte   W08
        .byte           N24   , Fs1 , v060
        .byte           N24   , Fs2 , v073
        .byte   W24
        .byte           N16   , Fs1 , v063
        .byte           N16   , Fs2 , v076
        .byte   W16
        .byte           N08   , Fs1 , v059
        .byte           N08   , Fs2 , v072
        .byte   W08
        .byte           N23   , Fs1 , v060
        .byte           N23   , Fs2 , v078
        .byte   W24
        .byte   PEND
@ 031   ----------------------------------------
musicFERadiantDawnEternalBond_1_31:
        .byte           N48   , Bn0 , v091
        .byte           N48   , Bn1 , v117
        .byte   W16
        .byte           N08   , Fs0 , v054
        .byte           N08   , Fs1 , v077
        .byte   W08
        .byte           N24   , Fs0 , v055
        .byte           N24   , Fs1 , v073
        .byte   W24
        .byte           N44   , Cs1 , v090 , gtp3
        .byte                   Cs2 , v114
        .byte   W16
        .byte           N08   , Fs0 , v054
        .byte           N08   , Fs1 , v072
        .byte   W08
        .byte           N23   , Fs0 , v055
        .byte           N23   , Fs1 , v073
        .byte   W24
        .byte   PEND
@ 032   ----------------------------------------
musicFERadiantDawnEternalBond_1_32:
        .byte           N48   , Dn1 , v092
        .byte           N48   , Dn2 , v117
        .byte   W16
        .byte           N08   , Fs0 , v054
        .byte           N08   , Fs1 , v072
        .byte   W08
        .byte           N24   , Fs0 , v055
        .byte           N24   , Fs1 , v073
        .byte   W24
        .byte           N44   , En1 , v091 , gtp3
        .byte                   En2 , v114
        .byte   W16
        .byte           N08   , Fs0 , v054
        .byte           N08   , Fs1 , v072
        .byte   W08
        .byte           N23   , Fs0 , v055
        .byte           N23   , Fs1 , v073
        .byte   W24
        .byte   PEND
@ 033   ----------------------------------------
musicFERadiantDawnEternalBond_1_33:
        .byte           N24   , Fs1 , v094
        .byte           N48   , Fs2 , v117
        .byte   W16
        .byte           N08   , Fs0 , v054
        .byte           N32   , Fs1 , v072
        .byte   W08
        .byte           N24   , Fs0 , v055
        .byte           N24   , Fs1 , v073
        .byte   W24
        .byte           N44   , Gs1 , v092 , gtp3
        .byte                   Gs2 , v114
        .byte   W16
        .byte           N08   , Fs0 , v054
        .byte           N08   , Fs1 , v072
        .byte   W08
        .byte           N23   , Fs0 , v055
        .byte           N23   , Fs1 , v073
        .byte   W24
        .byte   PEND
@ 034   ----------------------------------------
musicFERadiantDawnEternalBond_1_34:
        .byte           N48   , An1 , v095
        .byte           N48   , An2 , v117
        .byte   W16
        .byte           N08   , Fs0 , v054
        .byte           N08   , Fs1 , v072
        .byte   W08
        .byte           N24   , Fs0 , v055
        .byte           N24   , Fs1 , v073
        .byte   W24
        .byte           N44   , Bn1 , v092 , gtp3
        .byte                   Bn2 , v114
        .byte   W16
        .byte           N08   , Fs0 , v054
        .byte           N08   , Fs1 , v072
        .byte   W08
        .byte           N23   , Fs0 , v055
        .byte           N23   , Fs1 , v073
        .byte   W24
        .byte   PEND
@ 035   ----------------------------------------
musicFERadiantDawnEternalBond_1_35:
        .byte           N48   , Cs2 , v095
        .byte           N48   , Cs3 , v117
        .byte   W16
        .byte           N08   , Fs0 , v055
        .byte           N08   , Fs1 , v073
        .byte   W08
        .byte           N24   , Fs0 , v056
        .byte           N24   , Fs1 , v074
        .byte   W24
        .byte                   Bn1 , v097
        .byte           N24   , Bn2 , v119
        .byte   W16
        .byte           N07   , Fs0 , v064
        .byte           N07   , Fs1 , v082
        .byte   W08
        .byte           N23   , Gs1 , v070
        .byte           N23   , Gs2 , v090
        .byte   W24
        .byte   PEND
@ 036   ----------------------------------------
musicFERadiantDawnEternalBond_1_36:
        .byte           N48   , En1 , v105
        .byte           N48   , En2 , v127
        .byte   W16
        .byte           N08   , Fs0 , v072
        .byte           N08   , Fs1 , v091
        .byte   W08
        .byte           N24   , Fs0 , v074
        .byte           N24   , Fs1 , v094
        .byte   W24
        .byte           N44   , Cs2 , v117 , gtp3
        .byte                   Cs3 , v127
        .byte   W16
        .byte           N08   , Fs0 , v081
        .byte           N08   , Fs1 , v101
        .byte   W08
        .byte           N23   , Fs0 , v082
        .byte           N23   , Fs1 , v103
        .byte   W24
        .byte   PEND
@ 037   ----------------------------------------
musicFERadiantDawnEternalBond_1_37:
        .byte           TIE   , Fs0 , v088
        .byte           TIE   , Cs1 , v109
        .byte           TIE   , Fs1 , v103
        .byte   W96
        .byte   PEND
@ 038   ----------------------------------------
musicFERadiantDawnEternalBond_1_38:
        .byte   W92
        .byte   W03
        .byte           EOT   , Fs0
        .byte                   Cs1
        .byte                   Fs1
        .byte   W01
        .byte   PEND
@ 039   ----------------------------------------
musicFERadiantDawnEternalBond_1_39:
        .byte           TIE   , Fs0 , v088
        .byte           TIE   , Cs1 , v092
        .byte           TIE   , Fs1 , v109
        .byte   W96
        .byte   PEND
@ 040   ----------------------------------------
musicFERadiantDawnEternalBond_1_40:
        .byte   W48
        .byte           EOT   , Fs0
        .byte                   Cs1
        .byte                   Fs1
        .byte   W48
        .byte   PEND
@ 041   ----------------------------------------
musicFERadiantDawnEternalBond_1_41:
        .byte           N07   , Fs1 , v044
        .byte   W16
        .byte           N08   , Fs1 , v038
        .byte   W08
        .byte           N06   , Fs1 , v039
        .byte   W16
        .byte           N08   , Fs1 , v038
        .byte   W08
        .byte           N06   , Fs1 , v042
        .byte   W16
        .byte           N08   , Fs1 , v038
        .byte   W08
        .byte           N06   , Fs1 , v039
        .byte   W15
        .byte           N08   , Fs1 , v038
        .byte   W09
        .byte   PEND
@ 042   ----------------------------------------
        .byte   PATT
         .word  musicFERadiantDawnEternalBond_1_41
@ 043   ----------------------------------------
        .byte   PATT
         .word  musicFERadiantDawnEternalBond_1_41
@ 044   ----------------------------------------
        .byte   PATT
         .word  musicFERadiantDawnEternalBond_1_41
@ 045   ----------------------------------------
musicFERadiantDawnEternalBond_1_45:
        .byte           N07   , Fs1 , v044
        .byte   W16
        .byte           N08   , Fs1 , v038
        .byte   W08
        .byte                   Fs0 , v035
        .byte   W08
        .byte           N07   , Cs1 , v037
        .byte   W08
        .byte           N08   , En1
        .byte   W08
        .byte           N06   , Fs1 , v042
        .byte   W16
        .byte           N07   , Fs1 , v038
        .byte   W08
        .byte                   Fs0 , v035
        .byte   W08
        .byte                   Cs1 , v037
        .byte   W07
        .byte           N08   , En1
        .byte   W09
        .byte   PEND
@ 046   ----------------------------------------
        .byte   PATT
         .word  musicFERadiantDawnEternalBond_1_45
@ 047   ----------------------------------------
        .byte   PATT
         .word  musicFERadiantDawnEternalBond_1_45
@ 048   ----------------------------------------
        .byte   PATT
         .word  musicFERadiantDawnEternalBond_1_45
@ 049   ----------------------------------------
        .byte   PATT
         .word  musicFERadiantDawnEternalBond_1_45
@ 050   ----------------------------------------
        .byte   PATT
         .word  musicFERadiantDawnEternalBond_1_45
@ 051   ----------------------------------------
        .byte   PATT
         .word  musicFERadiantDawnEternalBond_1_45
@ 052   ----------------------------------------
        .byte   PATT
         .word  musicFERadiantDawnEternalBond_1_45
@ 053   ----------------------------------------
        .byte   PATT
         .word  musicFERadiantDawnEternalBond_1_45
@ 054   ----------------------------------------
        .byte   PATT
         .word  musicFERadiantDawnEternalBond_1_45
@ 055   ----------------------------------------
        .byte   PATT
         .word  musicFERadiantDawnEternalBond_1_45
@ 056   ----------------------------------------
        .byte   PATT
         .word  musicFERadiantDawnEternalBond_1_45
@ 057   ----------------------------------------
musicFERadiantDawnEternalBond_1_57:
        .byte           N07   , Fs1 , v049
        .byte           N07   , Fs2 , v061
        .byte   W16
        .byte           N08   , Fs1 , v044
        .byte           N08   , Fs2 , v055
        .byte   W08
        .byte           N06   , Fs1 , v045
        .byte           N06   , Fs2 , v056
        .byte   W16
        .byte           N08   , Fs1 , v044
        .byte           N08   , Fs2 , v055
        .byte   W08
        .byte           N06   , Fs1 , v047
        .byte           N06   , Fs2 , v059
        .byte   W16
        .byte           N08   , Fs1 , v044
        .byte           N08   , Fs2 , v055
        .byte   W08
        .byte           N06   , Fs1 , v045
        .byte           N06   , Fs2 , v056
        .byte   W15
        .byte           N08   , Fs1 , v044
        .byte           N08   , Fs2 , v055
        .byte   W09
        .byte   PEND
@ 058   ----------------------------------------
        .byte   PATT
         .word  musicFERadiantDawnEternalBond_1_57
@ 059   ----------------------------------------
        .byte   PATT
         .word  musicFERadiantDawnEternalBond_1_57
@ 060   ----------------------------------------
        .byte   PATT
         .word  musicFERadiantDawnEternalBond_1_57
@ 061   ----------------------------------------
        .byte   PATT
         .word  musicFERadiantDawnEternalBond_1_57
@ 062   ----------------------------------------
musicFERadiantDawnEternalBond_1_62:
        .byte           N07   , Fs1 , v049
        .byte           N07   , Fs2 , v061
        .byte   W16
        .byte           N08   , Fs1 , v044
        .byte           N08   , Fs2 , v055
        .byte   W08
        .byte           N06   , Fs1 , v045
        .byte           N06   , Fs2 , v056
        .byte   W16
        .byte           N08   , Fs1 , v044
        .byte           N08   , Fs2 , v055
        .byte   W08
        .byte           N06   , Fs1 , v047
        .byte           N06   , Fs2 , v059
        .byte   W16
        .byte           N08   , Fs1 , v044
        .byte           N08   , Fs2 , v055
        .byte   W08
        .byte           N06   , Fs1 , v045
        .byte           N06   , Fs2 , v056
        .byte   W15
        .byte           N08   , Fs1 , v044
        .byte           N08   , Fs2 , v060
        .byte   W09
        .byte   PEND
@ 063   ----------------------------------------
musicFERadiantDawnEternalBond_1_63:
        .byte           N48   , Fs0 , v082
        .byte           N48   , Fs1 , v109
        .byte   W84
        .byte   W03
        .byte           N08   , Fs0 , v039
        .byte           N08   , Fs1 , v055
        .byte   W09
        .byte   PEND
@ 064   ----------------------------------------
musicFERadiantDawnEternalBond_1_64:
        .byte           N08   , Fs0 , v045
        .byte           N08   , Fs1 , v061
        .byte   W08
        .byte                   Fs0 , v039
        .byte           N08   , Fs1 , v055
        .byte   W08
        .byte                   Fs0 , v042
        .byte           N08   , Fs1 , v058
        .byte   W16
        .byte           N15   , Fs0 , v046
        .byte           N16   , Fs1 , v063
        .byte   W24
        .byte           N08   , Fs0 , v052
        .byte           N08   , Fs1 , v069
        .byte   W08
        .byte                   Fs0 , v054
        .byte           N08   , Fs1 , v072
        .byte   W08
        .byte                   Fs0 , v056
        .byte           N08   , Fs1 , v074
        .byte   W08
        .byte           N07   , Fs0 , v059
        .byte           N07   , Fs1 , v077
        .byte   W07
        .byte           N08   , Fs0 , v060
        .byte           N08   , Fs1 , v078
        .byte   W09
        .byte   PEND
@ 065   ----------------------------------------
        .byte           N07   , Fs0 , v088
        .byte           N07   , Fs1 , v109
        .byte   W24
        .byte           N24   , Fs1 , v053
        .byte   W24
        .byte           N44   , Fs1 , v069
        .byte   W48
@ 066   ----------------------------------------
        .byte   PATT
         .word  musicFERadiantDawnEternalBond_1_3
@ 067   ----------------------------------------
        .byte   PATT
         .word  musicFERadiantDawnEternalBond_1_4
@ 068   ----------------------------------------
        .byte   PATT
         .word  musicFERadiantDawnEternalBond_1_5
@ 069   ----------------------------------------
        .byte   PATT
         .word  musicFERadiantDawnEternalBond_1_6
@ 070   ----------------------------------------
        .byte   PATT
         .word  musicFERadiantDawnEternalBond_1_7
@ 071   ----------------------------------------
        .byte   PATT
         .word  musicFERadiantDawnEternalBond_1_8
@ 072   ----------------------------------------
        .byte   PATT
         .word  musicFERadiantDawnEternalBond_1_9
@ 073   ----------------------------------------
        .byte   PATT
         .word  musicFERadiantDawnEternalBond_1_10
@ 074   ----------------------------------------
        .byte   PATT
         .word  musicFERadiantDawnEternalBond_1_11
@ 075   ----------------------------------------
        .byte   PATT
         .word  musicFERadiantDawnEternalBond_1_12
@ 076   ----------------------------------------
        .byte   PATT
         .word  musicFERadiantDawnEternalBond_1_13
@ 077   ----------------------------------------
        .byte   PATT
         .word  musicFERadiantDawnEternalBond_1_14
@ 078   ----------------------------------------
        .byte   PATT
         .word  musicFERadiantDawnEternalBond_1_15
@ 079   ----------------------------------------
        .byte   PATT
         .word  musicFERadiantDawnEternalBond_1_16
@ 080   ----------------------------------------
        .byte   PATT
         .word  musicFERadiantDawnEternalBond_1_17
@ 081   ----------------------------------------
        .byte   PATT
         .word  musicFERadiantDawnEternalBond_1_18
@ 082   ----------------------------------------
        .byte   PATT
         .word  musicFERadiantDawnEternalBond_1_19
@ 083   ----------------------------------------
        .byte   PATT
         .word  musicFERadiantDawnEternalBond_1_20
@ 084   ----------------------------------------
        .byte   PATT
         .word  musicFERadiantDawnEternalBond_1_21
@ 085   ----------------------------------------
        .byte   PATT
         .word  musicFERadiantDawnEternalBond_1_22
@ 086   ----------------------------------------
        .byte   PATT
         .word  musicFERadiantDawnEternalBond_1_23
@ 087   ----------------------------------------
        .byte   PATT
         .word  musicFERadiantDawnEternalBond_1_24
@ 088   ----------------------------------------
        .byte   PATT
         .word  musicFERadiantDawnEternalBond_1_24
@ 089   ----------------------------------------
        .byte   PATT
         .word  musicFERadiantDawnEternalBond_1_24
@ 090   ----------------------------------------
        .byte   PATT
         .word  musicFERadiantDawnEternalBond_1_24
@ 091   ----------------------------------------
        .byte   PATT
         .word  musicFERadiantDawnEternalBond_1_28
@ 092   ----------------------------------------
        .byte   PATT
         .word  musicFERadiantDawnEternalBond_1_29
@ 093   ----------------------------------------
        .byte   PATT
         .word  musicFERadiantDawnEternalBond_1_30
@ 094   ----------------------------------------
        .byte   PATT
         .word  musicFERadiantDawnEternalBond_1_31
@ 095   ----------------------------------------
        .byte   PATT
         .word  musicFERadiantDawnEternalBond_1_32
@ 096   ----------------------------------------
        .byte   PATT
         .word  musicFERadiantDawnEternalBond_1_33
@ 097   ----------------------------------------
        .byte   PATT
         .word  musicFERadiantDawnEternalBond_1_34
@ 098   ----------------------------------------
        .byte   PATT
         .word  musicFERadiantDawnEternalBond_1_35
@ 099   ----------------------------------------
        .byte   PATT
         .word  musicFERadiantDawnEternalBond_1_36
@ 100   ----------------------------------------
        .byte   PATT
         .word  musicFERadiantDawnEternalBond_1_37
@ 101   ----------------------------------------
        .byte   PATT
         .word  musicFERadiantDawnEternalBond_1_38
@ 102   ----------------------------------------
        .byte   PATT
         .word  musicFERadiantDawnEternalBond_1_39
@ 103   ----------------------------------------
        .byte   PATT
         .word  musicFERadiantDawnEternalBond_1_40
@ 104   ----------------------------------------
        .byte   PATT
         .word  musicFERadiantDawnEternalBond_1_41
@ 105   ----------------------------------------
        .byte   PATT
         .word  musicFERadiantDawnEternalBond_1_41
@ 106   ----------------------------------------
        .byte   PATT
         .word  musicFERadiantDawnEternalBond_1_41
@ 107   ----------------------------------------
        .byte   PATT
         .word  musicFERadiantDawnEternalBond_1_41
@ 108   ----------------------------------------
        .byte   PATT
         .word  musicFERadiantDawnEternalBond_1_45
@ 109   ----------------------------------------
        .byte   PATT
         .word  musicFERadiantDawnEternalBond_1_45
@ 110   ----------------------------------------
        .byte   PATT
         .word  musicFERadiantDawnEternalBond_1_45
@ 111   ----------------------------------------
        .byte   PATT
         .word  musicFERadiantDawnEternalBond_1_45
@ 112   ----------------------------------------
        .byte   PATT
         .word  musicFERadiantDawnEternalBond_1_45
@ 113   ----------------------------------------
        .byte   PATT
         .word  musicFERadiantDawnEternalBond_1_45
@ 114   ----------------------------------------
        .byte   PATT
         .word  musicFERadiantDawnEternalBond_1_45
@ 115   ----------------------------------------
        .byte   PATT
         .word  musicFERadiantDawnEternalBond_1_45
@ 116   ----------------------------------------
        .byte   PATT
         .word  musicFERadiantDawnEternalBond_1_45
@ 117   ----------------------------------------
        .byte   PATT
         .word  musicFERadiantDawnEternalBond_1_45
@ 118   ----------------------------------------
        .byte   PATT
         .word  musicFERadiantDawnEternalBond_1_45
@ 119   ----------------------------------------
        .byte   PATT
         .word  musicFERadiantDawnEternalBond_1_45
@ 120   ----------------------------------------
        .byte   PATT
         .word  musicFERadiantDawnEternalBond_1_57
@ 121   ----------------------------------------
        .byte   PATT
         .word  musicFERadiantDawnEternalBond_1_57
@ 122   ----------------------------------------
        .byte   PATT
         .word  musicFERadiantDawnEternalBond_1_57
@ 123   ----------------------------------------
        .byte   PATT
         .word  musicFERadiantDawnEternalBond_1_57
@ 124   ----------------------------------------
        .byte   PATT
         .word  musicFERadiantDawnEternalBond_1_57
@ 125   ----------------------------------------
        .byte   PATT
         .word  musicFERadiantDawnEternalBond_1_62
@ 126   ----------------------------------------
        .byte   PATT
         .word  musicFERadiantDawnEternalBond_1_63
@ 127   ----------------------------------------
        .byte   PATT
         .word  musicFERadiantDawnEternalBond_1_64
@ 128   ----------------------------------------
        .byte           N07   , Fs0 , v088
        .byte           N07   , Fs1 , v109
        .byte   W24
        .byte           N24   , Fs1 , v000
        .byte   W24
        .byte           N44   , Fs1 , v003
        .byte   W44
        .byte   W01
        .byte   FINE


@********************** End of Song ***********************@

        .align  2
musicFERadiantDawnEternalBond:
        .byte   2                       @ Num Tracks
        .byte   0                       @ Unknown
        .byte   musicFERadiantDawnEternalBond_pri @ Priority
        .byte   musicFERadiantDawnEternalBond_rev @ Reverb

        .word   musicFERadiantDawnEternalBond_grp

        .word   musicFERadiantDawnEternalBond_0
        .word   musicFERadiantDawnEternalBond_1

        .end
